SplineFontDB: 3.2
FontName: Roboto-Black
FullName: Roboto Black
FamilyName: Roboto Black
Weight: Black
Copyright: Copyright 2011 Google Inc. All Rights Reserved.
Version: 2.137; 2017
ItalicAngle: 0
UnderlinePosition: -200
UnderlineWidth: 100
Ascent: 1536
Descent: 512
InvalidEm: 0
sfntRevision: 0x00022312
LayerCount: 2
Layer: 0 1 "+BBcEMAQ0BD0EOAQ5 +BD8EOwQwBD0A" 1
Layer: 1 1 "+BB8ENQRABDUENAQ9BDgEOQAA +BD8EOwQwBD0A" 0
XUID: [1021 615 2143489651 18555]
StyleMap: 0x0040
FSType: 0
OS2Version: 3
OS2_WeightWidthSlopeOnly: 0
OS2_UseTypoMetrics: 0
CreationTime: 1221222574
ModificationTime: 1490788940
PfmFamily: 17
TTFWeight: 900
TTFWidth: 5
LineGap: 0
VLineGap: 0
Panose: 2 0 0 0 0 0 0 0 0 0
OS2TypoAscent: 1536
OS2TypoAOffset: 0
OS2TypoDescent: -512
OS2TypoDOffset: 0
OS2TypoLinegap: 102
OS2WinAscent: 1946
OS2WinAOffset: 0
OS2WinDescent: 512
OS2WinDOffset: 0
HheadAscent: 1900
HheadAOffset: 0
HheadDescent: -500
HheadDOffset: 0
OS2SubXSize: 1434
OS2SubYSize: 1331
OS2SubXOff: 0
OS2SubYOff: 287
OS2SupXSize: 1434
OS2SupYSize: 1331
OS2SupXOff: 0
OS2SupYOff: 977
OS2StrikeYSize: 102
OS2StrikeYPos: 512
OS2CapHeight: 1456
OS2XHeight: 1082
OS2Vendor: 'GOOG'
OS2CodePages: 2000019f.00000000
OS2UnicodeRanges: e00002ff.5000205b.00000020.00000000
Lookup: 1 0 0 "'c2sc' +BBoEMAQ/BDgEQgQ1BDsETAAA +BDgENwAA +BD8EQAQ+BD8EOARBBD0ESwRF lookup 0" { "'c2sc' +BBoEMAQ/BDgEQgQ1BDsETAAA +BDgENwAA +BD8EQAQ+BD8EOARBBD0ESwRF lookup 0 subtable"  } ['c2sc' ('DFLT' <'dflt' > 'cyrl' <'dflt' > 'grek' <'dflt' > 'latn' <'AZE ' 'CRT ' 'FRA ' 'MOL ' 'NAV ' 'ROM ' 'TRK ' 'dflt' > ) ]
Lookup: 1 0 0 "'smcp' Lowercase to Small Capitals lookup 1" { "'smcp' Lowercase to Small Capitals lookup 1 subtable"  } ['smcp' ('DFLT' <'dflt' > 'cyrl' <'dflt' > 'grek' <'dflt' > 'latn' <'AZE ' 'CRT ' 'FRA ' 'MOL ' 'NAV ' 'ROM ' 'TRK ' 'dflt' > ) ]

StartChar: .notdef
Encoding: 1114112 -1 0
Width: 908
Flags: W
LayerCount: 2
Fore
SplineSet
808 0 m 1,0,-1
 100 0 l 1,1,-1
 100 1456 l 1,2,-1
 808 1456 l 1,3,-1
 808 0 l 1,0,-1
754 84 m 1,4,-1
 754 1371 l 1,5,-1
 480 728 l 1,6,-1
 754 84 l 1,4,-1
154 1359 m 1,7,-1
 154 96 l 1,8,-1
 422 728 l 1,9,-1
 154 1359 l 1,7,-1
194 54 m 1,10,-1
 709 54 l 1,11,-1
 451 660 l 1,12,-1
 194 54 l 1,10,-1
451 796 m 1,13,-1
 709 1402 l 1,14,-1
 194 1402 l 1,15,-1
 451 796 l 1,13,-1
EndSplineSet
EndChar

StartChar: exclam
Encoding: 33 33 5
Width: 565
Flags: W
LayerCount: 2
Fore
SplineSet
429 461 m 1,0,-1
 156 461 l 1,1,-1
 113 1456 l 1,2,-1
 472 1456 l 1,3,-1
 429 461 l 1,0,-1
103 151 m 256,4,5
 103 225 103 225 156.5 272.5 c 128,-1,6
 210 320 210 320 290 320 c 128,-1,7
 370 320 370 320 423.5 272.5 c 128,-1,8
 477 225 477 225 477 151 c 128,-1,9
 477 77 477 77 423.5 29.5 c 128,-1,10
 370 -18 370 -18 290 -18 c 128,-1,11
 210 -18 210 -18 156.5 29.5 c 128,-1,12
 103 77 103 77 103 151 c 256,4,5
EndSplineSet
EndChar

StartChar: quotedbl
Encoding: 34 34 6
Width: 649
Flags: W
LayerCount: 2
Fore
SplineSet
255 1398 m 1,0,-1
 212 969 l 1,1,-1
 25 969 l 1,2,-1
 25 1537 l 1,3,-1
 255 1537 l 1,4,-1
 255 1398 l 1,0,-1
606 1398 m 1,5,-1
 563 969 l 1,6,-1
 378 969 l 1,7,-1
 378 1537 l 1,8,-1
 606 1537 l 1,9,-1
 606 1398 l 1,5,-1
EndSplineSet
EndChar

StartChar: numbersign
Encoding: 35 35 7
Width: 1190
Flags: W
LayerCount: 2
Fore
SplineSet
612 410 m 1,0,-1
 451 410 l 1,1,-1
 384 0 l 1,2,-1
 185 0 l 1,3,-1
 252 410 l 1,4,-1
 30 410 l 1,5,-1
 30 593 l 1,6,-1
 282 593 l 1,7,-1
 326 857 l 1,8,-1
 105 857 l 1,9,-1
 105 1040 l 1,10,-1
 356 1040 l 1,11,-1
 425 1456 l 1,12,-1
 623 1456 l 1,13,-1
 555 1040 l 1,14,-1
 716 1040 l 1,15,-1
 785 1456 l 1,16,-1
 984 1456 l 1,17,-1
 915 1040 l 1,18,-1
 1146 1040 l 1,19,-1
 1146 857 l 1,20,-1
 885 857 l 1,21,-1
 841 593 l 1,22,-1
 1070 593 l 1,23,-1
 1070 410 l 1,24,-1
 811 410 l 1,25,-1
 744 0 l 1,26,-1
 545 0 l 1,27,-1
 612 410 l 1,0,-1
481 593 m 1,28,-1
 642 593 l 1,29,-1
 686 857 l 1,30,-1
 525 857 l 1,31,-1
 481 593 l 1,28,-1
EndSplineSet
EndChar

StartChar: dollar
Encoding: 36 36 8
Width: 1186
Flags: W
LayerCount: 2
Fore
SplineSet
760 386 m 0,0,1
 760 465 760 465 721 510 c 128,-1,2
 682 555 682 555 584 595 c 128,-1,3
 486 635 486 635 403 676 c 128,-1,4
 320 717 320 717 260 771 c 128,-1,5
 200 825 200 825 168 896 c 128,-1,6
 136 967 136 967 136 1068 c 0,7,8
 136 1237 136 1237 250 1346.5 c 128,-1,9
 364 1456 364 1456 554 1474 c 1,10,-1
 554 1685 l 1,11,-1
 713 1685 l 1,12,-1
 713 1470 l 1,13,14
 896 1443 896 1443 1000.5 1319.5 c 128,-1,15
 1105 1196 1105 1196 1105 1006 c 1,16,-1
 767 1006 l 1,17,18
 767 1110 767 1110 727 1166 c 128,-1,19
 687 1222 687 1222 613 1222 c 0,20,21
 547 1222 547 1222 510.5 1180.5 c 128,-1,22
 474 1139 474 1139 474 1066 c 0,23,24
 474 992 474 992 516 948.5 c 128,-1,25
 558 905 558 905 651 865.5 c 128,-1,26
 744 826 744 826 826.5 783.5 c 128,-1,27
 909 741 909 741 969 687 c 128,-1,28
 1029 633 1029 633 1063 561 c 128,-1,29
 1097 489 1097 489 1097 388 c 0,30,31
 1097 217 1097 217 988.5 109 c 128,-1,32
 880 1 880 1 693 -17 c 1,33,-1
 693 -218 l 1,34,-1
 534 -218 l 1,35,-1
 534 -16 l 1,36,37
 316 7 316 7 199.5 133.5 c 128,-1,38
 83 260 83 260 83 467 c 1,39,-1
 420 467 l 1,40,41
 420 353 420 353 470.5 293.5 c 128,-1,42
 521 234 521 234 614 234 c 0,43,44
 682 234 682 234 721 274.5 c 128,-1,45
 760 315 760 315 760 386 c 0,0,1
EndSplineSet
Substitution2: "'c2sc' +BBoEMAQ/BDgEQgQ1BDsETAAA +BDgENwAA +BD8EQAQ+BD8EOARBBD0ESwRF lookup 0 subtable" dollar.c2sc
Position2: "'cpsp' +BBgEPQRCBDUEQAQyBDAEOwAA +BD8EQAQ+BD8EOARBBD0ESwRF lookup 0 subtable" dx=36 dy=0 dh=72 dv=0
EndChar

StartChar: percent
Encoding: 37 37 9
Width: 1520
Flags: W
LayerCount: 2
Fore
SplineSet
90 1176 m 2,0,1
 90 1311 90 1311 178 1394 c 128,-1,2
 266 1477 266 1477 414 1477 c 0,3,4
 564 1477 564 1477 651 1394.5 c 128,-1,5
 738 1312 738 1312 738 1171 c 2,6,-1
 738 1099 l 2,7,8
 738 964 738 964 651 882 c 128,-1,9
 564 800 564 800 416 800 c 0,10,11
 269 800 269 800 179.5 881.5 c 128,-1,12
 90 963 90 963 90 1105 c 2,13,-1
 90 1176 l 2,0,1
307 1099 m 2,14,15
 307 1047 307 1047 336 1014.5 c 128,-1,16
 365 982 365 982 416 982 c 0,17,18
 521 982 521 982 521 1116 c 2,19,-1
 521 1176 l 2,20,21
 521 1228 521 1228 493 1261.5 c 128,-1,22
 465 1295 465 1295 414 1295 c 0,23,24
 365 1295 365 1295 336 1262.5 c 128,-1,25
 307 1230 307 1230 307 1174 c 2,26,-1
 307 1099 l 2,14,15
782 357 m 2,27,28
 782 493 782 493 870.5 575 c 128,-1,29
 959 657 959 657 1106 657 c 0,30,31
 1255 657 1255 657 1343 576 c 128,-1,32
 1431 495 1431 495 1431 350 c 2,33,-1
 1431 280 l 2,34,35
 1431 144 1431 144 1344 62 c 128,-1,36
 1257 -20 1257 -20 1108 -20 c 0,37,38
 961 -20 961 -20 871.5 61.5 c 128,-1,39
 782 143 782 143 782 285 c 2,40,-1
 782 357 l 2,27,28
998 280 m 2,41,42
 998 233 998 233 1030 197.5 c 128,-1,43
 1062 162 1062 162 1108 162 c 0,44,45
 1205 162 1205 162 1213 254 c 1,46,-1
 1214 357 l 2,47,48
 1214 410 1214 410 1185 442.5 c 128,-1,49
 1156 475 1156 475 1106 475 c 0,50,51
 1058 475 1058 475 1029 444.5 c 128,-1,52
 1000 414 1000 414 998 362 c 2,53,-1
 998 280 l 2,41,42
480 109 m 1,54,-1
 323 188 l 1,55,-1
 1034 1326 l 1,56,-1
 1191 1247 l 1,57,-1
 480 109 l 1,54,-1
EndSplineSet
EndChar

StartChar: ampersand
Encoding: 38 38 10
Width: 1380
Flags: W
LayerCount: 2
Fore
SplineSet
311 767 m 1,0,1
 252 851 252 851 218.5 927 c 128,-1,2
 185 1003 185 1003 185 1084 c 0,3,4
 185 1260 185 1260 299 1368.5 c 128,-1,5
 413 1477 413 1477 597 1477 c 0,6,7
 762 1477 762 1477 870 1376.5 c 128,-1,8
 978 1276 978 1276 978 1127 c 0,9,10
 978 941 978 941 773 797 c 2,11,-1
 697 744 l 1,12,-1
 921 487 l 1,13,14
 976 597 976 597 976 728 c 1,15,-1
 1259 728 l 1,16,17
 1259 433 1259 433 1123 255 c 1,18,-1
 1345 0 l 1,19,-1
 969 0 l 1,20,-1
 901 77 l 1,21,22
 817 27 817 27 729.5 3 c 128,-1,23
 642 -21 642 -21 532 -21 c 0,24,25
 316 -21 316 -21 186 92.5 c 128,-1,26
 56 206 56 206 56 391 c 0,27,28
 56 492 56 492 107.5 574 c 128,-1,29
 159 656 159 656 308 765 c 1,30,-1
 311 767 l 1,0,1
554 239 m 0,31,32
 642 239 642 239 722 280 c 1,33,-1
 460 578 l 1,34,-1
 451 572 l 1,35,36
 394 502 394 502 394 414 c 0,37,38
 394 341 394 341 440 290 c 128,-1,39
 486 239 486 239 554 239 c 0,31,32
476 1088 m 0,40,41
 476 1018 476 1018 552 918 c 1,42,-1
 619 960 l 2,43,44
 665 990 665 990 686 1022 c 128,-1,45
 707 1054 707 1054 707 1103 c 0,46,47
 707 1149 707 1149 675 1183 c 128,-1,48
 643 1217 643 1217 596 1217 c 0,49,50
 540 1217 540 1217 508 1181.5 c 128,-1,51
 476 1146 476 1146 476 1088 c 0,40,41
EndSplineSet
Substitution2: "'smcp' Lowercase to Small Capitals lookup 1 subtable" ampersand.c2sc
Substitution2: "'c2sc' +BBoEMAQ/BDgEQgQ1BDsETAAA +BDgENwAA +BD8EQAQ+BD8EOARBBD0ESwRF lookup 0 subtable" ampersand.c2sc
Position2: "'cpsp' +BBgEPQRCBDUEQAQyBDAEOwAA +BD8EQAQ+BD8EOARBBD0ESwRF lookup 0 subtable" dx=36 dy=0 dh=72 dv=0
EndChar

StartChar: quotesingle
Encoding: 39 39 11
Width: 316
Flags: W
LayerCount: 2
Fore
SplineSet
283 1374 m 1,0,-1
 250 961 l 1,1,-1
 43 961 l 1,2,-1
 43 1536 l 1,3,-1
 283 1536 l 1,4,-1
 283 1374 l 1,0,-1
EndSplineSet
EndChar

StartChar: parenleft
Encoding: 40 40 12
Width: 723
Flags: W
LayerCount: 2
Fore
SplineSet
120 592 m 2,0,1
 120 836 120 836 185 1046 c 128,-1,2
 250 1256 250 1256 364.5 1402 c 128,-1,3
 479 1548 479 1548 619 1606 c 1,4,-1
 683 1440 l 1,5,6
 543 1337 543 1337 466.5 1118.5 c 128,-1,7
 390 900 390 900 389 606 c 2,8,-1
 389 562 l 2,9,10
 389 261 389 261 465.5 40 c 128,-1,11
 542 -181 542 -181 683 -284 c 1,12,-1
 619 -450 l 1,13,14
 481 -394 481 -394 364.5 -245.5 c 128,-1,15
 248 -97 248 -97 185 109 c 128,-1,16
 122 315 122 315 120 547 c 2,17,-1
 120 592 l 2,0,1
EndSplineSet
EndChar

StartChar: parenright
Encoding: 41 41 13
Width: 721
Flags: W
LayerCount: 2
Fore
SplineSet
626 564 m 2,0,1
 626 329 626 329 557 118 c 128,-1,2
 488 -93 488 -93 366.5 -244.5 c 128,-1,3
 245 -396 245 -396 104 -450 c 1,4,-1
 40 -284 l 1,5,6
 179 -180 179 -180 255 36 c 128,-1,7
 331 252 331 252 334 533 c 2,8,-1
 334 594 l 2,9,10
 334 895 334 895 257.5 1116 c 128,-1,11
 181 1337 181 1337 40 1440 c 1,12,-1
 104 1606 l 1,13,14
 244 1551 244 1551 364.5 1402.5 c 128,-1,15
 485 1254 485 1254 554.5 1045.5 c 128,-1,16
 624 837 624 837 626 608 c 2,17,-1
 626 564 l 2,0,1
EndSplineSet
EndChar

StartChar: asterisk
Encoding: 42 42 14
Width: 952
Flags: W
LayerCount: 2
Fore
SplineSet
352 956 m 1,0,-1
 26 1046 l 1,1,-1
 91 1235 l 1,2,-1
 410 1104 l 1,3,-1
 385 1456 l 1,4,-1
 599 1456 l 1,5,-1
 573 1097 l 1,6,-1
 883 1225 l 1,7,-1
 948 1034 l 1,8,-1
 618 944 l 1,9,-1
 837 679 l 1,10,-1
 664 561 l 1,11,-1
 481 855 l 1,12,-1
 297 571 l 1,13,-1
 124 684 l 1,14,-1
 352 956 l 1,0,-1
EndSplineSet
EndChar

StartChar: plus
Encoding: 43 43 15
Width: 1094
Flags: W
LayerCount: 2
Fore
SplineSet
702 826 m 1,0,-1
 1043 826 l 1,1,-1
 1043 537 l 1,2,-1
 702 537 l 1,3,-1
 702 146 l 1,4,-1
 387 146 l 1,5,-1
 387 537 l 1,6,-1
 45 537 l 1,7,-1
 45 826 l 1,8,-1
 387 826 l 1,9,-1
 387 1206 l 1,10,-1
 702 1206 l 1,11,-1
 702 826 l 1,0,-1
EndSplineSet
EndChar

StartChar: comma
Encoding: 44 44 16
Width: 552
Flags: W
LayerCount: 2
Fore
SplineSet
213 -392 m 1,0,-1
 43 -312 l 1,1,-1
 77 -244 l 1,2,3
 147 -114 147 -114 150 4 c 2,4,-1
 150 254 l 1,5,-1
 420 254 l 1,6,-1
 419 37 l 2,7,8
 418 -78 418 -78 360 -197 c 128,-1,9
 302 -316 302 -316 213 -392 c 1,0,-1
EndSplineSet
EndChar

StartChar: hyphen
Encoding: 45 45 17
Width: 921
Flags: W
LayerCount: 2
Fore
SplineSet
753 497 m 1,0,-1
 152 497 l 1,1,-1
 152 758 l 1,2,-1
 753 758 l 1,3,-1
 753 497 l 1,0,-1
EndSplineSet
EndChar

StartChar: period
Encoding: 46 46 18
Width: 619
Flags: W
LayerCount: 2
Fore
SplineSet
303 327 m 0,0,1
 383 327 383 327 436 279.5 c 128,-1,2
 489 232 489 232 489 158 c 128,-1,3
 489 84 489 84 436 36.5 c 128,-1,4
 383 -11 383 -11 303 -11 c 0,5,6
 222 -11 222 -11 169.5 37 c 128,-1,7
 117 85 117 85 117 158 c 128,-1,8
 117 231 117 231 169.5 279 c 128,-1,9
 222 327 222 327 303 327 c 0,0,1
EndSplineSet
EndChar

StartChar: slash
Encoding: 47 47 19
Width: 719
Flags: W
LayerCount: 2
Fore
SplineSet
210 -125 m 1,0,-1
 -29 -125 l 1,1,-1
 468 1456 l 1,2,-1
 708 1456 l 1,3,-1
 210 -125 l 1,0,-1
EndSplineSet
Substitution2: "'frac' Diagonal Fractions lookup 22 subtable" fraction
EndChar

StartChar: zero
Encoding: 48 48 20
Width: 1186
Flags: W
LayerCount: 2
Fore
SplineSet
1100 595 m 2,0,1
 1100 300 1100 300 967.5 140 c 128,-1,2
 835 -20 835 -20 594 -20 c 0,3,4
 351 -20 351 -20 218 141 c 128,-1,5
 85 302 85 302 85 595 c 2,6,-1
 85 861 l 2,7,8
 85 1156 85 1156 217.5 1316 c 128,-1,9
 350 1476 350 1476 592 1476 c 128,-1,10
 834 1476 834 1476 967 1315 c 128,-1,11
 1100 1154 1100 1154 1100 860 c 2,12,-1
 1100 595 l 2,0,1
763 904 m 2,13,14
 763 1061 763 1061 722 1138.5 c 128,-1,15
 681 1216 681 1216 592 1216 c 0,16,17
 505 1216 505 1216 465.5 1144 c 128,-1,18
 426 1072 426 1072 423 926 c 2,19,-1
 423 554 l 2,20,21
 423 391 423 391 464 315.5 c 128,-1,22
 505 240 505 240 594 240 c 0,23,24
 680 240 680 240 721 313.5 c 128,-1,25
 762 387 762 387 763 544 c 2,26,-1
 763 904 l 2,13,14
EndSplineSet
Substitution2: "'numr' Numerators lookup 25 subtable" zero.numr
Substitution2: "'dnom' Denominators lookup 24 subtable" zero.dnom
Substitution2: "'pnum' Proportional Numbers lookup 19 subtable" zero.pnum
Substitution2: "'onum' Oldstyle Figures lookup 18 subtable" zero.oldstyle
Substitution2: "'c2sc' +BBoEMAQ/BDgEQgQ1BDsETAAA +BDgENwAA +BD8EQAQ+BD8EOARBBD0ESwRF lookup 0 subtable" zero.c2sc
Position2: "'cpsp' +BBgEPQRCBDUEQAQyBDAEOwAA +BD8EQAQ+BD8EOARBBD0ESwRF lookup 0 subtable" dx=36 dy=0 dh=72 dv=0
EndChar

StartChar: one
Encoding: 49 49 21
Width: 1186
Flags: W
LayerCount: 2
Fore
SplineSet
836 0 m 1,0,-1
 498 0 l 1,1,-1
 498 1076 l 1,2,-1
 166 979 l 1,3,-1
 166 1235 l 1,4,-1
 805 1456 l 1,5,-1
 836 1456 l 1,6,-1
 836 0 l 1,0,-1
EndSplineSet
Substitution2: "'numr' Numerators lookup 25 subtable" uni00B9
Substitution2: "'dnom' Denominators lookup 24 subtable" one.dnom
Substitution2: "'pnum' Proportional Numbers lookup 19 subtable" one.pnum
Substitution2: "'onum' Oldstyle Figures lookup 18 subtable" one.oldstyle
Substitution2: "'c2sc' +BBoEMAQ/BDgEQgQ1BDsETAAA +BDgENwAA +BD8EQAQ+BD8EOARBBD0ESwRF lookup 0 subtable" one.c2sc
Position2: "'cpsp' +BBgEPQRCBDUEQAQyBDAEOwAA +BD8EQAQ+BD8EOARBBD0ESwRF lookup 0 subtable" dx=36 dy=0 dh=72 dv=0
EndChar

StartChar: two
Encoding: 50 50 22
Width: 1186
Flags: W
LayerCount: 2
Fore
SplineSet
1105 0 m 1,0,-1
 89 0 l 1,1,-1
 89 220 l 1,2,-1
 557 712 l 1,3,4
 730 909 730 909 730 1025 c 0,5,6
 730 1119 730 1119 689 1168 c 128,-1,7
 648 1217 648 1217 570 1217 c 0,8,9
 493 1217 493 1217 445 1151.5 c 128,-1,10
 397 1086 397 1086 397 988 c 1,11,-1
 59 988 l 1,12,13
 59 1122 59 1122 126 1235.5 c 128,-1,14
 193 1349 193 1349 312 1413 c 128,-1,15
 431 1477 431 1477 578 1477 c 0,16,17
 814 1477 814 1477 941.5 1368 c 128,-1,18
 1069 1259 1069 1259 1069 1055 c 0,19,20
 1069 969 1069 969 1037 887.5 c 128,-1,21
 1005 806 1005 806 937.5 716.5 c 128,-1,22
 870 627 870 627 720 477 c 1,23,-1
 532 260 l 1,24,-1
 1105 260 l 1,25,-1
 1105 0 l 1,0,-1
EndSplineSet
Substitution2: "'numr' Numerators lookup 25 subtable" uni00B2
Substitution2: "'dnom' Denominators lookup 24 subtable" two.dnom
Substitution2: "'pnum' Proportional Numbers lookup 19 subtable" two.pnum
Substitution2: "'onum' Oldstyle Figures lookup 18 subtable" two.oldstyle
Substitution2: "'c2sc' +BBoEMAQ/BDgEQgQ1BDsETAAA +BDgENwAA +BD8EQAQ+BD8EOARBBD0ESwRF lookup 0 subtable" two.c2sc
Position2: "'cpsp' +BBgEPQRCBDUEQAQyBDAEOwAA +BD8EQAQ+BD8EOARBBD0ESwRF lookup 0 subtable" dx=36 dy=0 dh=72 dv=0
EndChar

StartChar: three
Encoding: 51 51 23
Width: 1186
Flags: W
LayerCount: 2
Fore
SplineSet
397 869 m 1,0,-1
 556 869 l 2,1,2
 745 869 745 869 745 1054 c 0,3,4
 745 1126 745 1126 700 1171.5 c 128,-1,5
 655 1217 655 1217 573 1217 c 0,6,7
 506 1217 506 1217 456.5 1178 c 128,-1,8
 407 1139 407 1139 407 1081 c 1,9,-1
 70 1081 l 1,10,11
 70 1196 70 1196 134 1286 c 128,-1,12
 198 1376 198 1376 311.5 1426.5 c 128,-1,13
 425 1477 425 1477 561 1477 c 0,14,15
 804 1477 804 1477 943 1366 c 128,-1,16
 1082 1255 1082 1255 1082 1061 c 0,17,18
 1082 967 1082 967 1024.5 883.5 c 128,-1,19
 967 800 967 800 857 748 c 1,20,21
 973 706 973 706 1039 620.5 c 128,-1,22
 1105 535 1105 535 1105 409 c 0,23,24
 1105 214 1105 214 955 97 c 128,-1,25
 805 -20 805 -20 561 -20 c 0,26,27
 418 -20 418 -20 295.5 34.5 c 128,-1,28
 173 89 173 89 110 185.5 c 128,-1,29
 47 282 47 282 47 405 c 1,30,-1
 386 405 l 1,31,32
 386 338 386 338 440 289 c 128,-1,33
 494 240 494 240 573 240 c 0,34,35
 662 240 662 240 715 289.5 c 128,-1,36
 768 339 768 339 768 416 c 0,37,38
 768 526 768 526 713 572 c 128,-1,39
 658 618 658 618 561 618 c 2,40,-1
 397 618 l 1,41,-1
 397 869 l 1,0,-1
EndSplineSet
Substitution2: "'numr' Numerators lookup 25 subtable" uni00B3
Substitution2: "'dnom' Denominators lookup 24 subtable" three.dnom
Substitution2: "'pnum' Proportional Numbers lookup 19 subtable" three.pnum
Substitution2: "'onum' Oldstyle Figures lookup 18 subtable" three.oldstyle
Substitution2: "'c2sc' +BBoEMAQ/BDgEQgQ1BDsETAAA +BDgENwAA +BD8EQAQ+BD8EOARBBD0ESwRF lookup 0 subtable" three.c2sc
Position2: "'cpsp' +BBgEPQRCBDUEQAQyBDAEOwAA +BD8EQAQ+BD8EOARBBD0ESwRF lookup 0 subtable" dx=36 dy=0 dh=72 dv=0
EndChar

StartChar: four
Encoding: 52 52 24
Width: 1186
Flags: W
LayerCount: 2
Fore
SplineSet
979 569 m 1,0,-1
 1127 569 l 1,1,-1
 1127 309 l 1,2,-1
 979 309 l 1,3,-1
 979 0 l 1,4,-1
 642 0 l 1,5,-1
 642 309 l 1,6,-1
 79 309 l 1,7,-1
 59 515 l 1,8,-1
 642 1453 l 1,9,-1
 642 1456 l 1,10,-1
 979 1456 l 1,11,-1
 979 569 l 1,0,-1
380 569 m 1,12,-1
 642 569 l 1,13,-1
 642 1017 l 1,14,-1
 621 983 l 1,15,-1
 380 569 l 1,12,-1
EndSplineSet
Substitution2: "'numr' Numerators lookup 25 subtable" four.numr
Substitution2: "'dnom' Denominators lookup 24 subtable" four.dnom
Substitution2: "'pnum' Proportional Numbers lookup 19 subtable" four.pnum
Substitution2: "'onum' Oldstyle Figures lookup 18 subtable" four.oldstyle
Substitution2: "'c2sc' +BBoEMAQ/BDgEQgQ1BDsETAAA +BDgENwAA +BD8EQAQ+BD8EOARBBD0ESwRF lookup 0 subtable" four.c2sc
Position2: "'cpsp' +BBgEPQRCBDUEQAQyBDAEOwAA +BD8EQAQ+BD8EOARBBD0ESwRF lookup 0 subtable" dx=36 dy=0 dh=72 dv=0
EndChar

StartChar: five
Encoding: 53 53 25
Width: 1186
Flags: W
LayerCount: 2
Fore
SplineSet
109 712 m 1,0,-1
 198 1456 l 1,1,-1
 1049 1456 l 1,2,-1
 1049 1194 l 1,3,-1
 472 1194 l 1,4,-1
 439 905 l 1,5,6
 475 926 475 926 533.5 942 c 128,-1,7
 592 958 592 958 648 958 c 0,8,9
 865 958 865 958 981.5 829.5 c 128,-1,10
 1098 701 1098 701 1098 469 c 0,11,12
 1098 329 1098 329 1035.5 215.5 c 128,-1,13
 973 102 973 102 860 41 c 128,-1,14
 747 -20 747 -20 593 -20 c 0,15,16
 456 -20 456 -20 336 36.5 c 128,-1,17
 216 93 216 93 148 191.5 c 128,-1,18
 80 290 80 290 81 414 c 1,19,-1
 419 414 l 1,20,21
 424 334 424 334 470 287 c 128,-1,22
 516 240 516 240 591 240 c 0,23,24
 761 240 761 240 761 492 c 0,25,26
 761 725 761 725 553 725 c 0,27,28
 435 725 435 725 377 649 c 1,29,-1
 109 712 l 1,0,-1
EndSplineSet
Substitution2: "'numr' Numerators lookup 25 subtable" five.numr
Substitution2: "'dnom' Denominators lookup 24 subtable" five.dnom
Substitution2: "'pnum' Proportional Numbers lookup 19 subtable" five.pnum
Substitution2: "'onum' Oldstyle Figures lookup 18 subtable" five.oldstyle
Substitution2: "'c2sc' +BBoEMAQ/BDgEQgQ1BDsETAAA +BDgENwAA +BD8EQAQ+BD8EOARBBD0ESwRF lookup 0 subtable" five.c2sc
Position2: "'cpsp' +BBgEPQRCBDUEQAQyBDAEOwAA +BD8EQAQ+BD8EOARBBD0ESwRF lookup 0 subtable" dx=36 dy=0 dh=72 dv=0
EndChar

StartChar: six
Encoding: 54 54 26
Width: 1186
Flags: W
LayerCount: 2
Fore
SplineSet
903 1477 m 1,0,-1
 903 1212 l 1,1,-1
 888 1212 l 2,2,3
 699 1212 699 1212 577.5 1121.5 c 128,-1,4
 456 1031 456 1031 428 870 c 1,5,6
 542 982 542 982 716 982 c 0,7,8
 905 982 905 982 1017 844 c 128,-1,9
 1129 706 1129 706 1129 482 c 0,10,11
 1129 343 1129 343 1063.5 227 c 128,-1,12
 998 111 998 111 880.5 45.5 c 128,-1,13
 763 -20 763 -20 620 -20 c 0,14,15
 465 -20 465 -20 343 50.5 c 128,-1,16
 221 121 221 121 153 252 c 128,-1,17
 85 383 85 383 83 554 c 2,18,-1
 83 689 l 2,19,20
 83 914 83 914 179.5 1093.5 c 128,-1,21
 276 1273 276 1273 455 1375 c 128,-1,22
 634 1477 634 1477 852 1477 c 2,23,-1
 903 1477 l 1,0,-1
599 724 m 0,24,25
 532 724 532 724 487 693 c 128,-1,26
 442 662 442 662 420 617 c 1,27,-1
 420 516 l 2,28,29
 420 240 420 240 611 240 c 0,30,31
 688 240 688 240 739.5 309 c 128,-1,32
 791 378 791 378 791 482 c 0,33,34
 791 589 791 589 738.5 656.5 c 128,-1,35
 686 724 686 724 599 724 c 0,24,25
EndSplineSet
Substitution2: "'numr' Numerators lookup 25 subtable" six.numr
Substitution2: "'dnom' Denominators lookup 24 subtable" six.dnom
Substitution2: "'lnum' Lining Figures lookup 21 subtable" six.pnum
Substitution2: "'tnum' Tabular Numbers lookup 20 subtable" six.oldstyle
Substitution2: "'pnum' Proportional Numbers lookup 19 subtable" six.pnum
Substitution2: "'onum' Oldstyle Figures lookup 18 subtable" six.oldstyle
Substitution2: "'c2sc' +BBoEMAQ/BDgEQgQ1BDsETAAA +BDgENwAA +BD8EQAQ+BD8EOARBBD0ESwRF lookup 0 subtable" six.c2sc
Position2: "'cpsp' +BBgEPQRCBDUEQAQyBDAEOwAA +BD8EQAQ+BD8EOARBBD0ESwRF lookup 0 subtable" dx=36 dy=0 dh=72 dv=0
EndChar

StartChar: seven
Encoding: 55 55 27
Width: 1186
Flags: W
LayerCount: 2
Fore
SplineSet
1101 1276 m 1,0,-1
 557 0 l 1,1,-1
 201 0 l 1,2,-1
 746 1196 l 1,3,-1
 52 1196 l 1,4,-1
 52 1456 l 1,5,-1
 1101 1456 l 1,6,-1
 1101 1276 l 1,0,-1
EndSplineSet
Substitution2: "'numr' Numerators lookup 25 subtable" seven.numr
Substitution2: "'dnom' Denominators lookup 24 subtable" seven.dnom
Substitution2: "'pnum' Proportional Numbers lookup 19 subtable" seven.pnum
Substitution2: "'onum' Oldstyle Figures lookup 18 subtable" seven.oldstyle
Substitution2: "'c2sc' +BBoEMAQ/BDgEQgQ1BDsETAAA +BDgENwAA +BD8EQAQ+BD8EOARBBD0ESwRF lookup 0 subtable" seven.c2sc
Position2: "'cpsp' +BBgEPQRCBDUEQAQyBDAEOwAA +BD8EQAQ+BD8EOARBBD0ESwRF lookup 0 subtable" dx=36 dy=0 dh=72 dv=0
EndChar

StartChar: eight
Encoding: 56 56 28
Width: 1186
Flags: W
LayerCount: 2
Fore
SplineSet
1071 1067 m 0,0,1
 1071 961 1071 961 1018.5 880 c 128,-1,2
 966 799 966 799 874 750 c 1,3,4
 978 699 978 699 1039 610.5 c 128,-1,5
 1100 522 1100 522 1100 401 c 0,6,7
 1100 206 1100 206 965.5 93 c 128,-1,8
 831 -20 831 -20 595 -20 c 0,9,10
 358 -20 358 -20 221 93.5 c 128,-1,11
 84 207 84 207 84 401 c 0,12,13
 84 518 84 518 144 608 c 128,-1,14
 204 698 204 698 314 750 c 1,15,16
 221 799 221 799 168 880 c 128,-1,17
 115 961 115 961 115 1067 c 0,18,19
 115 1257 115 1257 244 1367 c 128,-1,20
 373 1477 373 1477 592 1477 c 0,21,22
 813 1477 813 1477 942 1367 c 128,-1,23
 1071 1257 1071 1257 1071 1067 c 0,0,1
762 428 m 0,24,25
 762 518 762 518 715.5 566.5 c 128,-1,26
 669 615 669 615 593 615 c 128,-1,27
 517 615 517 615 470 566.5 c 128,-1,28
 423 518 423 518 423 428 c 0,29,30
 423 341 423 341 470.5 290.5 c 128,-1,31
 518 240 518 240 595 240 c 0,32,33
 670 240 670 240 716 290 c 128,-1,34
 762 340 762 340 762 428 c 0,24,25
592 1217 m 0,35,36
 524 1217 524 1217 488.5 1172.5 c 128,-1,37
 453 1128 453 1128 453 1049 c 0,38,39
 453 971 453 971 489 923 c 128,-1,40
 525 875 525 875 595 875 c 0,41,42
 664 875 664 875 698.5 923 c 128,-1,43
 733 971 733 971 733 1049 c 128,-1,44
 733 1127 733 1127 697.5 1172 c 128,-1,45
 662 1217 662 1217 592 1217 c 0,35,36
EndSplineSet
Substitution2: "'numr' Numerators lookup 25 subtable" eight.numr
Substitution2: "'dnom' Denominators lookup 24 subtable" eight.dnom
Substitution2: "'lnum' Lining Figures lookup 21 subtable" eight.pnum
Substitution2: "'tnum' Tabular Numbers lookup 20 subtable" eight.oldstyle
Substitution2: "'pnum' Proportional Numbers lookup 19 subtable" eight.pnum
Substitution2: "'onum' Oldstyle Figures lookup 18 subtable" eight.oldstyle
Substitution2: "'c2sc' +BBoEMAQ/BDgEQgQ1BDsETAAA +BDgENwAA +BD8EQAQ+BD8EOARBBD0ESwRF lookup 0 subtable" eight.c2sc
Position2: "'cpsp' +BBgEPQRCBDUEQAQyBDAEOwAA +BD8EQAQ+BD8EOARBBD0ESwRF lookup 0 subtable" dx=36 dy=0 dh=72 dv=0
EndChar

StartChar: nine
Encoding: 57 57 29
Width: 1186
Flags: W
LayerCount: 2
Fore
SplineSet
753 563 m 1,0,1
 644 465 644 465 509 465 c 0,2,3
 311 465 311 465 195 599 c 128,-1,4
 79 733 79 733 79 957 c 0,5,6
 79 1097 79 1097 144 1217 c 128,-1,7
 209 1337 209 1337 326.5 1407 c 128,-1,8
 444 1477 444 1477 586 1477 c 0,9,10
 730 1477 730 1477 846.5 1404.5 c 128,-1,11
 963 1332 963 1332 1028 1199.5 c 128,-1,12
 1093 1067 1093 1067 1095 894 c 2,13,-1
 1095 765 l 2,14,15
 1095 524 1095 524 1000.5 347 c 128,-1,16
 906 170 906 170 731 75 c 128,-1,17
 556 -20 556 -20 323 -20 c 2,18,-1
 302 -20 l 1,19,-1
 302 250 l 1,20,-1
 366 251 l 1,21,22
 714 268 714 268 753 563 c 1,0,1
600 708 m 0,23,24
 710 708 710 708 758 803 c 1,25,-1
 758 943 l 2,26,27
 758 1083 758 1083 711 1150 c 128,-1,28
 664 1217 664 1217 584 1217 c 0,29,30
 513 1217 513 1217 465 1141 c 128,-1,31
 417 1065 417 1065 417 957 c 0,32,33
 417 843 417 843 466 775.5 c 128,-1,34
 515 708 515 708 600 708 c 0,23,24
EndSplineSet
Substitution2: "'numr' Numerators lookup 25 subtable" nine.numr
Substitution2: "'dnom' Denominators lookup 24 subtable" nine.dnom
Substitution2: "'pnum' Proportional Numbers lookup 19 subtable" nine.pnum
Substitution2: "'onum' Oldstyle Figures lookup 18 subtable" nine.oldstyle
Substitution2: "'c2sc' +BBoEMAQ/BDgEQgQ1BDsETAAA +BDgENwAA +BD8EQAQ+BD8EOARBBD0ESwRF lookup 0 subtable" nine.c2sc
Position2: "'cpsp' +BBgEPQRCBDUEQAQyBDAEOwAA +BD8EQAQ+BD8EOARBBD0ESwRF lookup 0 subtable" dx=36 dy=0 dh=72 dv=0
EndChar

StartChar: less
Encoding: 60 60 32
Width: 1044
Flags: W
LayerCount: 2
Fore
SplineSet
383 609 m 1,0,-1
 930 425 l 1,1,-1
 930 118 l 1,2,-1
 46 478 l 1,3,-1
 46 744 l 1,4,-1
 930 1104 l 1,5,-1
 930 798 l 1,6,-1
 383 609 l 1,0,-1
EndSplineSet
EndChar

StartChar: equal
Encoding: 61 61 33
Width: 1199
Flags: W
LayerCount: 2
Fore
SplineSet
1054 722 m 1,0,-1
 128 722 l 1,1,-1
 128 982 l 1,2,-1
 1054 982 l 1,3,-1
 1054 722 l 1,0,-1
1054 283 m 1,4,-1
 128 283 l 1,5,-1
 128 543 l 1,6,-1
 1054 543 l 1,7,-1
 1054 283 l 1,4,-1
EndSplineSet
EndChar

StartChar: greater
Encoding: 62 62 34
Width: 1050
Flags: W
LayerCount: 2
Fore
SplineSet
655 612 m 1,0,-1
 111 797 l 1,1,-1
 111 1103 l 1,2,-1
 990 743 l 1,3,-1
 990 477 l 1,4,-1
 111 117 l 1,5,-1
 111 423 l 1,6,-1
 655 612 l 1,0,-1
EndSplineSet
EndChar

StartChar: question
Encoding: 63 63 35
Width: 1043
Flags: W
LayerCount: 2
Fore
SplineSet
344 461 m 1,0,1
 344 607 344 607 377 691.5 c 128,-1,2
 410 776 410 776 484 838 c 128,-1,3
 558 900 558 900 596.5 951.5 c 128,-1,4
 635 1003 635 1003 635 1065 c 0,5,6
 635 1216 635 1216 505 1216 c 0,7,8
 445 1216 445 1216 408 1172 c 128,-1,9
 371 1128 371 1128 369 1053 c 1,10,-1
 31 1053 l 1,11,12
 33 1253 33 1253 157 1364.5 c 128,-1,13
 281 1476 281 1476 505 1476 c 0,14,15
 728 1476 728 1476 850.5 1373 c 128,-1,16
 973 1270 973 1270 973 1080 c 0,17,18
 973 997 973 997 940 929 c 128,-1,19
 907 861 907 861 834 790 c 2,20,-1
 719 683 l 2,21,22
 670 636 670 636 651 586.5 c 128,-1,23
 632 537 632 537 630 461 c 1,24,-1
 344 461 l 1,0,1
303 157 m 256,25,26
 303 231 303 231 356.5 278.5 c 128,-1,27
 410 326 410 326 490 326 c 128,-1,28
 570 326 570 326 623.5 278.5 c 128,-1,29
 677 231 677 231 677 157 c 128,-1,30
 677 83 677 83 623.5 35.5 c 128,-1,31
 570 -12 570 -12 490 -12 c 128,-1,32
 410 -12 410 -12 356.5 35.5 c 128,-1,33
 303 83 303 83 303 157 c 256,25,26
EndSplineSet
EndChar

StartChar: at
Encoding: 64 64 36
Width: 1834
Flags: W
LayerCount: 2
Fore
SplineSet
1756 550 m 0,0,1
 1746 289 1746 289 1626 134 c 128,-1,2
 1506 -21 1506 -21 1306 -21 c 0,3,4
 1224 -21 1224 -21 1161 14.5 c 128,-1,5
 1098 50 1098 50 1063 115 c 1,6,7
 965 -17 965 -17 800 -17 c 0,8,9
 704 -17 704 -17 632 39.5 c 128,-1,10
 560 96 560 96 526.5 200 c 128,-1,11
 493 304 493 304 506 436 c 0,12,13
 536 686 536 686 667 838 c 128,-1,14
 798 990 798 990 988 990 c 0,15,16
 1135 990 1135 990 1241 922 c 2,17,-1
 1304 880 l 1,18,-1
 1253 293 l 1,19,20
 1236 154 1236 154 1349 154 c 0,21,22
 1434 154 1434 154 1491.5 262.5 c 128,-1,23
 1549 371 1549 371 1555 540 c 0,24,25
 1572 874 1572 874 1416.5 1056 c 128,-1,26
 1261 1238 1261 1238 961 1238 c 0,27,28
 770 1238 770 1238 621.5 1140.5 c 128,-1,29
 473 1043 473 1043 386.5 864.5 c 128,-1,30
 300 686 300 686 289 458 c 0,31,32
 273 108 273 108 429 -77.5 c 128,-1,33
 585 -263 585 -263 897 -263 c 0,34,35
 981 -263 981 -263 1075 -243.5 c 128,-1,36
 1169 -224 1169 -224 1228 -198 c 1,37,-1
 1265 -364 l 1,38,39
 1204 -404 1204 -404 1100.5 -428.5 c 128,-1,40
 997 -453 997 -453 893 -453 c 0,41,42
 620 -453 620 -453 431.5 -348.5 c 128,-1,43
 243 -244 243 -244 151 -39 c 128,-1,44
 59 166 59 166 69 458 c 0,45,46
 81 734 81 734 196.5 952.5 c 128,-1,47
 312 1171 312 1171 512.5 1290.5 c 128,-1,48
 713 1410 713 1410 965 1410 c 128,-1,49
 1217 1410 1217 1410 1400 1305.5 c 128,-1,50
 1583 1201 1583 1201 1675 1005 c 128,-1,51
 1767 809 1767 809 1756 550 c 0,0,1
756 436 m 0,52,53
 745 306 745 306 776.5 239.5 c 128,-1,54
 808 173 808 173 878 173 c 0,55,56
 925 173 925 173 964.5 215 c 128,-1,57
 1004 257 1004 257 1030 335 c 1,58,-1
 1070 791 l 1,59,60
 1040 799 1040 799 1008 799 c 0,61,62
 896 799 896 799 835.5 711.5 c 128,-1,63
 775 624 775 624 756 436 c 0,52,53
EndSplineSet
EndChar

StartChar: A
Encoding: 65 65 37
Width: 1395
GlyphClass: 2
Flags: W
LayerCount: 2
Fore
SplineSet
937 272 m 1,0,-1
 456 272 l 1,1,-1
 372 0 l 1,2,-1
 -3 0 l 1,3,-1
 531 1456 l 1,4,-1
 861 1456 l 1,5,-1
 1399 0 l 1,6,-1
 1022 0 l 1,7,-1
 937 272 l 1,0,-1
540 543 m 1,8,-1
 853 543 l 1,9,-1
 696 1048 l 1,10,-1
 540 543 l 1,8,-1
EndSplineSet
Substitution2: "'c2sc' +BBoEMAQ/BDgEQgQ1BDsETAAA +BDgENwAA +BD8EQAQ+BD8EOARBBD0ESwRF lookup 0 subtable" A.c2sc
Position2: "'cpsp' +BBgEPQRCBDUEQAQyBDAEOwAA +BD8EQAQ+BD8EOARBBD0ESwRF lookup 0 subtable" dx=36 dy=0 dh=72 dv=0
EndChar

StartChar: B
Encoding: 66 66 38
Width: 1321
GlyphClass: 2
Flags: W
LayerCount: 2
Fore
SplineSet
110 0 m 1,0,-1
 110 1456 l 1,1,-1
 633 1456 l 2,2,3
 914 1456 914 1456 1060.5 1353 c 128,-1,4
 1207 1250 1207 1250 1207 1054 c 0,5,6
 1207 941 1207 941 1155 861 c 128,-1,7
 1103 781 1103 781 1002 743 c 1,8,9
 1116 713 1116 713 1177 631 c 128,-1,10
 1238 549 1238 549 1238 431 c 0,11,12
 1238 217 1238 217 1102.5 109.5 c 128,-1,13
 967 2 967 2 701 0 c 2,14,-1
 110 0 l 1,0,-1
461 619 m 1,15,-1
 461 270 l 1,16,-1
 691 270 l 2,17,18
 786 270 786 270 837 313.5 c 128,-1,19
 888 357 888 357 888 436 c 0,20,21
 888 618 888 618 707 619 c 2,22,-1
 461 619 l 1,15,-1
461 849 m 1,23,-1
 644 849 l 2,24,25
 759 850 759 850 808 891 c 128,-1,26
 857 932 857 932 857 1012 c 0,27,28
 857 1104 857 1104 804 1144.5 c 128,-1,29
 751 1185 751 1185 633 1185 c 2,30,-1
 461 1185 l 1,31,-1
 461 849 l 1,23,-1
EndSplineSet
Substitution2: "'c2sc' +BBoEMAQ/BDgEQgQ1BDsETAAA +BDgENwAA +BD8EQAQ+BD8EOARBBD0ESwRF lookup 0 subtable" B.c2sc
Position2: "'cpsp' +BBgEPQRCBDUEQAQyBDAEOwAA +BD8EQAQ+BD8EOARBBD0ESwRF lookup 0 subtable" dx=36 dy=0 dh=72 dv=0
EndChar

StartChar: C
Encoding: 67 67 39
Width: 1344
GlyphClass: 2
Flags: W
LayerCount: 2
Fore
SplineSet
1288 493 m 1,0,1
 1281 341 1281 341 1206 224.5 c 128,-1,2
 1131 108 1131 108 995.5 44 c 128,-1,3
 860 -20 860 -20 686 -20 c 0,4,5
 399 -20 399 -20 234 167 c 128,-1,6
 69 354 69 354 69 695 c 2,7,-1
 69 767 l 2,8,9
 69 981 69 981 143.5 1141.5 c 128,-1,10
 218 1302 218 1302 358 1389.5 c 128,-1,11
 498 1477 498 1477 682 1477 c 0,12,13
 947 1477 947 1477 1108 1337.5 c 128,-1,14
 1269 1198 1269 1198 1291 953 c 1,15,-1
 941 953 l 1,16,17
 937 1086 937 1086 874 1144 c 128,-1,18
 811 1202 811 1202 682 1202 c 0,19,20
 551 1202 551 1202 490 1104 c 128,-1,21
 429 1006 429 1006 426 791 c 2,22,-1
 426 688 l 2,23,24
 426 455 426 455 484.5 355 c 128,-1,25
 543 255 543 255 686 255 c 0,26,27
 807 255 807 255 871 312 c 128,-1,28
 935 369 935 369 939 493 c 1,29,-1
 1288 493 l 1,0,1
EndSplineSet
Substitution2: "'ss06' Style Set 6 lookup 16 subtable" C.ss06
Substitution2: "'c2sc' +BBoEMAQ/BDgEQgQ1BDsETAAA +BDgENwAA +BD8EQAQ+BD8EOARBBD0ESwRF lookup 0 subtable" C.c2sc
Position2: "'cpsp' +BBgEPQRCBDUEQAQyBDAEOwAA +BD8EQAQ+BD8EOARBBD0ESwRF lookup 0 subtable" dx=36 dy=0 dh=72 dv=0
EndChar

StartChar: D
Encoding: 68 68 40
Width: 1324
GlyphClass: 2
Flags: W
LayerCount: 2
Fore
SplineSet
110 0 m 1,0,-1
 110 1456 l 1,1,-1
 579 1456 l 2,2,3
 772 1456 772 1456 926 1368.5 c 128,-1,4
 1080 1281 1080 1281 1166.5 1121.5 c 128,-1,5
 1253 962 1253 962 1254 764 c 2,6,-1
 1254 697 l 2,7,8
 1254 497 1254 497 1169.5 338.5 c 128,-1,9
 1085 180 1085 180 931.5 90.5 c 128,-1,10
 778 1 778 1 589 0 c 2,11,-1
 110 0 l 1,0,-1
461 1185 m 1,12,-1
 461 270 l 1,13,-1
 583 270 l 2,14,15
 734 270 734 270 815 377.5 c 128,-1,16
 896 485 896 485 896 697 c 2,17,-1
 896 760 l 2,18,19
 896 971 896 971 815 1078 c 128,-1,20
 734 1185 734 1185 579 1185 c 2,21,-1
 461 1185 l 1,12,-1
EndSplineSet
Substitution2: "'ss06' Style Set 6 lookup 16 subtable" D.ss06
Substitution2: "'c2sc' +BBoEMAQ/BDgEQgQ1BDsETAAA +BDgENwAA +BD8EQAQ+BD8EOARBBD0ESwRF lookup 0 subtable" D.c2sc
Position2: "'cpsp' +BBgEPQRCBDUEQAQyBDAEOwAA +BD8EQAQ+BD8EOARBBD0ESwRF lookup 0 subtable" dx=36 dy=0 dh=72 dv=0
EndChar

StartChar: E
Encoding: 69 69 41
Width: 1146
GlyphClass: 2
Flags: W
LayerCount: 2
Fore
SplineSet
1013 617 m 1,0,-1
 461 617 l 1,1,-1
 461 270 l 1,2,-1
 1113 270 l 1,3,-1
 1113 0 l 1,4,-1
 110 0 l 1,5,-1
 110 1456 l 1,6,-1
 1115 1456 l 1,7,-1
 1115 1185 l 1,8,-1
 461 1185 l 1,9,-1
 461 878 l 1,10,-1
 1013 878 l 1,11,-1
 1013 617 l 1,0,-1
EndSplineSet
Substitution2: "'c2sc' +BBoEMAQ/BDgEQgQ1BDsETAAA +BDgENwAA +BD8EQAQ+BD8EOARBBD0ESwRF lookup 0 subtable" E.c2sc
Position2: "'cpsp' +BBgEPQRCBDUEQAQyBDAEOwAA +BD8EQAQ+BD8EOARBBD0ESwRF lookup 0 subtable" dx=36 dy=0 dh=72 dv=0
EndChar

StartChar: F
Encoding: 70 70 42
Width: 1120
GlyphClass: 2
Flags: W
LayerCount: 2
Fore
SplineSet
1027 580 m 1,0,-1
 461 580 l 1,1,-1
 461 0 l 1,2,-1
 110 0 l 1,3,-1
 110 1456 l 1,4,-1
 1084 1456 l 1,5,-1
 1084 1185 l 1,6,-1
 461 1185 l 1,7,-1
 461 850 l 1,8,-1
 1027 850 l 1,9,-1
 1027 580 l 1,0,-1
EndSplineSet
Substitution2: "'c2sc' +BBoEMAQ/BDgEQgQ1BDsETAAA +BDgENwAA +BD8EQAQ+BD8EOARBBD0ESwRF lookup 0 subtable" F.c2sc
Position2: "'cpsp' +BBgEPQRCBDUEQAQyBDAEOwAA +BD8EQAQ+BD8EOARBBD0ESwRF lookup 0 subtable" dx=36 dy=0 dh=72 dv=0
EndChar

StartChar: G
Encoding: 71 71 43
Width: 1396
GlyphClass: 2
Flags: W
LayerCount: 2
Fore
SplineSet
1302 180 m 1,0,1
 1221 90 1221 90 1065 35 c 128,-1,2
 909 -20 909 -20 723 -20 c 0,3,4
 437 -20 437 -20 266 155 c 128,-1,5
 95 330 95 330 83 642 c 1,6,-1
 82 768 l 2,7,8
 82 983 82 983 158 1143.5 c 128,-1,9
 234 1304 234 1304 375.5 1390.5 c 128,-1,10
 517 1477 517 1477 703 1477 c 0,11,12
 975 1477 975 1477 1125.5 1352.5 c 128,-1,13
 1276 1228 1276 1228 1301 981 c 1,14,-1
 963 981 l 1,15,16
 945 1103 945 1103 885 1155 c 128,-1,17
 825 1207 825 1207 715 1207 c 0,18,19
 583 1207 583 1207 511 1095 c 128,-1,20
 439 983 439 983 438 775 c 2,21,-1
 438 687 l 2,22,23
 438 469 438 469 512.5 359.5 c 128,-1,24
 587 250 587 250 747 250 c 0,25,26
 884 250 884 250 951 311 c 1,27,-1
 951 537 l 1,28,-1
 707 537 l 1,29,-1
 707 778 l 1,30,-1
 1302 778 l 1,31,-1
 1302 180 l 1,0,1
EndSplineSet
Substitution2: "'ss06' Style Set 6 lookup 16 subtable" G.ss06
Substitution2: "'c2sc' +BBoEMAQ/BDgEQgQ1BDsETAAA +BDgENwAA +BD8EQAQ+BD8EOARBBD0ESwRF lookup 0 subtable" G.c2sc
Position2: "'cpsp' +BBgEPQRCBDUEQAQyBDAEOwAA +BD8EQAQ+BD8EOARBBD0ESwRF lookup 0 subtable" dx=36 dy=0 dh=72 dv=0
EndChar

StartChar: H
Encoding: 72 72 44
Width: 1439
GlyphClass: 2
Flags: W
LayerCount: 2
Fore
SplineSet
1327 0 m 1,0,-1
 978 0 l 1,1,-1
 978 608 l 1,2,-1
 461 608 l 1,3,-1
 461 0 l 1,4,-1
 110 0 l 1,5,-1
 110 1456 l 1,6,-1
 461 1456 l 1,7,-1
 461 878 l 1,8,-1
 978 878 l 1,9,-1
 978 1456 l 1,10,-1
 1327 1456 l 1,11,-1
 1327 0 l 1,0,-1
EndSplineSet
Substitution2: "'c2sc' +BBoEMAQ/BDgEQgQ1BDsETAAA +BDgENwAA +BD8EQAQ+BD8EOARBBD0ESwRF lookup 0 subtable" H.c2sc
Position2: "'cpsp' +BBgEPQRCBDUEQAQyBDAEOwAA +BD8EQAQ+BD8EOARBBD0ESwRF lookup 0 subtable" dx=36 dy=0 dh=72 dv=0
EndChar

StartChar: I
Encoding: 73 73 45
Width: 618
GlyphClass: 2
Flags: W
LayerCount: 2
Fore
SplineSet
484 0 m 1,0,-1
 134 0 l 1,1,-1
 134 1456 l 1,2,-1
 484 1456 l 1,3,-1
 484 0 l 1,0,-1
EndSplineSet
Substitution2: "'c2sc' +BBoEMAQ/BDgEQgQ1BDsETAAA +BDgENwAA +BD8EQAQ+BD8EOARBBD0ESwRF lookup 0 subtable" I.c2sc
Position2: "'cpsp' +BBgEPQRCBDUEQAQyBDAEOwAA +BD8EQAQ+BD8EOARBBD0ESwRF lookup 0 subtable" dx=36 dy=0 dh=72 dv=0
EndChar

StartChar: J
Encoding: 74 74 46
Width: 1151
GlyphClass: 2
Flags: W
LayerCount: 2
Fore
SplineSet
690 1456 m 1,0,-1
 1040 1456 l 1,1,-1
 1040 457 l 2,2,3
 1040 318 1040 318 975.5 209 c 128,-1,4
 911 100 911 100 795.5 40 c 128,-1,5
 680 -20 680 -20 538 -20 c 0,6,7
 300 -20 300 -20 168 100 c 128,-1,8
 36 220 36 220 36 440 c 1,9,-1
 388 440 l 1,10,11
 388 340 388 340 422.5 295 c 128,-1,12
 457 250 457 250 538 250 c 0,13,14
 611 250 611 250 650.5 304.5 c 128,-1,15
 690 359 690 359 690 457 c 2,16,-1
 690 1456 l 1,0,-1
EndSplineSet
Substitution2: "'c2sc' +BBoEMAQ/BDgEQgQ1BDsETAAA +BDgENwAA +BD8EQAQ+BD8EOARBBD0ESwRF lookup 0 subtable" J.c2sc
Position2: "'cpsp' +BBgEPQRCBDUEQAQyBDAEOwAA +BD8EQAQ+BD8EOARBBD0ESwRF lookup 0 subtable" dx=36 dy=0 dh=72 dv=0
EndChar

StartChar: K
Encoding: 75 75 47
Width: 1310
GlyphClass: 2
Flags: W
LayerCount: 2
Fore
SplineSet
605 542 m 1,0,-1
 461 384 l 1,1,-1
 461 0 l 1,2,-1
 110 0 l 1,3,-1
 110 1456 l 1,4,-1
 461 1456 l 1,5,-1
 461 814 l 1,6,-1
 583 999 l 1,7,-1
 897 1456 l 1,8,-1
 1331 1456 l 1,9,-1
 839 812 l 1,10,-1
 1331 0 l 1,11,-1
 915 0 l 1,12,-1
 605 542 l 1,0,-1
EndSplineSet
Substitution2: "'ss05' Style Set 5 lookup 15 subtable" K.ss05
Substitution2: "'ss04' Style Set 4 lookup 14 subtable" K.ss04
Substitution2: "'c2sc' +BBoEMAQ/BDgEQgQ1BDsETAAA +BDgENwAA +BD8EQAQ+BD8EOARBBD0ESwRF lookup 0 subtable" K.c2sc
Position2: "'cpsp' +BBgEPQRCBDUEQAQyBDAEOwAA +BD8EQAQ+BD8EOARBBD0ESwRF lookup 0 subtable" dx=36 dy=0 dh=72 dv=0
EndChar

StartChar: L
Encoding: 76 76 48
Width: 1110
GlyphClass: 2
Flags: W
LayerCount: 2
Fore
SplineSet
461 270 m 1,0,-1
 1072 270 l 1,1,-1
 1072 0 l 1,2,-1
 110 0 l 1,3,-1
 110 1456 l 1,4,-1
 461 1456 l 1,5,-1
 461 270 l 1,0,-1
EndSplineSet
Substitution2: "'c2sc' +BBoEMAQ/BDgEQgQ1BDsETAAA +BDgENwAA +BD8EQAQ+BD8EOARBBD0ESwRF lookup 0 subtable" L.c2sc
Position2: "'cpsp' +BBgEPQRCBDUEQAQyBDAEOwAA +BD8EQAQ+BD8EOARBBD0ESwRF lookup 0 subtable" dx=36 dy=0 dh=72 dv=0
EndChar

StartChar: M
Encoding: 77 77 49
Width: 1795
GlyphClass: 2
Flags: W
LayerCount: 2
Fore
SplineSet
571 1456 m 1,0,-1
 896 443 l 1,1,-1
 1220 1456 l 1,2,-1
 1682 1456 l 1,3,-1
 1682 0 l 1,4,-1
 1330 0 l 1,5,-1
 1330 340 l 1,6,-1
 1364 1036 l 1,7,-1
 1012 0 l 1,8,-1
 780 0 l 1,9,-1
 427 1037 l 1,10,-1
 461 340 l 1,11,-1
 461 0 l 1,12,-1
 110 0 l 1,13,-1
 110 1456 l 1,14,-1
 571 1456 l 1,0,-1
EndSplineSet
Substitution2: "'c2sc' +BBoEMAQ/BDgEQgQ1BDsETAAA +BDgENwAA +BD8EQAQ+BD8EOARBBD0ESwRF lookup 0 subtable" M.c2sc
Position2: "'cpsp' +BBgEPQRCBDUEQAQyBDAEOwAA +BD8EQAQ+BD8EOARBBD0ESwRF lookup 0 subtable" dx=36 dy=0 dh=72 dv=0
EndChar

StartChar: N
Encoding: 78 78 50
Width: 1438
GlyphClass: 2
Flags: W
LayerCount: 2
Fore
SplineSet
1326 0 m 1,0,-1
 977 0 l 1,1,-1
 461 906 l 1,2,-1
 461 0 l 1,3,-1
 110 0 l 1,4,-1
 110 1456 l 1,5,-1
 461 1456 l 1,6,-1
 976 550 l 1,7,-1
 976 1456 l 1,8,-1
 1326 1456 l 1,9,-1
 1326 0 l 1,0,-1
EndSplineSet
Substitution2: "'c2sc' +BBoEMAQ/BDgEQgQ1BDsETAAA +BDgENwAA +BD8EQAQ+BD8EOARBBD0ESwRF lookup 0 subtable" N.c2sc
Position2: "'cpsp' +BBgEPQRCBDUEQAQyBDAEOwAA +BD8EQAQ+BD8EOARBBD0ESwRF lookup 0 subtable" dx=36 dy=0 dh=72 dv=0
EndChar

StartChar: O
Encoding: 79 79 51
Width: 1414
GlyphClass: 2
Flags: W
LayerCount: 2
Fore
SplineSet
1343 698 m 2,0,1
 1343 485 1343 485 1264 321 c 128,-1,2
 1185 157 1185 157 1039.5 68.5 c 128,-1,3
 894 -20 894 -20 708 -20 c 128,-1,4
 522 -20 522 -20 378 65.5 c 128,-1,5
 234 151 234 151 153.5 310 c 128,-1,6
 73 469 73 469 69 675 c 1,7,-1
 69 757 l 2,8,9
 69 971 69 971 147.5 1134.5 c 128,-1,10
 226 1298 226 1298 372.5 1387 c 128,-1,11
 519 1476 519 1476 706 1476 c 0,12,13
 891 1476 891 1476 1036 1388 c 128,-1,14
 1181 1300 1181 1300 1261.5 1137.5 c 128,-1,15
 1342 975 1342 975 1343 765 c 2,16,-1
 1343 698 l 2,0,1
986 759 m 2,17,18
 986 976 986 976 913.5 1088.5 c 128,-1,19
 841 1201 841 1201 706 1201 c 0,20,21
 442 1201 442 1201 427 805 c 1,22,-1
 426 698 l 2,23,24
 426 484 426 484 497 369 c 128,-1,25
 568 254 568 254 708 254 c 0,26,27
 841 254 841 254 913 367 c 128,-1,28
 985 480 985 480 986 692 c 2,29,-1
 986 759 l 2,17,18
EndSplineSet
Substitution2: "'ss06' Style Set 6 lookup 16 subtable" O.ss06
Substitution2: "'c2sc' +BBoEMAQ/BDgEQgQ1BDsETAAA +BDgENwAA +BD8EQAQ+BD8EOARBBD0ESwRF lookup 0 subtable" O.c2sc
Position2: "'cpsp' +BBgEPQRCBDUEQAQyBDAEOwAA +BD8EQAQ+BD8EOARBBD0ESwRF lookup 0 subtable" dx=36 dy=0 dh=72 dv=0
EndChar

StartChar: P
Encoding: 80 80 52
Width: 1333
GlyphClass: 2
Flags: W
LayerCount: 2
Fore
SplineSet
461 494 m 1,0,-1
 461 0 l 1,1,-1
 110 0 l 1,2,-1
 110 1456 l 1,3,-1
 691 1456 l 2,4,5
 858 1456 858 1456 986.5 1394.5 c 128,-1,6
 1115 1333 1115 1333 1185.5 1219.5 c 128,-1,7
 1256 1106 1256 1106 1256 962 c 0,8,9
 1256 749 1256 749 1103.5 621.5 c 128,-1,10
 951 494 951 494 685 494 c 2,11,-1
 461 494 l 1,0,-1
461 765 m 1,12,-1
 691 765 l 2,13,14
 793 765 793 765 846.5 816 c 128,-1,15
 900 867 900 867 900 960 c 0,16,17
 900 1062 900 1062 845 1123 c 128,-1,18
 790 1184 790 1184 695 1185 c 2,19,-1
 461 1185 l 1,20,-1
 461 765 l 1,12,-1
EndSplineSet
Substitution2: "'c2sc' +BBoEMAQ/BDgEQgQ1BDsETAAA +BDgENwAA +BD8EQAQ+BD8EOARBBD0ESwRF lookup 0 subtable" P.c2sc
Position2: "'cpsp' +BBgEPQRCBDUEQAQyBDAEOwAA +BD8EQAQ+BD8EOARBBD0ESwRF lookup 0 subtable" dx=36 dy=0 dh=72 dv=0
EndChar

StartChar: Q
Encoding: 81 81 53
Width: 1414
GlyphClass: 2
Flags: W
LayerCount: 2
Fore
SplineSet
1345 698 m 2,0,1
 1345 496 1345 496 1278 345.5 c 128,-1,2
 1211 195 1211 195 1093 104 c 1,3,-1
 1328 -82 l 1,4,-1
 1111 -266 l 1,5,-1
 798 -14 l 1,6,7
 754 -20 754 -20 710 -20 c 0,8,9
 524 -20 524 -20 380 66 c 128,-1,10
 236 152 236 152 155.5 312 c 128,-1,11
 75 472 75 472 72 680 c 2,12,-1
 72 757 l 2,13,14
 72 972 72 972 150.5 1135 c 128,-1,15
 229 1298 229 1298 374.5 1387 c 128,-1,16
 520 1476 520 1476 708 1476 c 0,17,18
 893 1476 893 1476 1038 1388 c 128,-1,19
 1183 1300 1183 1300 1263.5 1137.5 c 128,-1,20
 1344 975 1344 975 1345 765 c 2,21,-1
 1345 698 l 2,0,1
988 759 m 2,22,23
 988 976 988 976 915.5 1088.5 c 128,-1,24
 843 1201 843 1201 708 1201 c 0,25,26
 569 1201 569 1201 499 1090 c 128,-1,27
 429 979 429 979 428 765 c 2,28,-1
 428 698 l 2,29,30
 428 483 428 483 499 368.5 c 128,-1,31
 570 254 570 254 710 254 c 0,32,33
 844 254 844 254 915.5 367 c 128,-1,34
 987 480 987 480 988 692 c 2,35,-1
 988 759 l 2,22,23
EndSplineSet
Substitution2: "'ss06' Style Set 6 lookup 16 subtable" Q.ss06
Substitution2: "'c2sc' +BBoEMAQ/BDgEQgQ1BDsETAAA +BDgENwAA +BD8EQAQ+BD8EOARBBD0ESwRF lookup 0 subtable" Q.c2sc
Position2: "'cpsp' +BBgEPQRCBDUEQAQyBDAEOwAA +BD8EQAQ+BD8EOARBBD0ESwRF lookup 0 subtable" dx=36 dy=0 dh=72 dv=0
EndChar

StartChar: R
Encoding: 82 82 54
Width: 1336
GlyphClass: 2
Flags: W
LayerCount: 2
Fore
SplineSet
651 514 m 1,0,-1
 461 514 l 1,1,-1
 461 0 l 1,2,-1
 110 0 l 1,3,-1
 110 1456 l 1,4,-1
 683 1456 l 2,5,6
 942 1456 942 1456 1088 1341 c 128,-1,7
 1234 1226 1234 1226 1234 1016 c 0,8,9
 1234 864 1234 864 1172.5 764 c 128,-1,10
 1111 664 1111 664 980 602 c 1,11,-1
 1284 15 l 1,12,-1
 1284 0 l 1,13,-1
 908 0 l 1,14,-1
 651 514 l 1,0,-1
461 785 m 1,15,-1
 683 785 l 2,16,17
 783 785 783 785 833.5 837.5 c 128,-1,18
 884 890 884 890 884 984 c 128,-1,19
 884 1078 884 1078 833 1131.5 c 128,-1,20
 782 1185 782 1185 683 1185 c 2,21,-1
 461 1185 l 1,22,-1
 461 785 l 1,15,-1
EndSplineSet
Substitution2: "'ss03' Style Set 3 lookup 13 subtable" R.ss03
Substitution2: "'c2sc' +BBoEMAQ/BDgEQgQ1BDsETAAA +BDgENwAA +BD8EQAQ+BD8EOARBBD0ESwRF lookup 0 subtable" R.c2sc
Position2: "'cpsp' +BBgEPQRCBDUEQAQyBDAEOwAA +BD8EQAQ+BD8EOARBBD0ESwRF lookup 0 subtable" dx=36 dy=0 dh=72 dv=0
EndChar

StartChar: S
Encoding: 83 83 55
Width: 1282
GlyphClass: 2
Flags: W
LayerCount: 2
Fore
SplineSet
861 387 m 0,0,1
 861 464 861 464 806.5 507 c 128,-1,2
 752 550 752 550 615 596 c 128,-1,3
 478 642 478 642 391 685 c 0,4,5
 108 824 108 824 108 1067 c 0,6,7
 108 1188 108 1188 178.5 1280.5 c 128,-1,8
 249 1373 249 1373 378 1424.5 c 128,-1,9
 507 1476 507 1476 668 1476 c 0,10,11
 825 1476 825 1476 949.5 1420 c 128,-1,12
 1074 1364 1074 1364 1143 1260.5 c 128,-1,13
 1212 1157 1212 1157 1212 1024 c 1,14,-1
 862 1024 l 1,15,16
 862 1113 862 1113 807.5 1162 c 128,-1,17
 753 1211 753 1211 660 1211 c 0,18,19
 566 1211 566 1211 511.5 1169.5 c 128,-1,20
 457 1128 457 1128 457 1064 c 0,21,22
 457 1008 457 1008 517 962.5 c 128,-1,23
 577 917 577 917 728 868.5 c 128,-1,24
 879 820 879 820 976 764 c 0,25,26
 1212 628 1212 628 1212 389 c 0,27,28
 1212 198 1212 198 1068 89 c 128,-1,29
 924 -20 924 -20 673 -20 c 0,30,31
 496 -20 496 -20 352.5 43.5 c 128,-1,32
 209 107 209 107 136.5 217.5 c 128,-1,33
 64 328 64 328 64 472 c 1,34,-1
 416 472 l 1,35,36
 416 355 416 355 476.5 299.5 c 128,-1,37
 537 244 537 244 673 244 c 0,38,39
 760 244 760 244 810.5 281.5 c 128,-1,40
 861 319 861 319 861 387 c 0,0,1
EndSplineSet
Substitution2: "'c2sc' +BBoEMAQ/BDgEQgQ1BDsETAAA +BDgENwAA +BD8EQAQ+BD8EOARBBD0ESwRF lookup 0 subtable" S.c2sc
Position2: "'cpsp' +BBgEPQRCBDUEQAQyBDAEOwAA +BD8EQAQ+BD8EOARBBD0ESwRF lookup 0 subtable" dx=36 dy=0 dh=72 dv=0
EndChar

StartChar: T
Encoding: 84 84 56
Width: 1291
GlyphClass: 2
Flags: W
LayerCount: 2
Fore
SplineSet
1253 1185 m 1,0,-1
 816 1185 l 1,1,-1
 816 0 l 1,2,-1
 465 0 l 1,3,-1
 465 1185 l 1,4,-1
 36 1185 l 1,5,-1
 36 1456 l 1,6,-1
 1253 1456 l 1,7,-1
 1253 1185 l 1,0,-1
EndSplineSet
Substitution2: "'c2sc' +BBoEMAQ/BDgEQgQ1BDsETAAA +BDgENwAA +BD8EQAQ+BD8EOARBBD0ESwRF lookup 0 subtable" T.c2sc
Position2: "'cpsp' +BBgEPQRCBDUEQAQyBDAEOwAA +BD8EQAQ+BD8EOARBBD0ESwRF lookup 0 subtable" dx=36 dy=0 dh=72 dv=0
EndChar

StartChar: U
Encoding: 85 85 57
Width: 1361
GlyphClass: 2
Flags: W
LayerCount: 2
Fore
SplineSet
1252 1456 m 1,0,-1
 1252 503 l 2,1,2
 1252 341 1252 341 1183 222.5 c 128,-1,3
 1114 104 1114 104 985 42 c 128,-1,4
 856 -20 856 -20 680 -20 c 0,5,6
 414 -20 414 -20 261 118 c 128,-1,7
 108 256 108 256 105 496 c 2,8,-1
 105 1456 l 1,9,-1
 458 1456 l 1,10,-1
 458 489 l 1,11,12
 464 250 464 250 680 250 c 0,13,14
 789 250 789 250 845 310 c 128,-1,15
 901 370 901 370 901 505 c 2,16,-1
 901 1456 l 1,17,-1
 1252 1456 l 1,0,-1
EndSplineSet
Substitution2: "'c2sc' +BBoEMAQ/BDgEQgQ1BDsETAAA +BDgENwAA +BD8EQAQ+BD8EOARBBD0ESwRF lookup 0 subtable" U.c2sc
Position2: "'cpsp' +BBgEPQRCBDUEQAQyBDAEOwAA +BD8EQAQ+BD8EOARBBD0ESwRF lookup 0 subtable" dx=36 dy=0 dh=72 dv=0
EndChar

StartChar: V
Encoding: 86 86 58
Width: 1353
GlyphClass: 2
Flags: W
LayerCount: 2
Fore
SplineSet
675 396 m 1,0,-1
 965 1456 l 1,1,-1
 1357 1456 l 1,2,-1
 867 0 l 1,3,-1
 483 0 l 1,4,-1
 -3 1456 l 1,5,-1
 386 1456 l 1,6,-1
 675 396 l 1,0,-1
EndSplineSet
Substitution2: "'c2sc' +BBoEMAQ/BDgEQgQ1BDsETAAA +BDgENwAA +BD8EQAQ+BD8EOARBBD0ESwRF lookup 0 subtable" V.c2sc
Position2: "'cpsp' +BBgEPQRCBDUEQAQyBDAEOwAA +BD8EQAQ+BD8EOARBBD0ESwRF lookup 0 subtable" dx=36 dy=0 dh=72 dv=0
EndChar

StartChar: W
Encoding: 87 87 59
Width: 1780
GlyphClass: 2
Flags: W
LayerCount: 2
Fore
SplineSet
1238 543 m 1,0,-1
 1405 1456 l 1,1,-1
 1753 1456 l 1,2,-1
 1444 0 l 1,3,-1
 1080 0 l 1,4,-1
 885 830 l 1,5,-1
 694 0 l 1,6,-1
 331 0 l 1,7,-1
 21 1456 l 1,8,-1
 370 1456 l 1,9,-1
 537 543 l 1,10,-1
 737 1456 l 1,11,-1
 1035 1456 l 1,12,-1
 1238 543 l 1,0,-1
EndSplineSet
Substitution2: "'c2sc' +BBoEMAQ/BDgEQgQ1BDsETAAA +BDgENwAA +BD8EQAQ+BD8EOARBBD0ESwRF lookup 0 subtable" W.c2sc
Position2: "'cpsp' +BBgEPQRCBDUEQAQyBDAEOwAA +BD8EQAQ+BD8EOARBBD0ESwRF lookup 0 subtable" dx=36 dy=0 dh=72 dv=0
EndChar

StartChar: X
Encoding: 88 88 60
Width: 1307
GlyphClass: 2
Flags: W
LayerCount: 2
Fore
SplineSet
653 972 m 1,0,-1
 891 1456 l 1,1,-1
 1292 1456 l 1,2,-1
 885 734 l 1,3,-1
 1303 0 l 1,4,-1
 898 0 l 1,5,-1
 653 493 l 1,6,-1
 408 0 l 1,7,-1
 4 0 l 1,8,-1
 421 734 l 1,9,-1
 15 1456 l 1,10,-1
 415 1456 l 1,11,-1
 653 972 l 1,0,-1
EndSplineSet
Substitution2: "'c2sc' +BBoEMAQ/BDgEQgQ1BDsETAAA +BDgENwAA +BD8EQAQ+BD8EOARBBD0ESwRF lookup 0 subtable" X.c2sc
Position2: "'cpsp' +BBgEPQRCBDUEQAQyBDAEOwAA +BD8EQAQ+BD8EOARBBD0ESwRF lookup 0 subtable" dx=36 dy=0 dh=72 dv=0
EndChar

StartChar: Y
Encoding: 89 89 61
Width: 1286
GlyphClass: 2
Flags: W
LayerCount: 2
Fore
SplineSet
643 824 m 1,0,-1
 911 1456 l 1,1,-1
 1290 1456 l 1,2,-1
 821 523 l 1,3,-1
 821 0 l 1,4,-1
 465 0 l 1,5,-1
 465 523 l 1,6,-1
 -3 1456 l 1,7,-1
 374 1456 l 1,8,-1
 643 824 l 1,0,-1
EndSplineSet
Substitution2: "'c2sc' +BBoEMAQ/BDgEQgQ1BDsETAAA +BDgENwAA +BD8EQAQ+BD8EOARBBD0ESwRF lookup 0 subtable" Y.c2sc
Position2: "'cpsp' +BBgEPQRCBDUEQAQyBDAEOwAA +BD8EQAQ+BD8EOARBBD0ESwRF lookup 0 subtable" dx=36 dy=0 dh=72 dv=0
EndChar

StartChar: Z
Encoding: 90 90 62
Width: 1249
GlyphClass: 2
Flags: W
LayerCount: 2
Fore
SplineSet
504 270 m 1,0,-1
 1200 270 l 1,1,-1
 1200 0 l 1,2,-1
 66 0 l 1,3,-1
 66 185 l 1,4,-1
 760 1185 l 1,5,-1
 62 1185 l 1,6,-1
 62 1456 l 1,7,-1
 1193 1456 l 1,8,-1
 1193 1276 l 1,9,-1
 504 270 l 1,0,-1
EndSplineSet
Substitution2: "'c2sc' +BBoEMAQ/BDgEQgQ1BDsETAAA +BDgENwAA +BD8EQAQ+BD8EOARBBD0ESwRF lookup 0 subtable" Z.c2sc
Position2: "'cpsp' +BBgEPQRCBDUEQAQyBDAEOwAA +BD8EQAQ+BD8EOARBBD0ESwRF lookup 0 subtable" dx=36 dy=0 dh=72 dv=0
EndChar

StartChar: bracketleft
Encoding: 91 91 63
Width: 577
Flags: W
LayerCount: 2
Fore
SplineSet
564 1460 m 1,0,-1
 446 1460 l 1,1,-1
 446 -104 l 1,2,-1
 564 -104 l 1,3,-1
 564 -349 l 1,4,-1
 108 -349 l 1,5,-1
 108 1706 l 1,6,-1
 564 1706 l 1,7,-1
 564 1460 l 1,0,-1
EndSplineSet
EndChar

StartChar: backslash
Encoding: 92 92 64
Width: 873
Flags: W
LayerCount: 2
Fore
SplineSet
-20 1456 m 1,0,-1
 331 1456 l 1,1,-1
 939 -125 l 1,2,-1
 586 -125 l 1,3,-1
 -20 1456 l 1,0,-1
EndSplineSet
EndChar

StartChar: bracketright
Encoding: 93 93 65
Width: 577
Flags: W
LayerCount: 2
Fore
SplineSet
14 1706 m 1,0,-1
 470 1706 l 1,1,-1
 470 -349 l 1,2,-1
 14 -349 l 1,3,-1
 14 -104 l 1,4,-1
 133 -104 l 1,5,-1
 133 1460 l 1,6,-1
 14 1460 l 1,7,-1
 14 1706 l 1,0,-1
EndSplineSet
EndChar

StartChar: asciicircum
Encoding: 94 94 66
Width: 916
Flags: W
LayerCount: 2
Fore
SplineSet
460 1182 m 1,0,-1
 289 729 l 1,1,-1
 36 729 l 1,2,-1
 335 1456 l 1,3,-1
 584 1456 l 1,4,-1
 884 729 l 1,5,-1
 630 729 l 1,6,-1
 460 1182 l 1,0,-1
EndSplineSet
EndChar

StartChar: underscore
Encoding: 95 95 67
Width: 904
Flags: W
LayerCount: 2
Fore
SplineSet
903 -251 m 1,0,-1
 0 -251 l 1,1,-1
 0 0 l 1,2,-1
 903 0 l 1,3,-1
 903 -251 l 1,0,-1
EndSplineSet
EndChar

StartChar: grave
Encoding: 96 96 68
Width: 695
Flags: W
LayerCount: 2
Fore
SplineSet
610 1222 m 1,0,-1
 336 1222 l 1,1,-1
 54 1536 l 1,2,-1
 410 1536 l 1,3,-1
 610 1222 l 1,0,-1
EndSplineSet
EndChar

StartChar: a
Encoding: 97 97 69
Width: 1087
GlyphClass: 2
Flags: W
LayerCount: 2
Fore
SplineSet
704 0 m 1,0,1
 686 33 686 33 672 97 c 1,2,3
 579 -20 579 -20 412 -20 c 0,4,5
 259 -20 259 -20 152 72.5 c 128,-1,6
 45 165 45 165 45 305 c 0,7,8
 45 481 45 481 175 571 c 128,-1,9
 305 661 305 661 553 661 c 2,10,-1
 657 661 l 1,11,-1
 657 718 l 2,12,13
 657 867 657 867 528 867 c 0,14,15
 408 867 408 867 408 749 c 1,16,-1
 71 749 l 1,17,18
 71 906 71 906 204.5 1004 c 128,-1,19
 338 1102 338 1102 545 1102 c 128,-1,20
 752 1102 752 1102 872 1001 c 128,-1,21
 992 900 992 900 995 724 c 2,22,-1
 995 245 l 2,23,24
 997 96 997 96 1041 17 c 1,25,-1
 1041 0 l 1,26,-1
 704 0 l 1,0,1
493 220 m 0,27,28
 556 220 556 220 597.5 247 c 128,-1,29
 639 274 639 274 657 308 c 1,30,-1
 657 481 l 1,31,-1
 559 481 l 2,32,33
 383 481 383 481 383 323 c 0,34,35
 383 277 383 277 414 248.5 c 128,-1,36
 445 220 445 220 493 220 c 0,27,28
EndSplineSet
Substitution2: "'smcp' Lowercase to Small Capitals lookup 1 subtable" A.c2sc
EndChar

StartChar: b
Encoding: 98 98 70
Width: 1153
GlyphClass: 2
Flags: W
LayerCount: 2
Fore
SplineSet
1099 532 m 2,0,1
 1099 266 1099 266 989 123 c 128,-1,2
 879 -20 879 -20 679 -20 c 0,3,4
 514 -20 514 -20 413 111 c 1,5,-1
 399 0 l 1,6,-1
 97 0 l 1,7,-1
 97 1536 l 1,8,-1
 434 1536 l 1,9,-1
 434 995 l 1,10,11
 528 1102 528 1102 677 1102 c 0,12,13
 879 1102 879 1102 989 957 c 128,-1,14
 1099 812 1099 812 1099 549 c 2,15,-1
 1099 532 l 2,0,1
761 553 m 0,16,17
 761 709 761 709 719.5 775.5 c 128,-1,18
 678 842 678 842 592 842 c 0,19,20
 478 842 478 842 434 755 c 1,21,-1
 434 325 l 1,22,23
 477 239 477 239 594 239 c 0,24,25
 713 239 713 239 745 355 c 0,26,27
 761 412 761 412 761 553 c 0,16,17
EndSplineSet
Substitution2: "'ss06' Style Set 6 lookup 16 subtable" b.ss06
Substitution2: "'smcp' Lowercase to Small Capitals lookup 1 subtable" B.c2sc
EndChar

StartChar: c
Encoding: 99 99 71
Width: 1064
GlyphClass: 2
Flags: W
LayerCount: 2
Fore
SplineSet
552 240 m 0,0,1
 623 240 623 240 662 278.5 c 128,-1,2
 701 317 701 317 700 386 c 1,3,-1
 1016 386 l 1,4,5
 1016 208 1016 208 888.5 94 c 128,-1,6
 761 -20 761 -20 560 -20 c 0,7,8
 324 -20 324 -20 188 128 c 128,-1,9
 52 276 52 276 52 538 c 2,10,-1
 52 552 l 2,11,12
 52 716 52 716 112.5 841.5 c 128,-1,13
 173 967 173 967 287 1034.5 c 128,-1,14
 401 1102 401 1102 557 1102 c 0,15,16
 768 1102 768 1102 892 985 c 128,-1,17
 1016 868 1016 868 1016 668 c 1,18,-1
 700 668 l 1,19,20
 700 752 700 752 659 797 c 128,-1,21
 618 842 618 842 549 842 c 0,22,23
 418 842 418 842 396 675 c 0,24,25
 389 622 389 622 389 529 c 0,26,27
 389 366 389 366 428 303 c 128,-1,28
 467 240 467 240 552 240 c 0,0,1
EndSplineSet
Substitution2: "'ss06' Style Set 6 lookup 16 subtable" c.ss06
Substitution2: "'smcp' Lowercase to Small Capitals lookup 1 subtable" C.c2sc
EndChar

StartChar: d
Encoding: 100 100 72
Width: 1152
GlyphClass: 2
Flags: W
LayerCount: 2
Fore
SplineSet
52 549 m 0,0,1
 52 806 52 806 163 954 c 128,-1,2
 274 1102 274 1102 473 1102 c 0,3,4
 618 1102 618 1102 717 988 c 1,5,-1
 717 1536 l 1,6,-1
 1055 1536 l 1,7,-1
 1055 0 l 1,8,-1
 752 0 l 1,9,-1
 735 116 l 1,10,11
 631 -20 631 -20 471 -20 c 0,12,13
 278 -20 278 -20 165 128 c 128,-1,14
 52 276 52 276 52 549 c 0,0,1
389 528 m 1,15,16
 389 240 389 240 557 240 c 0,17,18
 669 240 669 240 717 334 c 1,19,-1
 717 746 l 1,20,21
 671 842 671 842 559 842 c 0,22,23
 403 842 403 842 390 590 c 1,24,-1
 389 528 l 1,15,16
EndSplineSet
Substitution2: "'ss06' Style Set 6 lookup 16 subtable" d.ss06
Substitution2: "'smcp' Lowercase to Small Capitals lookup 1 subtable" D.c2sc
EndChar

StartChar: e
Encoding: 101 101 73
Width: 1115
GlyphClass: 2
Flags: W
LayerCount: 2
Fore
SplineSet
618 -20 m 0,0,1
 369 -20 369 -20 215 128.5 c 128,-1,2
 61 277 61 277 61 515 c 2,3,-1
 61 543 l 2,4,5
 61 709 61 709 122.5 836 c 128,-1,6
 184 963 184 963 302 1032.5 c 128,-1,7
 420 1102 420 1102 582 1102 c 0,8,9
 810 1102 810 1102 942 960.5 c 128,-1,10
 1074 819 1074 819 1074 566 c 2,11,-1
 1074 435 l 1,12,-1
 404 435 l 1,13,14
 422 344 422 344 483 292 c 128,-1,15
 544 240 544 240 641 240 c 0,16,17
 801 240 801 240 891 352 c 1,18,-1
 1045 170 l 1,19,20
 982 83 982 83 866.5 31.5 c 128,-1,21
 751 -20 751 -20 618 -20 c 0,0,1
580 842 m 0,22,23
 432 842 432 842 404 646 c 1,24,-1
 744 646 l 1,25,-1
 744 672 l 2,26,27
 746 753 746 753 703 797.5 c 128,-1,28
 660 842 660 842 580 842 c 0,22,23
EndSplineSet
Substitution2: "'ss07' Style Set 7 lookup 17 subtable" e.ss07
Substitution2: "'smcp' Lowercase to Small Capitals lookup 1 subtable" E.c2sc
EndChar

StartChar: f
Encoding: 102 102 74
Width: 742
GlyphClass: 2
Flags: W
LayerCount: 2
Fore
SplineSet
169 0 m 1,0,-1
 169 848 l 1,1,-1
 12 848 l 1,2,-1
 12 1082 l 1,3,-1
 169 1082 l 1,4,-1
 169 1168 l 2,5,6
 169 1353 169 1353 278 1455 c 128,-1,7
 387 1557 387 1557 584 1557 c 0,8,9
 656 1557 656 1557 742 1536 c 1,10,-1
 743 1288 l 1,11,12
 712 1297 712 1297 660 1297 c 0,13,14
 507 1297 507 1297 507 1165 c 2,15,-1
 507 1082 l 1,16,-1
 718 1082 l 1,17,-1
 718 848 l 1,18,-1
 507 848 l 1,19,-1
 507 0 l 1,20,-1
 169 0 l 1,0,-1
EndSplineSet
Substitution2: "'smcp' Lowercase to Small Capitals lookup 1 subtable" F.c2sc
EndChar

StartChar: g
Encoding: 103 103 75
Width: 1178
GlyphClass: 2
Flags: W
LayerCount: 2
Fore
SplineSet
55 549 m 2,0,1
 55 713 55 713 109 839 c 128,-1,2
 163 965 163 965 264 1033.5 c 128,-1,3
 365 1102 365 1102 499 1102 c 0,4,5
 668 1102 668 1102 763 988 c 1,6,-1
 775 1082 l 1,7,-1
 1081 1082 l 1,8,-1
 1081 41 l 2,9,10
 1081 -102 1081 -102 1014.5 -207.5 c 128,-1,11
 948 -313 948 -313 822 -369.5 c 128,-1,12
 696 -426 696 -426 530 -426 c 0,13,14
 411 -426 411 -426 299.5 -381 c 128,-1,15
 188 -336 188 -336 129 -264 c 1,16,-1
 270 -66 l 1,17,18
 364 -177 364 -177 518 -177 c 0,19,20
 742 -177 742 -177 742 53 c 2,21,-1
 742 87 l 1,22,23
 645 -20 645 -20 497 -20 c 0,24,25
 299 -20 299 -20 177 131.5 c 128,-1,26
 55 283 55 283 55 537 c 2,27,-1
 55 549 l 2,0,1
393 528 m 0,28,29
 393 395 393 395 443 317.5 c 128,-1,30
 493 240 493 240 583 240 c 0,31,32
 692 240 692 240 742 313 c 1,33,-1
 742 768 l 1,34,35
 693 842 693 842 585 842 c 0,36,37
 495 842 495 842 444 761.5 c 128,-1,38
 393 681 393 681 393 528 c 0,28,29
EndSplineSet
Substitution2: "'ss07' Style Set 7 lookup 17 subtable" g.ss07
Substitution2: "'ss06' Style Set 6 lookup 16 subtable" g.ss06
Substitution2: "'ss01' Style Set 1 lookup 11 subtable" g.ss01
Substitution2: "'smcp' Lowercase to Small Capitals lookup 1 subtable" G.c2sc
EndChar

StartChar: h
Encoding: 104 104 76
Width: 1156
GlyphClass: 2
Flags: W
LayerCount: 2
Fore
SplineSet
424 966 m 1,0,1
 532 1102 532 1102 700 1102 c 0,2,3
 879 1102 879 1102 970 996 c 128,-1,4
 1061 890 1061 890 1063 683 c 2,5,-1
 1063 0 l 1,6,-1
 725 0 l 1,7,-1
 725 675 l 2,8,9
 725 761 725 761 690 801.5 c 128,-1,10
 655 842 655 842 571 842 c 0,11,12
 467 842 467 842 424 776 c 1,13,-1
 424 0 l 1,14,-1
 87 0 l 1,15,-1
 87 1536 l 1,16,-1
 424 1536 l 1,17,-1
 424 966 l 1,0,1
EndSplineSet
Substitution2: "'smcp' Lowercase to Small Capitals lookup 1 subtable" H.c2sc
EndChar

StartChar: i
Encoding: 105 105 77
Width: 563
GlyphClass: 2
Flags: W
LayerCount: 2
Fore
SplineSet
450 0 m 1,0,-1
 112 0 l 1,1,-1
 112 1082 l 1,2,-1
 450 1082 l 1,3,-1
 450 0 l 1,0,-1
92 1361 m 256,4,5
 92 1433 92 1433 144 1479 c 128,-1,6
 196 1525 196 1525 279 1525 c 128,-1,7
 362 1525 362 1525 414 1479 c 128,-1,8
 466 1433 466 1433 466 1361 c 128,-1,9
 466 1289 466 1289 414 1243 c 128,-1,10
 362 1197 362 1197 279 1197 c 128,-1,11
 196 1197 196 1197 144 1243 c 128,-1,12
 92 1289 92 1289 92 1361 c 256,4,5
EndSplineSet
Substitution2: "Single Substitution lookup 3 subtable" glyph609
Substitution2: "'smcp' Lowercase to Small Capitals lookup 1 subtable" I.c2sc
EndChar

StartChar: j
Encoding: 106 106 78
Width: 553
GlyphClass: 2
Flags: W
LayerCount: 2
Fore
SplineSet
457 1082 m 1,0,-1
 457 -37 l 2,1,2
 456 -229 456 -229 347 -333 c 128,-1,3
 238 -437 238 -437 43 -437 c 0,4,5
 -41 -437 -41 -437 -116 -420 c 1,6,-1
 -116 -165 l 1,7,8
 -58 -174 -58 -174 -21 -174 c 0,9,10
 119 -174 119 -174 119 -35 c 2,11,-1
 119 1082 l 1,12,-1
 457 1082 l 1,0,-1
94 1361 m 256,13,14
 94 1433 94 1433 146 1479 c 128,-1,15
 198 1525 198 1525 281 1525 c 128,-1,16
 364 1525 364 1525 416 1479 c 128,-1,17
 468 1433 468 1433 468 1361 c 128,-1,18
 468 1289 468 1289 416 1243 c 128,-1,19
 364 1197 364 1197 281 1197 c 128,-1,20
 198 1197 198 1197 146 1243 c 128,-1,21
 94 1289 94 1289 94 1361 c 256,13,14
EndSplineSet
Substitution2: "Single Substitution lookup 3 subtable" glyph607
Substitution2: "'smcp' Lowercase to Small Capitals lookup 1 subtable" J.c2sc
EndChar

StartChar: k
Encoding: 107 107 79
Width: 1120
GlyphClass: 2
Flags: W
LayerCount: 2
Fore
SplineSet
529 403 m 1,0,-1
 434 308 l 1,1,-1
 434 0 l 1,2,-1
 97 0 l 1,3,-1
 97 1537 l 1,4,-1
 434 1537 l 1,5,-1
 434 721 l 1,6,-1
 468 766 l 1,7,-1
 722 1082 l 1,8,-1
 1126 1082 l 1,9,-1
 747 637 l 1,10,-1
 1151 0 l 1,11,-1
 765 0 l 1,12,-1
 529 403 l 1,0,-1
EndSplineSet
Substitution2: "'ss05' Style Set 5 lookup 15 subtable" k.ss05
Substitution2: "'ss04' Style Set 4 lookup 14 subtable" k.ss04
Substitution2: "'smcp' Lowercase to Small Capitals lookup 1 subtable" K.c2sc
EndChar

StartChar: l
Encoding: 108 108 80
Width: 563
GlyphClass: 2
Flags: W
LayerCount: 2
Fore
SplineSet
450 0 m 1,0,-1
 112 0 l 1,1,-1
 112 1536 l 1,2,-1
 450 1536 l 1,3,-1
 450 0 l 1,0,-1
EndSplineSet
Substitution2: "'smcp' Lowercase to Small Capitals lookup 1 subtable" L.c2sc
EndChar

StartChar: m
Encoding: 109 109 81
Width: 1764
GlyphClass: 2
Flags: W
LayerCount: 2
Fore
SplineSet
413 1082 m 1,0,-1
 424 955 l 1,1,2
 539 1102 539 1102 733 1102 c 0,3,4
 938 1102 938 1102 1010 939 c 1,5,6
 1120 1102 1120 1102 1328 1102 c 0,7,8
 1657 1102 1657 1102 1666 704 c 1,9,-1
 1666 0 l 1,10,-1
 1328 0 l 1,11,-1
 1328 683 l 2,12,13
 1328 766 1328 766 1300 804 c 128,-1,14
 1272 842 1272 842 1198 842 c 0,15,16
 1098 842 1098 842 1049 753 c 1,17,-1
 1050 739 l 1,18,-1
 1050 0 l 1,19,-1
 712 0 l 1,20,-1
 712 681 l 2,21,22
 712 766 712 766 685 804 c 128,-1,23
 658 842 658 842 582 842 c 0,24,25
 485 842 485 842 434 753 c 1,26,-1
 434 0 l 1,27,-1
 97 0 l 1,28,-1
 97 1082 l 1,29,-1
 413 1082 l 1,0,-1
EndSplineSet
Substitution2: "'smcp' Lowercase to Small Capitals lookup 1 subtable" M.c2sc
EndChar

StartChar: n
Encoding: 110 110 82
Width: 1155
GlyphClass: 2
Flags: W
LayerCount: 2
Fore
SplineSet
404 1082 m 1,0,-1
 415 955 l 1,1,2
 527 1102 527 1102 724 1102 c 0,3,4
 893 1102 893 1102 976.5 1001 c 128,-1,5
 1060 900 1060 900 1063 697 c 2,6,-1
 1063 0 l 1,7,-1
 725 0 l 1,8,-1
 725 683 l 2,9,10
 725 765 725 765 692 803.5 c 128,-1,11
 659 842 659 842 572 842 c 0,12,13
 473 842 473 842 425 764 c 1,14,-1
 425 0 l 1,15,-1
 88 0 l 1,16,-1
 88 1082 l 1,17,-1
 404 1082 l 1,0,-1
EndSplineSet
Substitution2: "'smcp' Lowercase to Small Capitals lookup 1 subtable" N.c2sc
EndChar

StartChar: o
Encoding: 111 111 83
Width: 1150
GlyphClass: 2
Flags: W
LayerCount: 2
Fore
SplineSet
52 551 m 2,0,1
 52 713 52 713 115 839.5 c 128,-1,2
 178 966 178 966 296 1034 c 128,-1,3
 414 1102 414 1102 573 1102 c 0,4,5
 816 1102 816 1102 956 951.5 c 128,-1,6
 1096 801 1096 801 1096 542 c 2,7,-1
 1096 530 l 2,8,9
 1096 277 1096 277 955.5 128.5 c 128,-1,10
 815 -20 815 -20 575 -20 c 0,11,12
 344 -20 344 -20 204 118.5 c 128,-1,13
 64 257 64 257 53 494 c 1,14,-1
 52 551 l 2,0,1
389 530 m 2,15,16
 389 380 389 380 436 310 c 128,-1,17
 483 240 483 240 575 240 c 0,18,19
 755 240 755 240 759 517 c 1,20,-1
 759 551 l 2,21,22
 759 842 759 842 573 842 c 0,23,24
 404 842 404 842 390 591 c 1,25,-1
 389 530 l 2,15,16
EndSplineSet
Substitution2: "'ss06' Style Set 6 lookup 16 subtable" o.ss06
Substitution2: "'smcp' Lowercase to Small Capitals lookup 1 subtable" O.c2sc
EndChar

StartChar: p
Encoding: 112 112 84
Width: 1153
GlyphClass: 2
Flags: W
LayerCount: 2
Fore
SplineSet
1099 533 m 2,0,1
 1099 281 1099 281 985.5 130.5 c 128,-1,2
 872 -20 872 -20 679 -20 c 0,3,4
 530 -20 530 -20 434 89 c 1,5,-1
 434 -416 l 1,6,-1
 97 -416 l 1,7,-1
 97 1082 l 1,8,-1
 412 1082 l 1,9,-1
 422 982 l 1,10,11
 519 1102 519 1102 677 1102 c 0,12,13
 877 1102 877 1102 988 954.5 c 128,-1,14
 1099 807 1099 807 1099 549 c 2,15,-1
 1099 533 l 2,0,1
762 554 m 2,16,17
 762 842 762 842 594 842 c 0,18,19
 474 842 474 842 434 756 c 1,20,-1
 434 330 l 1,21,22
 478 240 478 240 596 240 c 0,23,24
 757 240 757 240 762 518 c 1,25,-1
 762 554 l 2,16,17
EndSplineSet
Substitution2: "'ss06' Style Set 6 lookup 16 subtable" p.ss06
Substitution2: "'smcp' Lowercase to Small Capitals lookup 1 subtable" P.c2sc
EndChar

StartChar: q
Encoding: 113 113 85
Width: 1151
GlyphClass: 2
Flags: W
LayerCount: 2
Fore
SplineSet
52 552 m 0,0,1
 52 810 52 810 164 956 c 128,-1,2
 276 1102 276 1102 473 1102 c 0,3,4
 639 1102 639 1102 739 966 c 1,5,-1
 763 1082 l 1,6,-1
 1055 1082 l 1,7,-1
 1055 -416 l 1,8,-1
 717 -416 l 1,9,-1
 717 90 l 1,10,11
 620 -20 620 -20 471 -20 c 0,12,13
 279 -20 279 -20 165.5 128.5 c 128,-1,14
 52 277 52 277 52 552 c 0,0,1
389 531 m 1,15,16
 389 240 389 240 557 240 c 0,17,18
 673 240 673 240 717 328 c 1,19,-1
 717 756 l 1,20,21
 675 842 675 842 559 842 c 0,22,23
 402 842 402 842 390 591 c 1,24,-1
 389 531 l 1,15,16
EndSplineSet
Substitution2: "'ss06' Style Set 6 lookup 16 subtable" q.ss06
Substitution2: "'smcp' Lowercase to Small Capitals lookup 1 subtable" Q.c2sc
EndChar

StartChar: r
Encoding: 114 114 86
Width: 776
GlyphClass: 2
Flags: W
LayerCount: 2
Fore
SplineSet
749 777 m 1,0,-1
 638 785 l 1,1,2
 479 785 479 785 434 685 c 1,3,-1
 434 0 l 1,4,-1
 97 0 l 1,5,-1
 97 1082 l 1,6,-1
 413 1082 l 1,7,-1
 424 943 l 1,8,9
 509 1102 509 1102 661 1102 c 0,10,11
 715 1102 715 1102 755 1090 c 1,12,-1
 749 777 l 1,0,-1
EndSplineSet
Substitution2: "'smcp' Lowercase to Small Capitals lookup 1 subtable" R.c2sc
EndChar

StartChar: s
Encoding: 115 115 87
Width: 1049
GlyphClass: 2
Flags: W
LayerCount: 2
Fore
SplineSet
661 304 m 0,0,1
 661 347 661 347 616 373 c 128,-1,2
 571 399 571 399 445 427 c 128,-1,3
 319 455 319 455 237 500.5 c 128,-1,4
 155 546 155 546 112 611 c 128,-1,5
 69 676 69 676 69 760 c 0,6,7
 69 909 69 909 192 1005.5 c 128,-1,8
 315 1102 315 1102 514 1102 c 0,9,10
 728 1102 728 1102 858 1005 c 128,-1,11
 988 908 988 908 988 750 c 1,12,-1
 650 750 l 1,13,14
 650 880 650 880 513 880 c 0,15,16
 460 880 460 880 424 850.5 c 128,-1,17
 388 821 388 821 388 777 c 0,18,19
 388 732 388 732 432 704 c 128,-1,20
 476 676 476 676 572.5 658 c 128,-1,21
 669 640 669 640 742 615 c 0,22,23
 986 531 986 531 986 314 c 0,24,25
 986 166 986 166 854.5 73 c 128,-1,26
 723 -20 723 -20 514 -20 c 0,27,28
 375 -20 375 -20 266 30 c 128,-1,29
 157 80 157 80 96 166 c 128,-1,30
 35 252 35 252 35 347 c 1,31,-1
 350 347 l 1,32,33
 352 272 352 272 400 237.5 c 128,-1,34
 448 203 448 203 523 203 c 0,35,36
 592 203 592 203 626.5 231 c 128,-1,37
 661 259 661 259 661 304 c 0,0,1
EndSplineSet
Substitution2: "'smcp' Lowercase to Small Capitals lookup 1 subtable" S.c2sc
EndChar

StartChar: t
Encoding: 116 116 88
Width: 703
GlyphClass: 2
Flags: W
LayerCount: 2
Fore
SplineSet
487 1351 m 1,0,-1
 487 1082 l 1,1,-1
 665 1082 l 1,2,-1
 665 848 l 1,3,-1
 487 848 l 1,4,-1
 487 353 l 2,5,6
 487 292 487 292 509 268 c 128,-1,7
 531 244 531 244 596 244 c 0,8,9
 646 244 646 244 680 250 c 1,10,-1
 680 9 l 1,11,12
 589 -20 589 -20 490 -20 c 0,13,14
 316 -20 316 -20 233 62 c 128,-1,15
 150 144 150 144 150 311 c 2,16,-1
 150 848 l 1,17,-1
 12 848 l 1,18,-1
 12 1082 l 1,19,-1
 150 1082 l 1,20,-1
 150 1351 l 1,21,-1
 487 1351 l 1,0,-1
EndSplineSet
Substitution2: "'smcp' Lowercase to Small Capitals lookup 1 subtable" T.c2sc
EndChar

StartChar: u
Encoding: 117 117 89
Width: 1155
GlyphClass: 2
Flags: W
LayerCount: 2
Fore
SplineSet
739 117 m 1,0,1
 632 -20 632 -20 450 -20 c 0,2,3
 272 -20 272 -20 180.5 83.5 c 128,-1,4
 89 187 89 187 89 381 c 2,5,-1
 89 1082 l 1,6,-1
 426 1082 l 1,7,-1
 426 379 l 2,8,9
 426 240 426 240 561 240 c 0,10,11
 677 240 677 240 726 323 c 1,12,-1
 726 1082 l 1,13,-1
 1065 1082 l 1,14,-1
 1065 0 l 1,15,-1
 749 0 l 1,16,-1
 739 117 l 1,0,1
EndSplineSet
Substitution2: "'smcp' Lowercase to Small Capitals lookup 1 subtable" U.c2sc
EndChar

StartChar: v
Encoding: 118 118 90
Width: 1058
GlyphClass: 2
Flags: W
LayerCount: 2
Fore
SplineSet
526 401 m 1,0,-1
 697 1082 l 1,1,-1
 1052 1082 l 1,2,-1
 699 0 l 1,3,-1
 355 0 l 1,4,-1
 2 1082 l 1,5,-1
 358 1082 l 1,6,-1
 526 401 l 1,0,-1
EndSplineSet
Substitution2: "'smcp' Lowercase to Small Capitals lookup 1 subtable" V.c2sc
EndChar

StartChar: w
Encoding: 119 119 91
Width: 1487
GlyphClass: 2
Flags: W
LayerCount: 2
Fore
SplineSet
1029 444 m 1,0,-1
 1138 1082 l 1,1,-1
 1461 1082 l 1,2,-1
 1206 0 l 1,3,-1
 921 0 l 1,4,-1
 742 642 l 1,5,-1
 562 0 l 1,6,-1
 277 0 l 1,7,-1
 22 1082 l 1,8,-1
 345 1082 l 1,9,-1
 452 429 l 1,10,-1
 624 1082 l 1,11,-1
 859 1082 l 1,12,-1
 1029 444 l 1,0,-1
EndSplineSet
Substitution2: "'smcp' Lowercase to Small Capitals lookup 1 subtable" W.c2sc
EndChar

StartChar: x
Encoding: 120 120 92
Width: 1054
GlyphClass: 2
Flags: W
LayerCount: 2
Fore
SplineSet
533 784 m 1,0,-1
 690 1082 l 1,1,-1
 1040 1082 l 1,2,-1
 755 555 l 1,3,-1
 1054 0 l 1,4,-1
 702 0 l 1,5,-1
 532 320 l 1,6,-1
 365 0 l 1,7,-1
 11 0 l 1,8,-1
 311 555 l 1,9,-1
 27 1082 l 1,10,-1
 381 1082 l 1,11,-1
 533 784 l 1,0,-1
EndSplineSet
Substitution2: "'smcp' Lowercase to Small Capitals lookup 1 subtable" X.c2sc
EndChar

StartChar: y
Encoding: 121 121 93
Width: 1061
GlyphClass: 2
Flags: W
LayerCount: 2
Fore
SplineSet
527 472 m 1,0,-1
 707 1082 l 1,1,-1
 1068 1082 l 1,2,-1
 627 -181 l 1,3,-1
 608 -227 l 1,4,5
 514 -437 514 -437 276 -437 c 0,6,7
 210 -437 210 -437 137 -417 c 1,8,-1
 137 -176 l 1,9,-1
 181 -176 l 2,10,11
 252 -176 252 -176 289.5 -155.5 c 128,-1,12
 327 -135 327 -135 345 -82 c 2,13,-1
 372 -10 l 1,14,-1
 -4 1082 l 1,15,-1
 356 1082 l 1,16,-1
 527 472 l 1,0,-1
EndSplineSet
Substitution2: "'smcp' Lowercase to Small Capitals lookup 1 subtable" Y.c2sc
EndChar

StartChar: z
Encoding: 122 122 94
Width: 1054
GlyphClass: 2
Flags: W
LayerCount: 2
Fore
SplineSet
492 260 m 1,0,-1
 985 260 l 1,1,-1
 985 0 l 1,2,-1
 66 0 l 1,3,-1
 66 188 l 1,4,-1
 546 822 l 1,5,-1
 87 822 l 1,6,-1
 87 1082 l 1,7,-1
 974 1082 l 1,8,-1
 974 900 l 1,9,-1
 492 260 l 1,0,-1
EndSplineSet
Substitution2: "'smcp' Lowercase to Small Capitals lookup 1 subtable" Z.c2sc
EndChar

StartChar: braceleft
Encoding: 123 123 95
Width: 665
Flags: W
LayerCount: 2
Fore
SplineSet
562 -360 m 1,0,1
 202 -259 202 -259 202 105 c 2,2,-1
 202 303 l 2,3,4
 202 505 202 505 40 505 c 1,5,-1
 40 732 l 1,6,7
 202 732 202 732 202 935 c 2,8,-1
 202 1145 l 2,9,10
 205 1325 205 1325 295.5 1436 c 128,-1,11
 386 1547 386 1547 562 1597 c 1,12,-1
 625 1421 l 1,13,14
 499 1373 499 1373 494 1152 c 1,15,-1
 494 935 l 2,16,17
 494 711 494 711 309 619 c 1,18,19
 494 527 494 527 494 302 c 2,20,-1
 494 86 l 1,21,22
 499 -135 499 -135 625 -183 c 1,23,-1
 562 -360 l 1,0,1
EndSplineSet
EndChar

StartChar: bar
Encoding: 124 124 96
Width: 523
Flags: W
LayerCount: 2
Fore
SplineSet
356 -270 m 1,0,-1
 172 -270 l 1,1,-1
 172 1456 l 1,2,-1
 356 1456 l 1,3,-1
 356 -270 l 1,0,-1
EndSplineSet
EndChar

StartChar: braceright
Encoding: 125 125 97
Width: 665
Flags: W
LayerCount: 2
Fore
SplineSet
41 -183 m 1,0,1
 167 -135 167 -135 172 86 c 1,2,-1
 172 303 l 2,3,4
 172 528 172 528 358 619 c 1,5,6
 172 710 172 710 172 935 c 2,7,-1
 172 1152 l 1,8,9
 167 1373 167 1373 41 1421 c 1,10,-1
 104 1597 l 1,11,12
 283 1547 283 1547 373 1433.5 c 128,-1,13
 463 1320 463 1320 464 1136 c 2,14,-1
 464 935 l 2,15,16
 464 732 464 732 626 732 c 1,17,-1
 626 505 l 1,18,19
 464 505 464 505 464 304 c 2,20,-1
 464 91 l 1,21,22
 457 -261 457 -261 104 -360 c 1,23,-1
 41 -183 l 1,0,1
EndSplineSet
EndChar

StartChar: asciitilde
Encoding: 126 126 98
Width: 1295
Flags: W
LayerCount: 2
Fore
SplineSet
1197 799 m 1,0,1
 1197 603 1197 603 1105.5 485 c 128,-1,2
 1014 367 1014 367 863 367 c 0,3,4
 788 367 788 367 727.5 396 c 128,-1,5
 667 425 667 425 590.5 500.5 c 128,-1,6
 514 576 514 576 449 576 c 0,7,8
 399 576 399 576 365.5 527 c 128,-1,9
 332 478 332 478 332 405 c 1,10,-1
 94 409 l 1,11,12
 94 605 94 605 183.5 720.5 c 128,-1,13
 273 836 273 836 426 836 c 0,14,15
 502 836 502 836 565 806.5 c 128,-1,16
 628 777 628 777 702.5 702.5 c 128,-1,17
 777 628 777 628 840 628 c 0,18,19
 891 628 891 628 923.5 677.5 c 128,-1,20
 956 727 956 727 956 800 c 1,21,-1
 1197 799 l 1,0,1
EndSplineSet
EndChar

StartChar: exclamdown
Encoding: 161 161 99
Width: 615
Flags: W
LayerCount: 2
Fore
SplineSet
171 623 m 1,0,-1
 444 623 l 1,1,-1
 487 -372 l 1,2,-1
 128 -372 l 1,3,-1
 171 623 l 1,0,-1
497 933 m 256,4,5
 497 859 497 859 443.5 811.5 c 128,-1,6
 390 764 390 764 310 764 c 128,-1,7
 230 764 230 764 176.5 811.5 c 128,-1,8
 123 859 123 859 123 933 c 128,-1,9
 123 1007 123 1007 176.5 1054.5 c 128,-1,10
 230 1102 230 1102 310 1102 c 128,-1,11
 390 1102 390 1102 443.5 1054.5 c 128,-1,12
 497 1007 497 1007 497 933 c 256,4,5
EndSplineSet
EndChar

StartChar: cent
Encoding: 162 162 100
Width: 1209
Flags: W
LayerCount: 2
Fore
SplineSet
598 240 m 0,0,1
 669 240 669 240 708 278.5 c 128,-1,2
 747 317 747 317 746 386 c 1,3,-1
 1062 386 l 1,4,5
 1062 230 1062 230 965 123.5 c 128,-1,6
 868 17 868 17 710 -11 c 1,7,-1
 710 -245 l 1,8,-1
 510 -245 l 1,9,-1
 510 -13 l 1,10,11
 317 15 317 15 207.5 158.5 c 128,-1,12
 98 302 98 302 98 534 c 2,13,-1
 98 552 l 2,14,15
 98 776 98 776 207 921.5 c 128,-1,16
 316 1067 316 1067 510 1095 c 1,17,-1
 510 1318 l 1,18,-1
 710 1318 l 1,19,-1
 710 1093 l 1,20,21
 875 1064 875 1064 968.5 951.5 c 128,-1,22
 1062 839 1062 839 1062 668 c 1,23,-1
 746 668 l 1,24,25
 746 752 746 752 705 797 c 128,-1,26
 664 842 664 842 595 842 c 0,27,28
 464 842 464 842 442 675 c 0,29,30
 435 622 435 622 435 529 c 0,31,32
 435 366 435 366 474 303 c 128,-1,33
 513 240 513 240 598 240 c 0,0,1
EndSplineSet
EndChar

StartChar: sterling
Encoding: 163 163 101
Width: 1229
Flags: W
LayerCount: 2
Fore
SplineSet
621 561 m 1,0,-1
 626 449 l 1,1,2
 626 335 626 335 567 270 c 1,3,-1
 1175 270 l 1,4,-1
 1175 0 l 1,5,-1
 106 0 l 1,6,-1
 106 270 l 1,7,-1
 209 270 l 1,8,9
 266 285 266 285 269 373 c 2,10,-1
 270 426 l 1,11,-1
 265 561 l 1,12,-1
 103 561 l 1,13,-1
 103 822 l 1,14,-1
 257 822 l 1,15,-1
 251 1039 l 1,16,17
 251 1244 251 1244 373.5 1359.5 c 128,-1,18
 496 1475 496 1475 705 1475 c 0,19,20
 929 1475 929 1475 1054.5 1360 c 128,-1,21
 1180 1245 1180 1245 1180 1048 c 1,22,-1
 850 1048 l 1,23,24
 850 1205 850 1205 714 1205 c 0,25,26
 663 1205 663 1205 632 1164.5 c 128,-1,27
 601 1124 601 1124 601 1039 c 2,28,-1
 610 822 l 1,29,-1
 917 822 l 1,30,-1
 917 561 l 1,31,-1
 621 561 l 1,0,-1
EndSplineSet
Substitution2: "'c2sc' +BBoEMAQ/BDgEQgQ1BDsETAAA +BDgENwAA +BD8EQAQ+BD8EOARBBD0ESwRF lookup 0 subtable" sterling.c2sc
Position2: "'cpsp' +BBgEPQRCBDUEQAQyBDAEOwAA +BD8EQAQ+BD8EOARBBD0ESwRF lookup 0 subtable" dx=36 dy=0 dh=72 dv=0
EndChar

StartChar: currency
Encoding: 164 164 102
Width: 1397
Flags: W
LayerCount: 2
Fore
SplineSet
1061 107 m 1,0,1
 902 -20 902 -20 700 -20 c 0,2,3
 497 -20 497 -20 339 106 c 1,4,-1
 210 -26 l 1,5,-1
 69 118 l 1,6,-1
 204 255 l 1,7,8
 104 411 104 411 104 608 c 0,9,10
 104 812 104 812 213 973 c 1,11,-1
 69 1120 l 1,12,-1
 210 1264 l 1,13,-1
 352 1119 l 1,14,15
 507 1234 507 1234 700 1234 c 0,16,17
 894 1234 894 1234 1049 1117 c 1,18,-1
 1193 1265 l 1,19,-1
 1335 1120 l 1,20,-1
 1187 969 l 1,21,22
 1294 810 1294 810 1294 608 c 0,23,24
 1294 415 1294 415 1196 259 c 1,25,-1
 1335 118 l 1,26,-1
 1193 -27 l 1,27,-1
 1061 107 l 1,0,1
290 608 m 0,28,29
 290 490 290 490 344 389.5 c 128,-1,30
 398 289 398 289 493 231 c 128,-1,31
 588 173 588 173 700 173 c 0,32,33
 811 173 811 173 906 231 c 128,-1,34
 1001 289 1001 289 1055 389.5 c 128,-1,35
 1109 490 1109 490 1109 608 c 0,36,37
 1109 727 1109 727 1054.5 827.5 c 128,-1,38
 1000 928 1000 928 905.5 985 c 128,-1,39
 811 1042 811 1042 700 1042 c 0,40,41
 588 1042 588 1042 493.5 985 c 128,-1,42
 399 928 399 928 344.5 827.5 c 128,-1,43
 290 727 290 727 290 608 c 0,28,29
EndSplineSet
EndChar

StartChar: yen
Encoding: 165 165 103
Width: 1108
Flags: W
LayerCount: 2
Fore
SplineSet
554 937 m 1,0,-1
 741 1456 l 1,1,-1
 1098 1456 l 1,2,-1
 792 742 l 1,3,-1
 997 742 l 1,4,-1
 997 552 l 1,5,-1
 725 552 l 1,6,-1
 725 452 l 1,7,-1
 997 452 l 1,8,-1
 997 263 l 1,9,-1
 725 263 l 1,10,-1
 725 0 l 1,11,-1
 375 0 l 1,12,-1
 375 263 l 1,13,-1
 72 263 l 1,14,-1
 72 452 l 1,15,-1
 375 452 l 1,16,-1
 375 552 l 1,17,-1
 72 552 l 1,18,-1
 72 742 l 1,19,-1
 316 742 l 1,20,-1
 9 1456 l 1,21,-1
 367 1456 l 1,22,-1
 554 937 l 1,0,-1
EndSplineSet
Substitution2: "'c2sc' +BBoEMAQ/BDgEQgQ1BDsETAAA +BDgENwAA +BD8EQAQ+BD8EOARBBD0ESwRF lookup 0 subtable" yen.c2sc
Position2: "'cpsp' +BBgEPQRCBDUEQAQyBDAEOwAA +BD8EQAQ+BD8EOARBBD0ESwRF lookup 0 subtable" dx=36 dy=0 dh=72 dv=0
EndChar

StartChar: brokenbar
Encoding: 166 166 104
Width: 524
Flags: W
LayerCount: 2
Fore
SplineSet
119 -270 m 1,0,-1
 119 525 l 1,1,-1
 411 525 l 1,2,-1
 411 -270 l 1,3,-1
 119 -270 l 1,0,-1
411 698 m 1,4,-1
 119 698 l 1,5,-1
 119 1456 l 1,6,-1
 411 1456 l 1,7,-1
 411 698 l 1,4,-1
EndSplineSet
EndChar

StartChar: section
Encoding: 167 167 105
Width: 1301
Flags: W
LayerCount: 2
Fore
SplineSet
1196 500 m 0,0,1
 1196 323 1196 323 1041 232 c 1,2,3
 1179 129 1179 129 1179 -61 c 0,4,5
 1179 -238 1179 -238 1037.5 -337.5 c 128,-1,6
 896 -437 896 -437 648 -437 c 0,7,8
 380 -437 380 -437 237 -330 c 128,-1,9
 94 -223 94 -223 94 -25 c 1,10,-1
 432 -25 l 1,11,12
 432 -100 432 -100 482.5 -138 c 128,-1,13
 533 -176 533 -176 648 -176 c 0,14,15
 841 -176 841 -176 841 -62 c 0,16,17
 841 -4 841 -4 783.5 32 c 128,-1,18
 726 68 726 68 547 118 c 128,-1,19
 368 168 368 168 277 222.5 c 128,-1,20
 186 277 186 277 140 351.5 c 128,-1,21
 94 426 94 426 94 528 c 0,22,23
 94 704 94 704 251 798 c 1,24,25
 110 904 110 904 110 1090 c 0,26,27
 110 1264 110 1264 255 1370 c 128,-1,28
 400 1476 400 1476 644 1476 c 0,29,30
 894 1476 894 1476 1035 1364 c 128,-1,31
 1176 1252 1176 1252 1176 1051 c 1,32,-1
 839 1051 l 1,33,34
 839 1126 839 1126 787.5 1171 c 128,-1,35
 736 1216 736 1216 644 1216 c 0,36,37
 549 1216 549 1216 499 1183 c 128,-1,38
 449 1150 449 1150 449 1092 c 0,39,40
 449 1026 449 1026 505 992 c 128,-1,41
 561 958 561 958 707 920.5 c 128,-1,42
 853 883 853 883 939 846 c 128,-1,43
 1025 809 1025 809 1081.5 760 c 128,-1,44
 1138 711 1138 711 1167 647.5 c 128,-1,45
 1196 584 1196 584 1196 500 c 0,0,1
597 652 m 0,46,47
 535 668 535 668 480 688 c 1,48,49
 431 648 431 648 431 568 c 0,50,51
 431 500 431 500 475.5 464.5 c 128,-1,52
 520 429 520 429 690 376 c 2,53,-1
 808 342 l 1,54,55
 864 386 864 386 864 462 c 0,56,57
 864 524 864 524 809 563.5 c 128,-1,58
 754 603 754 603 597 652 c 0,46,47
EndSplineSet
EndChar

StartChar: dieresis
Encoding: 168 168 106
Width: 1013
Flags: W
LayerCount: 2
Fore
SplineSet
95 1365 m 256,0,1
 95 1420 95 1420 138.5 1459 c 128,-1,2
 182 1498 182 1498 246 1498 c 128,-1,3
 310 1498 310 1498 353.5 1459 c 128,-1,4
 397 1420 397 1420 397 1365 c 128,-1,5
 397 1310 397 1310 353.5 1271 c 128,-1,6
 310 1232 310 1232 246 1232 c 128,-1,7
 182 1232 182 1232 138.5 1271 c 128,-1,8
 95 1310 95 1310 95 1365 c 256,0,1
614 1365 m 256,9,10
 614 1420 614 1420 657.5 1459 c 128,-1,11
 701 1498 701 1498 765 1498 c 128,-1,12
 829 1498 829 1498 872.5 1459 c 128,-1,13
 916 1420 916 1420 916 1365 c 128,-1,14
 916 1310 916 1310 872.5 1271 c 128,-1,15
 829 1232 829 1232 765 1232 c 128,-1,16
 701 1232 701 1232 657.5 1271 c 128,-1,17
 614 1310 614 1310 614 1365 c 256,9,10
EndSplineSet
EndChar

StartChar: copyright
Encoding: 169 169 107
Width: 1608
Flags: W
LayerCount: 2
Fore
SplineSet
1116 596 m 1,0,1
 1116 444 1116 444 1028.5 363 c 128,-1,2
 941 282 941 282 781 282 c 128,-1,3
 621 282 621 282 526.5 388.5 c 128,-1,4
 432 495 432 495 432 675 c 2,5,-1
 432 788 l 2,6,7
 432 962 432 962 527.5 1068.5 c 128,-1,8
 623 1175 623 1175 781 1175 c 0,9,10
 944 1175 944 1175 1030.5 1092.5 c 128,-1,11
 1117 1010 1117 1010 1117 861 c 1,12,-1
 961 861 l 1,13,14
 961 957 961 957 915 998.5 c 128,-1,15
 869 1040 869 1040 781 1040 c 0,16,17
 689 1040 689 1040 638.5 972.5 c 128,-1,18
 588 905 588 905 587 792 c 2,19,-1
 587 669 l 2,20,21
 587 552 587 552 638 484.5 c 128,-1,22
 689 417 689 417 781 417 c 0,23,24
 870 417 870 417 915 457.5 c 128,-1,25
 960 498 960 498 960 596 c 1,26,-1
 1116 596 l 1,0,1
207 729 m 0,27,28
 207 564 207 564 281.5 421 c 128,-1,29
 356 278 356 278 493 191.5 c 128,-1,30
 630 105 630 105 795 105 c 0,31,32
 959 105 959 105 1095.5 191 c 128,-1,33
 1232 277 1232 277 1307 420 c 128,-1,34
 1382 563 1382 563 1382 729 c 128,-1,35
 1382 895 1382 895 1307 1037.5 c 128,-1,36
 1232 1180 1232 1180 1095 1265.5 c 128,-1,37
 958 1351 958 1351 795 1351 c 0,38,39
 636 1351 636 1351 499.5 1269 c 128,-1,40
 363 1187 363 1187 285 1043 c 128,-1,41
 207 899 207 899 207 729 c 0,27,28
85 729 m 0,42,43
 85 931 85 931 178.5 1104 c 128,-1,44
 272 1277 272 1277 437.5 1376.5 c 128,-1,45
 603 1476 603 1476 795 1476 c 128,-1,46
 987 1476 987 1476 1152.5 1376.5 c 128,-1,47
 1318 1277 1318 1277 1411.5 1104 c 128,-1,48
 1505 931 1505 931 1505 729 c 0,49,50
 1505 525 1505 525 1410 351.5 c 128,-1,51
 1315 178 1315 178 1150.5 79 c 128,-1,52
 986 -20 986 -20 795 -20 c 0,53,54
 602 -20 602 -20 437.5 80 c 128,-1,55
 273 180 273 180 179 353 c 128,-1,56
 85 526 85 526 85 729 c 0,42,43
EndSplineSet
EndChar

StartChar: ordfeminine
Encoding: 170 170 108
Width: 904
Flags: W
LayerCount: 2
Fore
SplineSet
600 705 m 1,0,1
 590 732 590 732 583 773 c 1,2,3
 506 691 506 691 382 691 c 0,4,5
 264 691 264 691 198.5 752.5 c 128,-1,6
 133 814 133 814 133 919 c 0,7,8
 133 1029 133 1029 217 1089.5 c 128,-1,9
 301 1150 301 1150 474 1150 c 2,10,-1
 576 1150 l 1,11,-1
 576 1201 l 2,12,13
 576 1328 576 1328 460 1328 c 0,14,15
 395 1328 395 1328 358.5 1302.5 c 128,-1,16
 322 1277 322 1277 322 1229 c 1,17,-1
 149 1243 l 1,18,19
 149 1347 149 1347 236.5 1411.5 c 128,-1,20
 324 1476 324 1476 460 1476 c 0,21,22
 595 1476 595 1476 673 1404 c 128,-1,23
 751 1332 751 1332 751 1199 c 2,24,-1
 751 883 l 2,25,26
 751 786 751 786 777 705 c 1,27,-1
 600 705 l 1,0,1
425 835 m 0,28,29
 465 835 465 835 507 853.5 c 128,-1,30
 549 872 549 872 576 897 c 1,31,-1
 576 1033 l 1,32,-1
 470 1033 l 2,33,34
 394 1032 394 1032 351 1002 c 128,-1,35
 308 972 308 972 308 923 c 0,36,37
 308 835 308 835 425 835 c 0,28,29
EndSplineSet
EndChar

StartChar: logicalnot
Encoding: 172 172 110
Width: 1124
Flags: W
LayerCount: 2
Fore
SplineSet
960 374 m 1,0,-1
 760 374 l 1,1,-1
 760 634 l 1,2,-1
 125 634 l 1,3,-1
 125 805 l 1,4,-1
 960 805 l 1,5,-1
 960 374 l 1,0,-1
EndSplineSet
EndChar

StartChar: registered
Encoding: 174 174 111
Width: 1608
Flags: W
LayerCount: 2
Fore
SplineSet
85 729 m 0,0,1
 85 931 85 931 178.5 1104 c 128,-1,2
 272 1277 272 1277 437.5 1376.5 c 128,-1,3
 603 1476 603 1476 795 1476 c 128,-1,4
 987 1476 987 1476 1152.5 1376.5 c 128,-1,5
 1318 1277 1318 1277 1411.5 1104 c 128,-1,6
 1505 931 1505 931 1505 729 c 0,7,8
 1505 525 1505 525 1410 351.5 c 128,-1,9
 1315 178 1315 178 1150.5 79 c 128,-1,10
 986 -20 986 -20 795 -20 c 0,11,12
 602 -20 602 -20 437.5 80 c 128,-1,13
 273 180 273 180 179 353 c 128,-1,14
 85 526 85 526 85 729 c 0,0,1
207 729 m 0,15,16
 207 564 207 564 281.5 421 c 128,-1,17
 356 278 356 278 493 191.5 c 128,-1,18
 630 105 630 105 795 105 c 0,19,20
 959 105 959 105 1095.5 191 c 128,-1,21
 1232 277 1232 277 1307 420 c 128,-1,22
 1382 563 1382 563 1382 729 c 128,-1,23
 1382 895 1382 895 1307 1037.5 c 128,-1,24
 1232 1180 1232 1180 1095 1265.5 c 128,-1,25
 958 1351 958 1351 795 1351 c 0,26,27
 636 1351 636 1351 499.5 1269 c 128,-1,28
 363 1187 363 1187 285 1043 c 128,-1,29
 207 899 207 899 207 729 c 0,15,16
651 653 m 1,30,-1
 651 316 l 1,31,-1
 500 316 l 1,32,-1
 500 1166 l 1,33,-1
 781 1166 l 2,34,35
 935 1166 935 1166 1020.5 1096 c 128,-1,36
 1106 1026 1106 1026 1106 902 c 0,37,38
 1106 792 1106 792 999 732 c 1,39,40
 1057 700 1057 700 1080 644 c 128,-1,41
 1103 588 1103 588 1103 505.5 c 128,-1,42
 1103 423 1103 423 1106.5 389 c 128,-1,43
 1110 355 1110 355 1120 332 c 1,44,-1
 1120 316 l 1,45,-1
 965 316 l 1,46,47
 952 350 952 350 952 510 c 0,48,49
 952 586 952 586 919 619.5 c 128,-1,50
 886 653 886 653 809 653 c 2,51,-1
 651 653 l 1,30,-1
651 787 m 1,52,-1
 779 787 l 2,53,54
 855 787 855 787 905.5 818.5 c 128,-1,55
 956 850 956 850 956 903 c 0,56,57
 956 973 956 973 920.5 1002.5 c 128,-1,58
 885 1032 885 1032 792 1033 c 2,59,-1
 651 1033 l 1,60,-1
 651 787 l 1,52,-1
EndSplineSet
EndChar

StartChar: macron
Encoding: 175 175 112
Width: 1065
Flags: W
LayerCount: 2
Fore
SplineSet
875 1285 m 1,0,-1
 181 1285 l 1,1,-1
 181 1458 l 1,2,-1
 875 1458 l 1,3,-1
 875 1285 l 1,0,-1
EndSplineSet
EndChar

StartChar: degree
Encoding: 176 176 113
Width: 813
Flags: W
LayerCount: 2
Fore
SplineSet
125 1195 m 0,0,1
 125 1312 125 1312 208.5 1394 c 128,-1,2
 292 1476 292 1476 406 1476 c 0,3,4
 518 1476 518 1476 599.5 1394 c 128,-1,5
 681 1312 681 1312 681 1195 c 0,6,7
 681 1079 681 1079 600.5 998.5 c 128,-1,8
 520 918 520 918 406 918 c 0,9,10
 290 918 290 918 207.5 998.5 c 128,-1,11
 125 1079 125 1079 125 1195 c 0,0,1
406 1071 m 0,12,13
 459 1071 459 1071 493 1107 c 128,-1,14
 527 1143 527 1143 527 1195 c 128,-1,15
 527 1247 527 1247 493 1285 c 128,-1,16
 459 1323 459 1323 406 1323 c 128,-1,17
 353 1323 353 1323 316.5 1285.5 c 128,-1,18
 280 1248 280 1248 280 1195 c 128,-1,19
 280 1142 280 1142 317.5 1106.5 c 128,-1,20
 355 1071 355 1071 406 1071 c 0,12,13
EndSplineSet
EndChar

StartChar: plusminus
Encoding: 177 177 114
Width: 1102
Flags: W
LayerCount: 2
Fore
SplineSet
688 974 m 1,0,-1
 1000 974 l 1,1,-1
 1000 703 l 1,2,-1
 688 703 l 1,3,-1
 688 355 l 1,4,-1
 394 355 l 1,5,-1
 394 703 l 1,6,-1
 84 703 l 1,7,-1
 84 974 l 1,8,-1
 394 974 l 1,9,-1
 394 1293 l 1,10,-1
 688 1293 l 1,11,-1
 688 974 l 1,0,-1
979 1 m 1,12,-1
 101 1 l 1,13,-1
 101 265 l 1,14,-1
 979 265 l 1,15,-1
 979 1 l 1,12,-1
EndSplineSet
EndChar

StartChar: uni00B2
Encoding: 178 178 115
Width: 768
Flags: W
LayerCount: 2
Fore
SplineSet
697 667 m 1,0,-1
 69 667 l 1,1,-1
 69 814 l 1,2,-1
 355 1067 l 2,3,4
 405 1111 405 1111 429.5 1153.5 c 128,-1,5
 454 1196 454 1196 454 1216 c 0,6,7
 454 1292 454 1292 369 1292 c 0,8,9
 326 1292 326 1292 301 1262 c 128,-1,10
 276 1232 276 1232 276 1189 c 1,11,-1
 51 1189 l 1,12,13
 51 1307 51 1307 136.5 1387.5 c 128,-1,14
 222 1468 222 1468 358 1468 c 0,15,16
 512 1468 512 1468 595 1403 c 128,-1,17
 678 1338 678 1338 678 1216 c 0,18,19
 678 1141 678 1141 635.5 1078.5 c 128,-1,20
 593 1016 593 1016 448 910 c 1,21,-1
 367 842 l 1,22,-1
 697 842 l 1,23,-1
 697 667 l 1,0,-1
EndSplineSet
EndChar

StartChar: uni00B3
Encoding: 179 179 116
Width: 768
Flags: W
LayerCount: 2
Fore
SplineSet
277 1141 m 1,0,-1
 365 1141 l 2,1,2
 466 1141 466 1141 466 1223 c 0,3,4
 466 1255 466 1255 440.5 1273.5 c 128,-1,5
 415 1292 415 1292 370 1292 c 0,6,7
 335 1292 335 1292 308 1279 c 128,-1,8
 281 1266 281 1266 281 1241 c 1,9,-1
 57 1241 l 1,10,11
 57 1343 57 1343 142 1405.5 c 128,-1,12
 227 1468 227 1468 363 1468 c 0,13,14
 517 1468 517 1468 603.5 1406.5 c 128,-1,15
 690 1345 690 1345 690 1241 c 0,16,17
 690 1121 690 1121 552 1072 c 1,18,19
 706 1031 706 1031 706 889 c 0,20,21
 706 785 706 785 612 720.5 c 128,-1,22
 518 656 518 656 363 656 c 0,23,24
 218 656 218 656 129.5 725 c 128,-1,25
 41 794 41 794 41 908 c 1,26,-1
 268 908 l 1,27,28
 268 879 268 879 297.5 855.5 c 128,-1,29
 327 832 327 832 379 832 c 0,30,31
 435 832 435 832 457.5 857 c 128,-1,32
 480 882 480 882 480 913 c 0,33,34
 480 998 480 998 371 999 c 2,35,-1
 277 999 l 1,36,-1
 277 1141 l 1,0,-1
EndSplineSet
EndChar

StartChar: acute
Encoding: 180 180 117
Width: 691
Flags: W
LayerCount: 2
Fore
SplineSet
287 1536 m 1,0,-1
 643 1536 l 1,1,-1
 365 1222 l 1,2,-1
 90 1222 l 1,3,-1
 287 1536 l 1,0,-1
EndSplineSet
EndChar

StartChar: mu
Encoding: 181 181 118
Width: 1313
Flags: W
LayerCount: 2
Fore
SplineSet
470 1082 m 1,0,-1
 470 450 l 2,1,2
 471 343 471 343 506.5 293 c 128,-1,3
 542 243 542 243 633 243 c 0,4,5
 761 243 761 243 814 334 c 1,6,-1
 814 1082 l 1,7,-1
 1151 1082 l 1,8,-1
 1151 0 l 1,9,-1
 834 0 l 1,10,-1
 829 53 l 1,11,12
 740 -21 740 -21 619 -21 c 0,13,14
 534 -21 534 -21 470 13 c 1,15,-1
 470 -416 l 1,16,-1
 132 -416 l 1,17,-1
 132 1082 l 1,18,-1
 470 1082 l 1,0,-1
EndSplineSet
EndChar

StartChar: paragraph
Encoding: 182 182 119
Width: 1001
Flags: W
LayerCount: 2
Fore
SplineSet
657 0 m 1,0,-1
 657 520 l 1,1,-1
 577 520 l 2,2,3
 347 520 347 520 214.5 647 c 128,-1,4
 82 774 82 774 82 988 c 0,5,6
 82 1201 82 1201 215 1328.5 c 128,-1,7
 348 1456 348 1456 578 1456 c 2,8,-1
 886 1456 l 1,9,-1
 886 0 l 1,10,-1
 657 0 l 1,0,-1
EndSplineSet
EndChar

StartChar: periodcentered
Encoding: 183 183 120
Width: 657
Flags: W
LayerCount: 2
Fore
SplineSet
324 854 m 0,0,1
 405 854 405 854 457.5 806 c 128,-1,2
 510 758 510 758 510 685 c 128,-1,3
 510 612 510 612 457.5 564 c 128,-1,4
 405 516 405 516 324 516 c 0,5,6
 244 516 244 516 191 563.5 c 128,-1,7
 138 611 138 611 138 685 c 128,-1,8
 138 759 138 759 191 806.5 c 128,-1,9
 244 854 244 854 324 854 c 0,0,1
EndSplineSet
EndChar

StartChar: cedilla
Encoding: 184 184 121
Width: 569
GlyphClass: 2
Flags: W
LayerCount: 2
Fore
SplineSet
373 10 m 1,0,-1
 363 -51 l 1,1,2
 513 -79 513 -79 513 -224 c 0,3,4
 513 -340 513 -340 414 -406 c 128,-1,5
 315 -472 315 -472 139 -472 c 1,6,-1
 132 -286 l 1,7,8
 220 -286 220 -286 220 -209 c 0,9,10
 220 -171 220 -171 188.5 -156 c 128,-1,11
 157 -141 157 -141 86 -136 c 1,12,-1
 117 10 l 1,13,-1
 373 10 l 1,0,-1
EndSplineSet
EndChar

StartChar: uni00B9
Encoding: 185 185 122
Width: 768
Flags: W
LayerCount: 2
Fore
SplineSet
542 667 m 1,0,-1
 319 667 l 1,1,-1
 319 1200 l 1,2,-1
 143 1164 l 1,3,-1
 143 1331 l 1,4,-1
 523 1453 l 1,5,-1
 542 1453 l 1,6,-1
 542 667 l 1,0,-1
EndSplineSet
EndChar

StartChar: ordmasculine
Encoding: 186 186 123
Width: 938
Flags: W
LayerCount: 2
Fore
SplineSet
117 1121 m 2,0,1
 117 1281 117 1281 212.5 1378.5 c 128,-1,2
 308 1476 308 1476 463 1476 c 128,-1,3
 618 1476 618 1476 714 1379 c 128,-1,4
 810 1282 810 1282 810 1116 c 2,5,-1
 810 1044 l 2,6,7
 810 885 810 885 716 787.5 c 128,-1,8
 622 690 622 690 465 690 c 0,9,10
 307 690 307 690 212 788 c 128,-1,11
 117 886 117 886 117 1049 c 2,12,-1
 117 1121 l 2,0,1
292 1044 m 2,13,14
 292 946 292 946 338.5 891 c 128,-1,15
 385 836 385 836 465 836 c 0,16,17
 543 836 543 836 588.5 890 c 128,-1,18
 634 944 634 944 635 1041 c 2,19,-1
 635 1121 l 2,20,21
 635 1218 635 1218 588.5 1273 c 128,-1,22
 542 1328 542 1328 463 1328 c 0,23,24
 385 1328 385 1328 338.5 1273.5 c 128,-1,25
 292 1219 292 1219 292 1117 c 2,26,-1
 292 1044 l 2,13,14
EndSplineSet
EndChar

StartChar: questiondown
Encoding: 191 191 128
Width: 1043
Flags: W
LayerCount: 2
Fore
SplineSet
703 630 m 1,0,1
 703 480 703 480 672.5 399.5 c 128,-1,2
 642 319 642 319 570 258 c 1,3,-1
 504 197 l 2,4,5
 411 107 411 107 411 11 c 0,6,7
 411 -60 411 -60 444.5 -92.5 c 128,-1,8
 478 -125 478 -125 531 -125 c 0,9,10
 598 -125 598 -125 635.5 -82.5 c 128,-1,11
 673 -40 673 -40 675 38 c 1,12,-1
 1014 38 l 1,13,14
 1010 -163 1010 -163 886.5 -274 c 128,-1,15
 763 -385 763 -385 539 -385 c 0,16,17
 316 -385 316 -385 194.5 -281.5 c 128,-1,18
 73 -178 73 -178 73 11 c 0,19,20
 73 94 73 94 111 167.5 c 128,-1,21
 149 241 149 241 241 327 c 2,22,-1
 326 405 l 2,23,24
 403 471 403 471 412 558 c 2,25,-1
 417 630 l 1,26,-1
 703 630 l 1,0,1
569 765 m 0,27,28
 489 765 489 765 435.5 812.5 c 128,-1,29
 382 860 382 860 382 934 c 128,-1,30
 382 1008 382 1008 435.5 1055.5 c 128,-1,31
 489 1103 489 1103 569 1103 c 0,32,33
 651 1103 651 1103 703.5 1054.5 c 128,-1,34
 756 1006 756 1006 756 934 c 128,-1,35
 756 862 756 862 703.5 813.5 c 128,-1,36
 651 765 651 765 569 765 c 0,27,28
EndSplineSet
EndChar

StartChar: AE
Encoding: 198 198 129
Width: 1926
GlyphClass: 2
Flags: W
LayerCount: 2
Fore
SplineSet
1851 0 m 1,0,-1
 954 0 l 1,1,-1
 940 329 l 1,2,-1
 558 329 l 1,3,-1
 406 0 l 1,4,-1
 16 0 l 1,5,-1
 751 1456 l 1,6,-1
 1790 1456 l 1,7,-1
 1790 1192 l 1,8,-1
 1241 1192 l 1,9,-1
 1254 876 l 1,10,-1
 1709 876 l 1,11,-1
 1709 612 l 1,12,-1
 1265 612 l 1,13,-1
 1280 264 l 1,14,-1
 1851 264 l 1,15,-1
 1851 0 l 1,0,-1
683 599 m 1,16,-1
 929 599 l 1,17,-1
 908 1085 l 1,18,-1
 683 599 l 1,16,-1
EndSplineSet
Substitution2: "'c2sc' +BBoEMAQ/BDgEQgQ1BDsETAAA +BDgENwAA +BD8EQAQ+BD8EOARBBD0ESwRF lookup 0 subtable" AE.c2sc
Position2: "'cpsp' +BBgEPQRCBDUEQAQyBDAEOwAA +BD8EQAQ+BD8EOARBBD0ESwRF lookup 0 subtable" dx=36 dy=0 dh=72 dv=0
EndChar

StartChar: multiply
Encoding: 215 215 130
Width: 1083
Flags: W
LayerCount: 2
Fore
SplineSet
53 381 m 1,0,-1
 352 686 l 1,1,-1
 53 992 l 1,2,-1
 246 1175 l 1,3,-1
 539 876 l 1,4,-1
 832 1175 l 1,5,-1
 1025 992 l 1,6,-1
 725 686 l 1,7,-1
 1025 381 l 1,8,-1
 832 198 l 1,9,-1
 539 496 l 1,10,-1
 246 198 l 1,11,-1
 53 381 l 1,0,-1
EndSplineSet
EndChar

StartChar: Oslash
Encoding: 216 216 131
Width: 1409
GlyphClass: 2
Flags: W
LayerCount: 2
Fore
SplineSet
1354 698 m 2,0,1
 1354 485 1354 485 1275 321 c 128,-1,2
 1196 157 1196 157 1050.5 68.5 c 128,-1,3
 905 -20 905 -20 719 -20 c 0,4,5
 557 -20 557 -20 427 45 c 1,6,-1
 346 -95 l 1,7,-1
 139 -95 l 1,8,-1
 280 150 l 1,9,10
 81 349 81 349 81 706 c 2,11,-1
 81 757 l 2,12,13
 81 972 81 972 159.5 1135 c 128,-1,14
 238 1298 238 1298 383.5 1387 c 128,-1,15
 529 1476 529 1476 717 1476 c 0,16,17
 874 1476 874 1476 1004 1412 c 1,18,-1
 1065 1518 l 1,19,-1
 1273 1518 l 1,20,-1
 1152 1307 l 1,21,22
 1354 1107 1354 1107 1354 749 c 2,23,-1
 1354 698 l 2,0,1
997 759 m 2,24,25
 997 892 997 892 968 988 c 1,26,-1
 572 299 l 1,27,28
 632 254 632 254 719 254 c 0,29,30
 853 254 853 254 924.5 367 c 128,-1,31
 996 480 996 480 997 692 c 2,32,-1
 997 759 l 2,24,25
437 698 m 2,33,34
 437 565 437 565 464 471 c 1,35,-1
 858 1158 l 1,36,37
 798 1201 798 1201 717 1201 c 0,38,39
 578 1201 578 1201 508 1090 c 128,-1,40
 438 979 438 979 437 765 c 2,41,-1
 437 698 l 2,33,34
EndSplineSet
Substitution2: "'c2sc' +BBoEMAQ/BDgEQgQ1BDsETAAA +BDgENwAA +BD8EQAQ+BD8EOARBBD0ESwRF lookup 0 subtable" Oslash.c2sc
Position2: "'cpsp' +BBgEPQRCBDUEQAQyBDAEOwAA +BD8EQAQ+BD8EOARBBD0ESwRF lookup 0 subtable" dx=36 dy=0 dh=72 dv=0
EndChar

StartChar: Thorn
Encoding: 222 222 132
Width: 1266
Flags: W
LayerCount: 2
Fore
SplineSet
455 1456 m 1,0,-1
 455 1198 l 1,1,-1
 660 1198 l 2,2,3
 831 1197 831 1197 956.5 1140 c 128,-1,4
 1082 1083 1082 1083 1148 979 c 128,-1,5
 1214 875 1214 875 1214 738 c 0,6,7
 1214 529 1214 529 1065.5 404.5 c 128,-1,8
 917 280 917 280 660 278 c 2,9,-1
 455 278 l 1,10,-1
 455 0 l 1,11,-1
 116 0 l 1,12,-1
 116 1456 l 1,13,-1
 455 1456 l 1,0,-1
455 938 m 1,14,-1
 455 538 l 1,15,-1
 653 538 l 2,16,17
 756 538 756 538 815.5 590 c 128,-1,18
 875 642 875 642 875 736 c 0,19,20
 875 831 875 831 816 884.5 c 128,-1,21
 757 938 757 938 655 938 c 2,22,-1
 455 938 l 1,14,-1
EndSplineSet
Substitution2: "'c2sc' +BBoEMAQ/BDgEQgQ1BDsETAAA +BDgENwAA +BD8EQAQ+BD8EOARBBD0ESwRF lookup 0 subtable" Thorn.c2sc
Position2: "'cpsp' +BBgEPQRCBDUEQAQyBDAEOwAA +BD8EQAQ+BD8EOARBBD0ESwRF lookup 0 subtable" dx=36 dy=0 dh=72 dv=0
EndChar

StartChar: germandbls
Encoding: 223 223 133
Width: 1330
Flags: W
LayerCount: 2
Fore
SplineSet
472 0 m 1,0,-1
 134 0 l 1,1,-1
 134 1099 l 2,2,3
 134 1320 134 1320 267.5 1440.5 c 128,-1,4
 401 1561 401 1561 648 1561 c 0,5,6
 844 1561 844 1561 967 1457 c 128,-1,7
 1090 1353 1090 1353 1090 1181 c 0,8,9
 1090 1074 1090 1074 1042.5 998 c 128,-1,10
 995 922 995 922 995 835 c 0,11,12
 995 804 995 804 1019.5 771 c 128,-1,13
 1044 738 1044 738 1128 656 c 0,14,15
 1271 517 1271 517 1271 368 c 0,16,17
 1271 181 1271 181 1146.5 80.5 c 128,-1,18
 1022 -20 1022 -20 794 -20 c 0,19,20
 719 -20 719 -20 643.5 -6.5 c 128,-1,21
 568 7 568 7 526 31 c 1,22,-1
 585 284 l 1,23,24
 670 240 670 240 796 240 c 0,25,26
 856 240 856 240 895.5 272.5 c 128,-1,27
 935 305 935 305 935 365 c 0,28,29
 935 406 935 406 910 442 c 128,-1,30
 885 478 885 478 805 547 c 128,-1,31
 725 616 725 616 691.5 679.5 c 128,-1,32
 658 743 658 743 658 817 c 0,33,34
 658 920 658 920 705 1004 c 128,-1,35
 752 1088 752 1088 752 1167 c 0,36,37
 752 1226 752 1226 712 1264 c 128,-1,38
 672 1302 672 1302 611 1302 c 0,39,40
 537 1302 537 1302 504.5 1250 c 128,-1,41
 472 1198 472 1198 472 1094 c 2,42,-1
 472 0 l 1,0,-1
EndSplineSet
Substitution2: "'smcp' Lowercase to Small Capitals lookup 1 subtable" germandbls.sc
EndChar

StartChar: ae
Encoding: 230 230 134
Width: 1730
GlyphClass: 2
Flags: W
LayerCount: 2
Fore
SplineSet
1238 -20 m 0,0,1
 998 -20 998 -20 858 114 c 1,2,3
 792 48 792 48 694 14 c 128,-1,4
 596 -20 596 -20 484 -20 c 0,5,6
 285 -20 285 -20 173 71.5 c 128,-1,7
 61 163 61 163 61 324 c 0,8,9
 61 482 61 482 190.5 568 c 128,-1,10
 320 654 320 654 575 655 c 2,11,-1
 717 655 l 1,12,-1
 717 701 l 2,13,14
 717 767 717 767 683 804.5 c 128,-1,15
 649 842 649 842 584 842 c 0,16,17
 512 842 512 842 474 812.5 c 128,-1,18
 436 783 436 783 436 740 c 1,19,-1
 99 759 l 1,20,21
 99 910 99 910 233 1006 c 128,-1,22
 367 1102 367 1102 588 1102 c 0,23,24
 790 1102 790 1102 907 1011 c 1,25,26
 1033 1104 1033 1104 1227 1102 c 0,27,28
 1439 1102 1439 1102 1562 969 c 128,-1,29
 1685 836 1685 836 1685 609 c 2,30,-1
 1685 435 l 1,31,-1
 1046 435 l 1,32,33
 1060 337 1060 337 1121 288.5 c 128,-1,34
 1182 240 1182 240 1284 240 c 0,35,36
 1410 240 1410 240 1507 280 c 2,37,-1
 1569 307 l 1,38,-1
 1650 101 l 1,39,40
 1583 49 1583 49 1468.5 14.5 c 128,-1,41
 1354 -20 1354 -20 1238 -20 c 0,0,1
548 212 m 0,42,43
 637 212 637 212 717 275 c 1,44,-1
 717 451 l 1,45,-1
 578 451 l 2,46,47
 500 450 500 450 449 414 c 128,-1,48
 398 378 398 378 398 320 c 0,49,50
 398 212 398 212 548 212 c 0,42,43
1227 842 m 0,51,52
 1145 842 1145 842 1101.5 793.5 c 128,-1,53
 1058 745 1058 745 1047 646 c 1,54,-1
 1356 646 l 1,55,-1
 1356 672 l 2,56,57
 1356 753 1356 753 1323 797.5 c 128,-1,58
 1290 842 1290 842 1227 842 c 0,51,52
EndSplineSet
Substitution2: "'smcp' Lowercase to Small Capitals lookup 1 subtable" AE.c2sc
EndChar

StartChar: eth
Encoding: 240 240 135
Width: 1165
Flags: W
LayerCount: 2
Fore
SplineSet
862 1308 m 1,0,1
 1123 1049 1123 1049 1123 650 c 2,2,-1
 1123 593 l 2,3,4
 1123 416 1123 416 1052.5 274.5 c 128,-1,5
 982 133 982 133 858 56.5 c 128,-1,6
 734 -20 734 -20 581 -20 c 0,7,8
 433 -20 433 -20 314 43.5 c 128,-1,9
 195 107 195 107 129.5 219.5 c 128,-1,10
 64 332 64 332 64 468 c 0,11,12
 64 701 64 701 184 831 c 128,-1,13
 304 961 304 961 518 961 c 0,14,15
 645 961 645 961 746 899 c 1,16,17
 697 1038 697 1038 590 1140 c 1,18,-1
 412 1030 l 1,19,-1
 334 1148 l 1,20,-1
 470 1232 l 1,21,22
 362 1298 362 1298 226 1335 c 1,23,-1
 334 1579 l 1,24,25
 570 1531 570 1531 749 1403 c 1,26,-1
 912 1504 l 1,27,-1
 989 1386 l 1,28,-1
 862 1308 l 1,0,1
585 240 m 0,29,30
 679 240 679 240 732 322.5 c 128,-1,31
 785 405 785 405 785 557 c 2,32,-1
 785 654 l 1,33,34
 719 720 719 720 591 720 c 0,35,36
 493 720 493 720 447.5 652.5 c 128,-1,37
 402 585 402 585 402 468 c 0,38,39
 402 366 402 366 452 303 c 128,-1,40
 502 240 502 240 585 240 c 0,29,30
EndSplineSet
Substitution2: "'smcp' Lowercase to Small Capitals lookup 1 subtable" Eth.c2sc
EndChar

StartChar: divide
Encoding: 247 247 136
Width: 1166
Flags: W
LayerCount: 2
Fore
SplineSet
1103 563 m 1,0,-1
 59 563 l 1,1,-1
 59 807 l 1,2,-1
 1103 807 l 1,3,-1
 1103 563 l 1,0,-1
394 1086 m 256,4,5
 394 1157 394 1157 445 1203.5 c 128,-1,6
 496 1250 496 1250 580 1250 c 128,-1,7
 664 1250 664 1250 715 1203.5 c 128,-1,8
 766 1157 766 1157 766 1086 c 128,-1,9
 766 1015 766 1015 715 968.5 c 128,-1,10
 664 922 664 922 580 922 c 128,-1,11
 496 922 496 922 445 968.5 c 128,-1,12
 394 1015 394 1015 394 1086 c 256,4,5
394 277 m 256,13,14
 394 348 394 348 445 394.5 c 128,-1,15
 496 441 496 441 580 441 c 128,-1,16
 664 441 664 441 715 394.5 c 128,-1,17
 766 348 766 348 766 277 c 128,-1,18
 766 206 766 206 715 159.5 c 128,-1,19
 664 113 664 113 580 113 c 128,-1,20
 496 113 496 113 445 159.5 c 128,-1,21
 394 206 394 206 394 277 c 256,13,14
EndSplineSet
EndChar

StartChar: oslash
Encoding: 248 248 137
Width: 1151
GlyphClass: 2
Flags: W
LayerCount: 2
Fore
SplineSet
52 551 m 0,0,1
 52 713 52 713 115 839.5 c 128,-1,2
 178 966 178 966 296 1034 c 128,-1,3
 414 1102 414 1102 573 1102 c 0,4,5
 667 1102 667 1102 750 1077 c 1,6,-1
 819 1219 l 1,7,-1
 996 1219 l 1,8,-1
 893 1007 l 1,9,10
 1096 859 1096 859 1096 530 c 0,11,12
 1096 277 1096 277 955.5 128.5 c 128,-1,13
 815 -20 815 -20 575 -20 c 0,14,15
 482 -20 482 -20 404 2 c 1,16,-1
 333 -145 l 1,17,-1
 156 -145 l 1,18,-1
 260 70 l 1,19,20
 52 217 52 217 52 551 c 0,0,1
389 530 m 2,21,22
 389 434 389 434 407 373 c 1,23,-1
 631 833 l 1,24,25
 605 842 605 842 573 842 c 0,26,27
 404 842 404 842 390 591 c 1,28,-1
 389 530 l 2,21,22
759 551 m 2,29,30
 759 636 759 636 742 698 c 1,31,-1
 523 246 l 1,32,33
 545 240 545 240 575 240 c 0,34,35
 755 240 755 240 759 517 c 1,36,-1
 759 551 l 2,29,30
EndSplineSet
Substitution2: "'smcp' Lowercase to Small Capitals lookup 1 subtable" Oslash.c2sc
EndChar

StartChar: thorn
Encoding: 254 254 138
Width: 1148
Flags: W
LayerCount: 2
Fore
SplineSet
1096 533 m 2,0,1
 1096 282 1096 282 983.5 131 c 128,-1,2
 871 -20 871 -20 677 -20 c 0,3,4
 527 -20 527 -20 433 87 c 1,5,-1
 433 -416 l 1,6,-1
 95 -416 l 1,7,-1
 95 1536 l 1,8,-1
 433 1536 l 1,9,-1
 433 997 l 1,10,11
 527 1102 527 1102 675 1102 c 0,12,13
 872 1102 872 1102 984 956.5 c 128,-1,14
 1096 811 1096 811 1096 550 c 2,15,-1
 1096 533 l 2,0,1
759 554 m 2,16,17
 759 842 759 842 591 842 c 0,18,19
 475 842 475 842 433 758 c 1,20,-1
 433 327 l 1,21,22
 476 240 476 240 593 240 c 0,23,24
 754 240 754 240 759 516 c 1,25,-1
 759 554 l 2,16,17
EndSplineSet
Substitution2: "'smcp' Lowercase to Small Capitals lookup 1 subtable" Thorn.c2sc
EndChar

StartChar: dcroat
Encoding: 273 273 139
Width: 1321
GlyphClass: 2
Flags: W
LayerCount: 2
Fore
SplineSet
1195 1215 m 1,0,-1
 1055 1215 l 1,1,-1
 1055 0 l 1,2,-1
 752 0 l 1,3,-1
 735 116 l 1,4,5
 631 -20 631 -20 471 -20 c 0,6,7
 278 -20 278 -20 165 128 c 128,-1,8
 52 276 52 276 52 549 c 0,9,10
 52 806 52 806 163 954 c 128,-1,11
 274 1102 274 1102 473 1102 c 0,12,13
 618 1102 618 1102 717 988 c 1,14,-1
 717 1215 l 1,15,-1
 465 1215 l 1,16,-1
 465 1406 l 1,17,-1
 717 1406 l 1,18,-1
 717 1536 l 1,19,-1
 1055 1536 l 1,20,-1
 1055 1406 l 1,21,-1
 1195 1406 l 1,22,-1
 1195 1215 l 1,0,-1
389 528 m 1,23,24
 389 240 389 240 557 240 c 0,25,26
 669 240 669 240 717 334 c 1,27,-1
 717 746 l 1,28,29
 671 842 671 842 559 842 c 0,30,31
 403 842 403 842 390 590 c 1,32,-1
 389 528 l 1,23,24
EndSplineSet
Substitution2: "'smcp' Lowercase to Small Capitals lookup 1 subtable" Dcroat.c2sc
EndChar

StartChar: Hbar
Encoding: 294 294 140
Width: 1492
GlyphClass: 2
Flags: W
LayerCount: 2
Fore
SplineSet
1352 1243 m 1,0,-1
 1469 1243 l 1,1,-1
 1469 1060 l 1,2,-1
 1352 1060 l 1,3,-1
 1352 0 l 1,4,-1
 1003 0 l 1,5,-1
 1003 608 l 1,6,-1
 486 608 l 1,7,-1
 486 0 l 1,8,-1
 135 0 l 1,9,-1
 135 1060 l 1,10,-1
 33 1060 l 1,11,-1
 33 1243 l 1,12,-1
 135 1243 l 1,13,-1
 135 1456 l 1,14,-1
 486 1456 l 1,15,-1
 486 1243 l 1,16,-1
 1003 1243 l 1,17,-1
 1003 1456 l 1,18,-1
 1352 1456 l 1,19,-1
 1352 1243 l 1,0,-1
486 878 m 1,20,-1
 1003 878 l 1,21,-1
 1003 1060 l 1,22,-1
 486 1060 l 1,23,-1
 486 878 l 1,20,-1
EndSplineSet
Substitution2: "'c2sc' +BBoEMAQ/BDgEQgQ1BDsETAAA +BDgENwAA +BD8EQAQ+BD8EOARBBD0ESwRF lookup 0 subtable" Hbar.c2sc
Position2: "'cpsp' +BBgEPQRCBDUEQAQyBDAEOwAA +BD8EQAQ+BD8EOARBBD0ESwRF lookup 0 subtable" dx=36 dy=0 dh=72 dv=0
EndChar

StartChar: dotlessi
Encoding: 305 305 141
Width: 584
GlyphClass: 2
Flags: W
LayerCount: 2
Fore
SplineSet
462 0 m 1,0,-1
 123 0 l 1,1,-1
 123 1082 l 1,2,-1
 462 1082 l 1,3,-1
 462 0 l 1,0,-1
EndSplineSet
Substitution2: "'smcp' Lowercase to Small Capitals lookup 1 subtable" I.c2sc
EndChar

StartChar: kgreenlandic
Encoding: 312 312 142
Width: 1242
GlyphClass: 2
Flags: W
LayerCount: 2
Fore
SplineSet
575 378 m 1,0,-1
 455 378 l 1,1,-1
 455 0 l 1,2,-1
 118 0 l 1,3,-1
 118 1082 l 1,4,-1
 455 1082 l 1,5,-1
 455 693 l 1,6,-1
 545 693 l 1,7,-1
 770 1082 l 1,8,-1
 1202 1082 l 1,9,-1
 860 576 l 1,10,-1
 1210 0 l 1,11,-1
 776 0 l 1,12,-1
 575 378 l 1,0,-1
EndSplineSet
EndChar

StartChar: Lslash
Encoding: 321 321 143
Width: 1160
GlyphClass: 2
Flags: W
LayerCount: 2
Fore
SplineSet
512 914 m 1,0,-1
 706 967 l 1,1,-1
 706 789 l 1,2,-1
 512 736 l 1,3,-1
 512 270 l 1,4,-1
 1123 270 l 1,5,-1
 1123 0 l 1,6,-1
 161 0 l 1,7,-1
 161 639 l 1,8,-1
 25 602 l 1,9,-1
 25 780 l 1,10,-1
 161 817 l 1,11,-1
 161 1456 l 1,12,-1
 512 1456 l 1,13,-1
 512 914 l 1,0,-1
EndSplineSet
Substitution2: "'c2sc' +BBoEMAQ/BDgEQgQ1BDsETAAA +BDgENwAA +BD8EQAQ+BD8EOARBBD0ESwRF lookup 0 subtable" Lslash.c2sc
Position2: "'cpsp' +BBgEPQRCBDUEQAQyBDAEOwAA +BD8EQAQ+BD8EOARBBD0ESwRF lookup 0 subtable" dx=36 dy=0 dh=72 dv=0
EndChar

StartChar: lslash
Encoding: 322 322 144
Width: 662
GlyphClass: 2
Flags: W
LayerCount: 2
Fore
SplineSet
494 925 m 1,0,-1
 629 967 l 1,1,-1
 629 787 l 1,2,-1
 494 745 l 1,3,-1
 494 0 l 1,4,-1
 156 0 l 1,5,-1
 156 640 l 1,6,-1
 26 600 l 1,7,-1
 26 780 l 1,8,-1
 156 820 l 1,9,-1
 156 1536 l 1,10,-1
 494 1536 l 1,11,-1
 494 925 l 1,0,-1
EndSplineSet
Substitution2: "'smcp' Lowercase to Small Capitals lookup 1 subtable" Lslash.c2sc
EndChar

StartChar: Eng
Encoding: 330 330 145
Width: 1453
GlyphClass: 2
Flags: W
LayerCount: 2
Fore
SplineSet
1337 1456 m 1,0,-1
 1337 -4 l 2,1,2
 1337 -213 1337 -213 1227.5 -325 c 128,-1,3
 1118 -437 1118 -437 920 -437 c 0,4,5
 832 -437 832 -437 755 -420 c 1,6,-1
 769 -155 l 1,7,8
 817 -166 817 -166 870 -166 c 0,9,10
 987 -166 987 -166 987 0 c 1,11,-1
 463 907 l 1,12,-1
 463 0 l 1,13,-1
 113 0 l 1,14,-1
 113 1456 l 1,15,-1
 463 1456 l 1,16,-1
 987 550 l 1,17,-1
 987 1456 l 1,18,-1
 1337 1456 l 1,0,-1
EndSplineSet
Substitution2: "'c2sc' +BBoEMAQ/BDgEQgQ1BDsETAAA +BDgENwAA +BD8EQAQ+BD8EOARBBD0ESwRF lookup 0 subtable" Eng.c2sc
Position2: "'cpsp' +BBgEPQRCBDUEQAQyBDAEOwAA +BD8EQAQ+BD8EOARBBD0ESwRF lookup 0 subtable" dx=36 dy=0 dh=72 dv=0
EndChar

StartChar: eng
Encoding: 331 331 146
Width: 1151
GlyphClass: 2
Flags: W
LayerCount: 2
Fore
SplineSet
407 1082 m 1,0,-1
 420 928 l 1,1,2
 536 1102 536 1102 726 1102 c 0,3,4
 892 1102 892 1102 976.5 992 c 128,-1,5
 1061 882 1061 882 1064 667 c 2,6,-1
 1064 -15 l 2,7,8
 1064 -217 1064 -217 956.5 -327 c 128,-1,9
 849 -437 849 -437 655 -437 c 0,10,11
 568 -437 568 -437 495 -420 c 1,12,-1
 509 -165 l 1,13,14
 559 -177 559 -177 609 -177 c 0,15,16
 726 -177 726 -177 726 -12 c 2,17,-1
 726 652 l 2,18,19
 726 749 726 749 695.5 795.5 c 128,-1,20
 665 842 665 842 597 842 c 0,21,22
 488 842 488 842 427 768 c 1,23,-1
 427 0 l 1,24,-1
 90 0 l 1,25,-1
 90 1082 l 1,26,-1
 407 1082 l 1,0,-1
EndSplineSet
Substitution2: "'smcp' Lowercase to Small Capitals lookup 1 subtable" Eng.c2sc
EndChar

StartChar: OE
Encoding: 338 338 147
Width: 1994
GlyphClass: 2
Flags: W
LayerCount: 2
Fore
SplineSet
1918 0 m 1,0,-1
 1010 0 l 1,1,2
 843 -20 843 -20 722 -20 c 0,3,4
 539 -20 539 -20 395 55 c 128,-1,5
 251 130 251 130 171.5 266.5 c 128,-1,6
 92 403 92 403 92 575 c 2,7,-1
 92 880 l 2,8,9
 92 1053 92 1053 171 1190 c 128,-1,10
 250 1327 250 1327 394 1401.5 c 128,-1,11
 538 1476 538 1476 720 1476 c 0,12,13
 843 1476 843 1476 1010 1456 c 1,14,-1
 1920 1456 l 1,15,-1
 1920 1185 l 1,16,-1
 1266 1185 l 1,17,-1
 1266 878 l 1,18,-1
 1818 878 l 1,19,-1
 1818 617 l 1,20,-1
 1266 617 l 1,21,-1
 1266 270 l 1,22,-1
 1918 270 l 1,23,-1
 1918 0 l 1,0,-1
722 240 m 0,24,25
 823 240 823 240 915 252 c 1,26,-1
 915 1203 l 1,27,28
 813 1216 813 1216 720 1216 c 0,29,30
 585 1216 585 1216 507.5 1133 c 128,-1,31
 430 1050 430 1050 430 882 c 2,32,-1
 430 576 l 2,33,34
 430 408 430 408 508.5 324 c 128,-1,35
 587 240 587 240 722 240 c 0,24,25
EndSplineSet
Substitution2: "'c2sc' +BBoEMAQ/BDgEQgQ1BDsETAAA +BDgENwAA +BD8EQAQ+BD8EOARBBD0ESwRF lookup 0 subtable" OE.c2sc
Position2: "'cpsp' +BBgEPQRCBDUEQAQyBDAEOwAA +BD8EQAQ+BD8EOARBBD0ESwRF lookup 0 subtable" dx=36 dy=0 dh=72 dv=0
EndChar

StartChar: oe
Encoding: 339 339 148
Width: 1845
GlyphClass: 2
Flags: W
LayerCount: 2
Fore
SplineSet
75 551 m 2,0,1
 75 715 75 715 138.5 840.5 c 128,-1,2
 202 966 202 966 320 1034 c 128,-1,3
 438 1102 438 1102 597 1102 c 0,4,5
 815 1102 815 1102 954 978 c 1,6,7
 1086 1104 1086 1104 1294 1102 c 0,8,9
 1514 1102 1514 1102 1639 970.5 c 128,-1,10
 1764 839 1764 839 1764 607 c 2,11,-1
 1764 435 l 1,12,-1
 1138 435 l 1,13,14
 1156 342 1156 342 1215.5 291 c 128,-1,15
 1275 240 1275 240 1365 240 c 0,16,17
 1492 240 1492 240 1587 276 c 2,18,-1
 1663 307 l 1,19,-1
 1743 101 l 1,20,21
 1672 48 1672 48 1557.5 14 c 128,-1,22
 1443 -20 1443 -20 1319 -20 c 0,23,24
 1103 -20 1103 -20 960 108 c 1,25,26
 822 -20 822 -20 599 -20 c 0,27,28
 368 -20 368 -20 227.5 118 c 128,-1,29
 87 256 87 256 76 494 c 1,30,-1
 75 551 l 2,0,1
412 530 m 1,31,32
 412 240 412 240 599 240 c 0,33,34
 779 240 779 240 784 515 c 1,35,-1
 784 551 l 2,36,37
 784 842 784 842 597 842 c 0,38,39
 427 842 427 842 413 591 c 1,40,-1
 412 530 l 1,31,32
1294 842 m 0,41,42
 1160 842 1160 842 1137 646 c 1,43,-1
 1435 646 l 1,44,-1
 1435 672 l 2,45,46
 1435 842 1435 842 1294 842 c 0,41,42
EndSplineSet
Substitution2: "'smcp' Lowercase to Small Capitals lookup 1 subtable" OE.c2sc
EndChar

StartChar: longs
Encoding: 383 383 149
Width: 539
GlyphClass: 2
Flags: W
LayerCount: 2
Fore
SplineSet
94 0 m 1,0,-1
 94 1168 l 2,1,2
 94 1355 94 1355 205 1456 c 128,-1,3
 316 1557 316 1557 522 1557 c 0,4,5
 589 1557 589 1557 689 1536 c 1,6,-1
 665 1287 l 1,7,8
 617 1297 617 1297 564 1297 c 0,9,10
 432 1297 432 1297 432 1165 c 2,11,-1
 432 0 l 1,12,-1
 94 0 l 1,0,-1
EndSplineSet
EndChar

StartChar: uni018F
Encoding: 399 399 150
Width: 1430
GlyphClass: 2
Flags: W
LayerCount: 2
Fore
SplineSet
707 -21 m 0,0,1
 404 -21 404 -21 236.5 162 c 128,-1,2
 69 345 69 345 69 677 c 2,3,-1
 69 847 l 1,4,-1
 992 847 l 1,5,6
 982 1012 982 1012 886.5 1095.5 c 128,-1,7
 791 1179 791 1179 614 1179 c 0,8,9
 400 1179 400 1179 210 1122 c 1,10,-1
 161 1404 l 1,11,12
 222 1429 222 1429 367 1453 c 128,-1,13
 512 1477 512 1477 637 1477 c 0,14,15
 966 1477 966 1477 1154.5 1298.5 c 128,-1,16
 1343 1120 1343 1120 1343 803 c 2,17,-1
 1343 640 l 2,18,19
 1343 453 1343 453 1261.5 301.5 c 128,-1,20
 1180 150 1180 150 1033 64.5 c 128,-1,21
 886 -21 886 -21 707 -21 c 0,0,1
707 276 m 0,22,23
 823 276 823 276 897 352 c 128,-1,24
 971 428 971 428 989 571 c 1,25,-1
 418 571 l 1,26,-1
 418 540 l 2,27,28
 418 416 418 416 492 346 c 128,-1,29
 566 276 566 276 707 276 c 0,22,23
EndSplineSet
EndChar

StartChar: florin
Encoding: 402 402 151
Width: 758
Flags: W
LayerCount: 2
Fore
SplineSet
720 848 m 1,0,-1
 506 848 l 1,1,-1
 504 -38 l 2,2,3
 503 -228 503 -228 402.5 -332.5 c 128,-1,4
 302 -437 302 -437 118 -437 c 0,5,6
 29 -437 29 -437 -42 -420 c 1,7,-1
 -27 -165 l 1,8,9
 9 -177 9 -177 60 -177 c 0,10,11
 119 -177 119 -177 143 -146 c 128,-1,12
 167 -115 167 -115 167 -38 c 2,13,-1
 167 848 l 1,14,-1
 11 848 l 1,15,-1
 11 1082 l 1,16,-1
 167 1082 l 1,17,-1
 167 1168 l 2,18,19
 167 1355 167 1355 278 1456 c 128,-1,20
 389 1557 389 1557 596 1557 c 0,21,22
 663 1557 663 1557 763 1536 c 1,23,-1
 738 1287 l 1,24,25
 692 1297 692 1297 637 1297 c 0,26,27
 506 1297 506 1297 506 1165 c 2,28,-1
 506 1082 l 1,29,-1
 720 1082 l 1,30,-1
 720 848 l 1,0,-1
EndSplineSet
EndChar

StartChar: Ohorn
Encoding: 416 416 152
Width: 1454
GlyphClass: 2
Flags: W
LayerCount: 2
Fore
SplineSet
1346 698 m 2,0,1
 1346 484 1346 484 1266.5 320 c 128,-1,2
 1187 156 1187 156 1041.5 68 c 128,-1,3
 896 -20 896 -20 710 -20 c 128,-1,4
 524 -20 524 -20 380 66 c 128,-1,5
 236 152 236 152 155.5 312 c 128,-1,6
 75 472 75 472 72 680 c 2,7,-1
 72 757 l 2,8,9
 72 972 72 972 150.5 1135 c 128,-1,10
 229 1298 229 1298 374.5 1387 c 128,-1,11
 520 1476 520 1476 708 1476 c 0,12,13
 851 1476 851 1476 970 1424 c 128,-1,14
 1089 1372 1089 1372 1175 1274 c 1,15,16
 1229 1293 1229 1293 1254.5 1356.5 c 128,-1,17
 1280 1420 1280 1420 1280 1556 c 1,18,-1
 1484 1556 l 1,19,20
 1484 1206 1484 1206 1270 1126 c 1,21,22
 1345 967 1345 967 1346 761 c 2,23,-1
 1346 698 l 2,0,1
989 759 m 2,24,25
 989 976 989 976 916 1088.5 c 128,-1,26
 843 1201 843 1201 708 1201 c 0,27,28
 445 1201 445 1201 430 805 c 1,29,-1
 429 698 l 2,30,31
 429 483 429 483 499.5 368.5 c 128,-1,32
 570 254 570 254 710 254 c 0,33,34
 844 254 844 254 916 367 c 128,-1,35
 988 480 988 480 989 692 c 2,36,-1
 989 759 l 2,24,25
EndSplineSet
EndChar

StartChar: ohorn
Encoding: 417 417 153
Width: 1198
GlyphClass: 2
Flags: W
LayerCount: 2
Fore
SplineSet
50 551 m 2,0,1
 50 713 50 713 113 839.5 c 128,-1,2
 176 966 176 966 293.5 1034 c 128,-1,3
 411 1102 411 1102 571 1102 c 0,4,5
 817 1102 817 1102 956 950 c 1,6,7
 1018 1008 1018 1008 1018 1177 c 1,8,-1
 1202 1177 l 1,9,10
 1202 917 1202 917 1037 828 c 1,11,12
 1094 704 1094 704 1094 530 c 0,13,14
 1094 277 1094 277 953.5 128.5 c 128,-1,15
 813 -20 813 -20 573 -20 c 0,16,17
 341 -20 341 -20 201.5 118.5 c 128,-1,18
 62 257 62 257 51 494 c 1,19,-1
 50 551 l 2,0,1
387 530 m 2,20,21
 387 380 387 380 434 310 c 128,-1,22
 481 240 481 240 573 240 c 0,23,24
 753 240 753 240 757 517 c 1,25,-1
 757 551 l 2,26,27
 757 842 757 842 571 842 c 0,28,29
 402 842 402 842 388 591 c 1,30,-1
 387 530 l 2,20,21
EndSplineSet
EndChar

StartChar: Uhorn
Encoding: 431 431 154
Width: 1474
GlyphClass: 2
Flags: W
LayerCount: 2
Fore
SplineSet
1252 1456 m 1,0,-1
 1252 1224 l 1,1,2
 1325 1229 1325 1229 1365 1257 c 128,-1,3
 1405 1285 1405 1285 1422 1336.5 c 128,-1,4
 1439 1388 1439 1388 1439 1537 c 1,5,-1
 1644 1537 l 1,6,7
 1644 1285 1644 1285 1549.5 1176 c 128,-1,8
 1455 1067 1455 1067 1252 1060 c 1,9,-1
 1252 503 l 2,10,11
 1252 341 1252 341 1183 222.5 c 128,-1,12
 1114 104 1114 104 985 42 c 128,-1,13
 856 -20 856 -20 680 -20 c 0,14,15
 414 -20 414 -20 261 118 c 128,-1,16
 108 256 108 256 105 496 c 2,17,-1
 105 1456 l 1,18,-1
 458 1456 l 1,19,-1
 458 489 l 1,20,21
 464 250 464 250 680 250 c 0,22,23
 789 250 789 250 845 310 c 128,-1,24
 901 370 901 370 901 505 c 2,25,-1
 901 1456 l 1,26,-1
 1252 1456 l 1,0,-1
EndSplineSet
EndChar

StartChar: uhorn
Encoding: 432 432 155
Width: 1231
GlyphClass: 2
Flags: W
LayerCount: 2
Fore
SplineSet
1349 1181 m 1,0,1
 1349 1001 1349 1001 1280 911 c 128,-1,2
 1211 821 1211 821 1065 797 c 1,3,-1
 1065 0 l 1,4,-1
 749 0 l 1,5,-1
 739 117 l 1,6,7
 632 -20 632 -20 450 -20 c 0,8,9
 272 -20 272 -20 180.5 83.5 c 128,-1,10
 89 187 89 187 89 381 c 2,11,-1
 89 1082 l 1,12,-1
 426 1082 l 1,13,-1
 426 379 l 2,14,15
 426 240 426 240 561 240 c 0,16,17
 677 240 677 240 726 323 c 1,18,-1
 726 1082 l 1,19,-1
 1065 1082 l 1,20,-1
 1065 949 l 1,21,22
 1120 971 1120 971 1143 1022 c 128,-1,23
 1166 1073 1166 1073 1166 1181 c 1,24,-1
 1349 1181 l 1,0,1
EndSplineSet
EndChar

StartChar: uni0237
Encoding: 567 567 156
Width: 604
GlyphClass: 2
Flags: W
LayerCount: 2
Fore
SplineSet
476 1082 m 1,0,-1
 476 -13 l 2,1,2
 476 -217 476 -217 368 -327 c 128,-1,3
 260 -437 260 -437 67 -437 c 0,4,5
 -19 -437 -19 -437 -92 -420 c 1,6,-1
 -77 -165 l 1,7,8
 -27 -177 -27 -177 21 -177 c 0,9,10
 139 -177 139 -177 139 -11 c 2,11,-1
 139 1082 l 1,12,-1
 476 1082 l 1,0,-1
EndSplineSet
EndChar

StartChar: uni0259
Encoding: 601 601 157
Width: 1083
GlyphClass: 2
Flags: W
LayerCount: 2
Fore
SplineSet
511 1103 m 0,0,1
 743 1103 743 1103 889.5 956.5 c 128,-1,2
 1036 810 1036 810 1036 568 c 2,3,-1
 1036 540 l 2,4,5
 1036 284 1036 284 901.5 131.5 c 128,-1,6
 767 -21 767 -21 536 -19 c 0,7,8
 316 -19 316 -19 191 112.5 c 128,-1,9
 66 244 66 244 66 476 c 2,10,-1
 66 648 l 1,11,-1
 692 648 l 1,12,13
 674 739 674 739 615 791 c 128,-1,14
 556 843 556 843 465 843 c 0,15,16
 338 843 338 843 243 807 c 2,17,-1
 167 776 l 1,18,-1
 87 982 l 1,19,20
 158 1035 158 1035 272.5 1069 c 128,-1,21
 387 1103 387 1103 511 1103 c 0,0,1
536 241 m 0,22,23
 670 241 670 241 693 437 c 1,24,-1
 395 437 l 1,25,-1
 395 411 l 2,26,27
 395 241 395 241 536 241 c 0,22,23
EndSplineSet
EndChar

StartChar: circumflex
Encoding: 710 710 158
Width: 1033
Flags: W
LayerCount: 2
Fore
SplineSet
941 1255 m 1,0,-1
 941 1242 l 1,1,-1
 675 1242 l 1,2,-1
 516 1378 l 1,3,-1
 357 1242 l 1,4,-1
 97 1242 l 1,5,-1
 97 1259 l 1,6,-1
 420 1536 l 1,7,-1
 613 1536 l 1,8,-1
 941 1255 l 1,0,-1
EndSplineSet
EndChar

StartChar: caron
Encoding: 711 711 159
Width: 985
Flags: W
LayerCount: 2
Fore
SplineSet
492 1403 m 1,0,-1
 639 1537 l 1,1,-1
 926 1537 l 1,2,-1
 926 1526 l 1,3,-1
 600 1243 l 1,4,-1
 383 1243 l 1,5,-1
 55 1528 l 1,6,-1
 55 1537 l 1,7,-1
 345 1537 l 1,8,-1
 492 1403 l 1,0,-1
EndSplineSet
EndChar

StartChar: breve
Encoding: 728 728 161
Width: 927
Flags: W
LayerCount: 2
Fore
SplineSet
834 1538 m 1,0,1
 834 1401 834 1401 733 1316 c 128,-1,2
 632 1231 632 1231 464 1231 c 128,-1,3
 296 1231 296 1231 195 1316 c 128,-1,4
 94 1401 94 1401 94 1538 c 1,5,-1
 323 1538 l 1,6,7
 323 1478 323 1478 360.5 1444.5 c 128,-1,8
 398 1411 398 1411 464 1411 c 128,-1,9
 530 1411 530 1411 566.5 1443.5 c 128,-1,10
 603 1476 603 1476 603 1538 c 1,11,-1
 834 1538 l 1,0,1
EndSplineSet
EndChar

StartChar: dotaccent
Encoding: 729 729 162
Width: 563
Flags: W
LayerCount: 2
Fore
SplineSet
107 1378 m 0,0,1
 107 1443 107 1443 154 1484 c 128,-1,2
 201 1525 201 1525 273 1525 c 0,3,4
 344 1525 344 1525 391 1484 c 128,-1,5
 438 1443 438 1443 438 1378 c 0,6,7
 438 1314 438 1314 391 1273 c 128,-1,8
 344 1232 344 1232 273 1232 c 0,9,10
 201 1232 201 1232 154 1273 c 128,-1,11
 107 1314 107 1314 107 1378 c 0,0,1
EndSplineSet
EndChar

StartChar: ring
Encoding: 730 730 163
Width: 674
Flags: W
LayerCount: 2
Fore
SplineSet
118 1294 m 0,0,1
 118 1380 118 1380 183.5 1438.5 c 128,-1,2
 249 1497 249 1497 343 1497 c 0,3,4
 436 1497 436 1497 501.5 1438.5 c 128,-1,5
 567 1380 567 1380 567 1294 c 0,6,7
 567 1209 567 1209 502.5 1152 c 128,-1,8
 438 1095 438 1095 343 1095 c 0,9,10
 247 1095 247 1095 182.5 1152 c 128,-1,11
 118 1209 118 1209 118 1294 c 0,0,1
343 1190 m 0,12,13
 391 1190 391 1190 418.5 1220 c 128,-1,14
 446 1250 446 1250 446 1294 c 128,-1,15
 446 1338 446 1338 418.5 1369 c 128,-1,16
 391 1400 391 1400 343 1400 c 0,17,18
 294 1400 294 1400 266.5 1369 c 128,-1,19
 239 1338 239 1338 239 1294 c 128,-1,20
 239 1250 239 1250 266.5 1220 c 128,-1,21
 294 1190 294 1190 343 1190 c 0,12,13
EndSplineSet
EndChar

StartChar: ogonek
Encoding: 731 731 164
Width: 645
GlyphClass: 2
Flags: W
LayerCount: 2
Fore
SplineSet
412 0 m 1,0,1
 334 -39 334 -39 300.5 -74.5 c 128,-1,2
 267 -110 267 -110 267 -161 c 0,3,4
 267 -223 267 -223 327 -223 c 0,5,6
 357 -223 357 -223 396 -205 c 1,7,-1
 434 -373 l 1,8,9
 361 -417 361 -417 268 -417 c 0,10,11
 158 -417 158 -417 91.5 -359 c 128,-1,12
 25 -301 25 -301 25 -203 c 0,13,14
 25 -30 25 -30 226 60 c 1,15,-1
 412 0 l 1,0,1
EndSplineSet
EndChar

StartChar: tilde
Encoding: 732 732 165
Width: 987
Flags: W
LayerCount: 2
Fore
SplineSet
885 1532 m 1,0,1
 885 1418 885 1418 818.5 1338.5 c 128,-1,2
 752 1259 752 1259 654 1259 c 0,3,4
 588 1259 588 1259 507 1301 c 128,-1,5
 426 1343 426 1343 376 1343 c 0,6,7
 344 1343 344 1343 321.5 1321 c 128,-1,8
 299 1299 299 1299 299 1253 c 1,9,-1
 112 1263 l 1,10,11
 112 1374 112 1374 178.5 1455 c 128,-1,12
 245 1536 245 1536 342 1536 c 0,13,14
 392 1536 392 1536 473 1499.5 c 128,-1,15
 554 1463 554 1463 575.5 1458 c 128,-1,16
 597 1453 597 1453 621 1453 c 0,17,18
 653 1453 653 1453 676 1475 c 128,-1,19
 699 1497 699 1497 699 1543 c 1,20,-1
 885 1532 l 1,0,1
EndSplineSet
EndChar

StartChar: hungarumlaut
Encoding: 733 733 166
Width: 883
Flags: W
LayerCount: 2
Fore
SplineSet
654 1535 m 1,0,-1
 932 1535 l 1,1,-1
 666 1235 l 1,2,-1
 429 1235 l 1,3,-1
 654 1535 l 1,0,-1
238 1535 m 1,4,-1
 518 1535 l 1,5,-1
 280 1235 l 1,6,-1
 40 1235 l 1,7,-1
 238 1535 l 1,4,-1
EndSplineSet
EndChar

StartChar: uni02F3
Encoding: 755 755 167
Width: 668
Flags: W
LayerCount: 2
Fore
SplineSet
154 -225 m 0,0,1
 154 -151 154 -151 211 -101.5 c 128,-1,2
 268 -52 268 -52 348 -52 c 128,-1,3
 428 -52 428 -52 483.5 -101.5 c 128,-1,4
 539 -151 539 -151 539 -225 c 128,-1,5
 539 -299 539 -299 485 -347 c 128,-1,6
 431 -395 431 -395 348 -395 c 0,7,8
 266 -395 266 -395 210 -346.5 c 128,-1,9
 154 -298 154 -298 154 -225 c 0,0,1
279 -225 m 0,10,11
 279 -256 279 -256 298.5 -275.5 c 128,-1,12
 318 -295 318 -295 348 -295 c 0,13,14
 377 -295 377 -295 395 -275.5 c 128,-1,15
 413 -256 413 -256 413 -225 c 0,16,17
 413 -193 413 -193 395 -173 c 128,-1,18
 377 -153 377 -153 348 -153 c 0,19,20
 318 -153 318 -153 298.5 -173 c 128,-1,21
 279 -193 279 -193 279 -225 c 0,10,11
EndSplineSet
EndChar

StartChar: gravecomb
Encoding: 768 768 168
Width: 0
GlyphClass: 4
Flags: W
LayerCount: 2
Fore
SplineSet
-355 1222 m 1,0,-1
 -628 1222 l 1,1,-1
 -910 1536 l 1,2,-1
 -554 1536 l 1,3,-1
 -355 1222 l 1,0,-1
EndSplineSet
EndChar

StartChar: acutecomb
Encoding: 769 769 169
Width: 0
GlyphClass: 4
Flags: W
LayerCount: 2
Fore
SplineSet
-493 1536 m 1,0,-1
 -137 1536 l 1,1,-1
 -415 1222 l 1,2,-1
 -690 1222 l 1,3,-1
 -493 1536 l 1,0,-1
EndSplineSet
EndChar

StartChar: hookabovecomb
Encoding: 777 777 171
Width: 0
GlyphClass: 4
Flags: W
LayerCount: 2
Fore
SplineSet
-750 1276 m 1,0,-1
 -772 1402 l 1,1,2
 -635 1408 -635 1408 -635 1465 c 0,3,4
 -635 1531 -635 1531 -770 1531 c 1,5,-1
 -763 1676 l 1,6,7
 -555 1676 -555 1676 -449 1624 c 128,-1,8
 -343 1572 -343 1572 -343 1479 c 0,9,10
 -343 1423 -343 1423 -383 1385.5 c 128,-1,11
 -423 1348 -423 1348 -493 1338 c 1,12,-1
 -493 1276 l 1,13,-1
 -750 1276 l 1,0,-1
EndSplineSet
EndChar

StartChar: uni030F
Encoding: 783 783 172
Width: 0
GlyphClass: 4
Flags: W
LayerCount: 2
Fore
SplineSet
-514 1252 m 1,0,-1
 -785 1252 l 1,1,-1
 -1069 1518 l 1,2,-1
 -759 1518 l 1,3,-1
 -514 1252 l 1,0,-1
-134 1252 m 1,4,-1
 -408 1252 l 1,5,-1
 -653 1518 l 1,6,-1
 -341 1518 l 1,7,-1
 -134 1252 l 1,4,-1
EndSplineSet
EndChar

StartChar: dotbelowcomb
Encoding: 803 803 173
Width: 0
GlyphClass: 4
Flags: W
LayerCount: 2
Fore
SplineSet
-784 -230 m 256,0,1
 -784 -165 -784 -165 -730.5 -123 c 128,-1,2
 -677 -81 -677 -81 -597 -81 c 128,-1,3
 -517 -81 -517 -81 -463.5 -123 c 128,-1,4
 -410 -165 -410 -165 -410 -230 c 128,-1,5
 -410 -295 -410 -295 -463.5 -337 c 128,-1,6
 -517 -379 -517 -379 -597 -379 c 128,-1,7
 -677 -379 -677 -379 -730.5 -337 c 128,-1,8
 -784 -295 -784 -295 -784 -230 c 256,0,1
EndSplineSet
EndChar

StartChar: tonos
Encoding: 900 900 174
Width: 779
Flags: W
LayerCount: 2
Fore
SplineSet
324 1602 m 1,0,-1
 628 1602 l 1,1,-1
 439 1256 l 1,2,-1
 239 1256 l 1,3,-1
 324 1602 l 1,0,-1
EndSplineSet
EndChar

StartChar: dieresistonos
Encoding: 901 901 175
Width: 1163
Flags: W
LayerCount: 2
Fore
SplineSet
520 1780 m 1,0,-1
 812 1780 l 1,1,-1
 632 1424 l 1,2,-1
 482 1424 l 1,3,-1
 520 1780 l 1,0,-1
101 1365 m 256,4,5
 101 1420 101 1420 144.5 1459 c 128,-1,6
 188 1498 188 1498 252 1498 c 128,-1,7
 316 1498 316 1498 359.5 1459 c 128,-1,8
 403 1420 403 1420 403 1365 c 128,-1,9
 403 1310 403 1310 359.5 1271 c 128,-1,10
 316 1232 316 1232 252 1232 c 128,-1,11
 188 1232 188 1232 144.5 1271 c 128,-1,12
 101 1310 101 1310 101 1365 c 256,4,5
737 1365 m 256,13,14
 737 1420 737 1420 780.5 1459 c 128,-1,15
 824 1498 824 1498 888 1498 c 128,-1,16
 952 1498 952 1498 995.5 1459 c 128,-1,17
 1039 1420 1039 1420 1039 1365 c 128,-1,18
 1039 1310 1039 1310 995.5 1271 c 128,-1,19
 952 1232 952 1232 888 1232 c 128,-1,20
 824 1232 824 1232 780.5 1271 c 128,-1,21
 737 1310 737 1310 737 1365 c 256,13,14
EndSplineSet
EndChar

StartChar: Gamma
Encoding: 915 915 177
Width: 1142
GlyphClass: 2
Flags: W
LayerCount: 2
Fore
SplineSet
1092 1185 m 1,0,-1
 459 1185 l 1,1,-1
 459 0 l 1,2,-1
 108 0 l 1,3,-1
 108 1456 l 1,4,-1
 1092 1456 l 1,5,-1
 1092 1185 l 1,0,-1
EndSplineSet
Substitution2: "'c2sc' +BBoEMAQ/BDgEQgQ1BDsETAAA +BDgENwAA +BD8EQAQ+BD8EOARBBD0ESwRF lookup 0 subtable" Gamma.c2sc
Position2: "'cpsp' +BBgEPQRCBDUEQAQyBDAEOwAA +BD8EQAQ+BD8EOARBBD0ESwRF lookup 0 subtable" dx=36 dy=0 dh=72 dv=0
EndChar

StartChar: Delta
Encoding: 8710 8710 178
AltUni2: 000394.ffffffff.0
Width: 1524
Flags: W
LayerCount: 2
Fore
SplineSet
765 1456 m 1,0,-1
 769 1452 l 1,1,-1
 773 1456 l 1,2,-1
 960 1456 l 1,3,-1
 1531 0 l 1,4,-1
 16 0 l 1,5,-1
 578 1456 l 1,6,-1
 765 1456 l 1,0,-1
485 270 m 1,7,-1
 1061 270 l 1,8,-1
 770 1055 l 1,9,-1
 485 270 l 1,7,-1
EndSplineSet
Substitution2: "'c2sc' +BBoEMAQ/BDgEQgQ1BDsETAAA +BDgENwAA +BD8EQAQ+BD8EOARBBD0ESwRF lookup 0 subtable" Delta.c2sc
Position2: "'cpsp' +BBgEPQRCBDUEQAQyBDAEOwAA +BD8EQAQ+BD8EOARBBD0ESwRF lookup 0 subtable" dx=36 dy=0 dh=72 dv=0
EndChar

StartChar: Theta
Encoding: 920 920 179
Width: 1416
Flags: W
LayerCount: 2
Fore
SplineSet
870 589 m 1,0,-1
 554 589 l 1,1,-1
 554 848 l 1,2,-1
 870 848 l 1,3,-1
 870 589 l 1,0,-1
1346 698 m 2,4,5
 1346 485 1346 485 1267 321 c 128,-1,6
 1188 157 1188 157 1042.5 68.5 c 128,-1,7
 897 -20 897 -20 711 -20 c 128,-1,8
 525 -20 525 -20 381 66 c 128,-1,9
 237 152 237 152 156.5 312 c 128,-1,10
 76 472 76 472 73 680 c 2,11,-1
 73 757 l 2,12,13
 73 972 73 972 151.5 1135 c 128,-1,14
 230 1298 230 1298 375.5 1387 c 128,-1,15
 521 1476 521 1476 709 1476 c 0,16,17
 894 1476 894 1476 1039 1388 c 128,-1,18
 1184 1300 1184 1300 1264.5 1137.5 c 128,-1,19
 1345 975 1345 975 1346 765 c 2,20,-1
 1346 698 l 2,4,5
989 759 m 2,21,22
 989 976 989 976 916.5 1088.5 c 128,-1,23
 844 1201 844 1201 709 1201 c 0,24,25
 570 1201 570 1201 500 1090 c 128,-1,26
 430 979 430 979 429 765 c 2,27,-1
 429 698 l 2,28,29
 429 483 429 483 500 368.5 c 128,-1,30
 571 254 571 254 711 254 c 0,31,32
 845 254 845 254 916.5 367 c 128,-1,33
 988 480 988 480 989 692 c 2,34,-1
 989 759 l 2,21,22
EndSplineSet
Substitution2: "'c2sc' +BBoEMAQ/BDgEQgQ1BDsETAAA +BDgENwAA +BD8EQAQ+BD8EOARBBD0ESwRF lookup 0 subtable" Theta.c2sc
Position2: "'cpsp' +BBgEPQRCBDUEQAQyBDAEOwAA +BD8EQAQ+BD8EOARBBD0ESwRF lookup 0 subtable" dx=36 dy=0 dh=72 dv=0
EndChar

StartChar: Lambda
Encoding: 923 923 180
Width: 1315
Flags: W
LayerCount: 2
Fore
SplineSet
659 1017 m 1,0,-1
 380 0 l 1,1,-1
 1 0 l 1,2,-1
 468 1456 l 1,3,-1
 848 1456 l 1,4,-1
 1317 0 l 1,5,-1
 936 0 l 1,6,-1
 659 1017 l 1,0,-1
EndSplineSet
Substitution2: "'c2sc' +BBoEMAQ/BDgEQgQ1BDsETAAA +BDgENwAA +BD8EQAQ+BD8EOARBBD0ESwRF lookup 0 subtable" Lambda.c2sc
Position2: "'cpsp' +BBgEPQRCBDUEQAQyBDAEOwAA +BD8EQAQ+BD8EOARBBD0ESwRF lookup 0 subtable" dx=36 dy=0 dh=72 dv=0
EndChar

StartChar: Xi
Encoding: 926 926 181
Width: 1154
Flags: W
LayerCount: 2
Fore
SplineSet
81 270 m 1,0,-1
 1090 270 l 1,1,-1
 1090 0 l 1,2,-1
 81 0 l 1,3,-1
 81 270 l 1,0,-1
212 857 m 1,4,-1
 963 857 l 1,5,-1
 963 600 l 1,6,-1
 212 600 l 1,7,-1
 212 857 l 1,4,-1
117 1456 m 1,8,-1
 1031 1456 l 1,9,-1
 1031 1185 l 1,10,-1
 117 1185 l 1,11,-1
 117 1456 l 1,8,-1
EndSplineSet
Substitution2: "'c2sc' +BBoEMAQ/BDgEQgQ1BDsETAAA +BDgENwAA +BD8EQAQ+BD8EOARBBD0ESwRF lookup 0 subtable" Xi.c2sc
Position2: "'cpsp' +BBgEPQRCBDUEQAQyBDAEOwAA +BD8EQAQ+BD8EOARBBD0ESwRF lookup 0 subtable" dx=36 dy=0 dh=72 dv=0
EndChar

StartChar: Pi
Encoding: 928 928 182
Width: 1441
Flags: W
LayerCount: 2
Fore
SplineSet
1333 0 m 1,0,-1
 982 0 l 1,1,-1
 982 1185 l 1,2,-1
 459 1185 l 1,3,-1
 459 0 l 1,4,-1
 108 0 l 1,5,-1
 108 1456 l 1,6,-1
 1333 1456 l 1,7,-1
 1333 0 l 1,0,-1
EndSplineSet
Substitution2: "'c2sc' +BBoEMAQ/BDgEQgQ1BDsETAAA +BDgENwAA +BD8EQAQ+BD8EOARBBD0ESwRF lookup 0 subtable" Pi.c2sc
Position2: "'cpsp' +BBgEPQRCBDUEQAQyBDAEOwAA +BD8EQAQ+BD8EOARBBD0ESwRF lookup 0 subtable" dx=36 dy=0 dh=72 dv=0
EndChar

StartChar: Sigma
Encoding: 931 931 183
Width: 1154
Flags: W
LayerCount: 2
Fore
SplineSet
863 732 m 1,0,-1
 548 269 l 1,1,-1
 1110 269 l 1,2,-1
 1110 0 l 1,3,-1
 73 0 l 1,4,-1
 73 151 l 1,5,-1
 493 739 l 1,6,-1
 73 1306 l 1,7,-1
 73 1456 l 1,8,-1
 1098 1456 l 1,9,-1
 1098 1185 l 1,10,-1
 555 1185 l 1,11,-1
 863 745 l 1,12,-1
 863 732 l 1,0,-1
EndSplineSet
Substitution2: "'c2sc' +BBoEMAQ/BDgEQgQ1BDsETAAA +BDgENwAA +BD8EQAQ+BD8EOARBBD0ESwRF lookup 0 subtable" Sigma.c2sc
Position2: "'cpsp' +BBgEPQRCBDUEQAQyBDAEOwAA +BD8EQAQ+BD8EOARBBD0ESwRF lookup 0 subtable" dx=36 dy=0 dh=72 dv=0
EndChar

StartChar: Phi
Encoding: 934 934 184
Width: 1634
Flags: W
LayerCount: 2
Fore
SplineSet
1001 1293 m 1,0,1
 1172 1285 1172 1285 1303 1212 c 128,-1,2
 1434 1139 1434 1139 1505 1011 c 128,-1,3
 1576 883 1576 883 1576 718 c 0,4,5
 1576 559 1576 559 1505 435.5 c 128,-1,6
 1434 312 1434 312 1303 241.5 c 128,-1,7
 1172 171 1172 171 1001 163 c 1,8,-1
 1001 0 l 1,9,-1
 652 0 l 1,10,-1
 652 163 l 1,11,12
 388 173 388 173 230 323.5 c 128,-1,13
 72 474 72 474 72 716 c 0,14,15
 72 882 72 882 144 1011 c 128,-1,16
 216 1140 216 1140 347 1212.5 c 128,-1,17
 478 1285 478 1285 652 1293 c 1,18,-1
 652 1456 l 1,19,-1
 1001 1456 l 1,20,-1
 1001 1293 l 1,0,1
416 716 m 0,21,22
 416 600 416 600 479 533.5 c 128,-1,23
 542 467 542 467 652 458 c 1,24,-1
 652 997 l 1,25,26
 540 986 540 986 478 913 c 128,-1,27
 416 840 416 840 416 716 c 0,21,22
1233 718 m 0,28,29
 1233 841 1233 841 1172.5 913.5 c 128,-1,30
 1112 986 1112 986 1001 997 c 1,31,-1
 1001 459 l 1,32,33
 1113 470 1113 470 1173 537 c 128,-1,34
 1233 604 1233 604 1233 718 c 0,28,29
EndSplineSet
Substitution2: "'c2sc' +BBoEMAQ/BDgEQgQ1BDsETAAA +BDgENwAA +BD8EQAQ+BD8EOARBBD0ESwRF lookup 0 subtable" Phi.c2sc
Position2: "'cpsp' +BBgEPQRCBDUEQAQyBDAEOwAA +BD8EQAQ+BD8EOARBBD0ESwRF lookup 0 subtable" dx=36 dy=0 dh=72 dv=0
EndChar

StartChar: Psi
Encoding: 936 936 185
Width: 1527
Flags: W
LayerCount: 2
Fore
SplineSet
952 675 m 1,0,1
 1051 694 1051 694 1096.5 775 c 128,-1,2
 1142 856 1142 856 1142 1016 c 2,3,-1
 1142 1456 l 1,4,-1
 1494 1456 l 1,5,-1
 1494 1007 l 2,6,7
 1491 744 1491 744 1348.5 586 c 128,-1,8
 1206 428 1206 428 952 402 c 1,9,-1
 952 0 l 1,10,-1
 602 0 l 1,11,-1
 602 400 l 1,12,13
 333 421 333 421 185 581.5 c 128,-1,14
 37 742 37 742 35 1011 c 2,15,-1
 35 1456 l 1,16,-1
 386 1456 l 1,17,-1
 386 998 l 1,18,19
 392 721 392 721 602 676 c 1,20,-1
 602 1456 l 1,21,-1
 952 1456 l 1,22,-1
 952 675 l 1,0,1
EndSplineSet
Substitution2: "'c2sc' +BBoEMAQ/BDgEQgQ1BDsETAAA +BDgENwAA +BD8EQAQ+BD8EOARBBD0ESwRF lookup 0 subtable" Psi.c2sc
Position2: "'cpsp' +BBgEPQRCBDUEQAQyBDAEOwAA +BD8EQAQ+BD8EOARBBD0ESwRF lookup 0 subtable" dx=36 dy=0 dh=72 dv=0
EndChar

StartChar: Omega
Encoding: 8486 8486 186
AltUni2: 0003a9.ffffffff.0
Width: 1381
GlyphClass: 2
Flags: W
LayerCount: 2
Fore
SplineSet
735 278 m 1,0,1
 800 322 800 322 834 453 c 128,-1,2
 868 584 868 584 868 791 c 2,3,-1
 868 871 l 2,4,5
 868 1036 868 1036 819.5 1118.5 c 128,-1,6
 771 1201 771 1201 683 1201 c 0,7,8
 596 1201 596 1201 547.5 1118.5 c 128,-1,9
 499 1036 499 1036 499 871 c 2,10,-1
 499 794 l 2,11,12
 499 582 499 582 533 453 c 128,-1,13
 567 324 567 324 639 278 c 1,14,-1
 639 0 l 1,15,-1
 120 0 l 1,16,-1
 120 274 l 1,17,-1
 341 274 l 1,18,19
 228 372 228 372 163.5 505.5 c 128,-1,20
 99 639 99 639 98 788 c 2,21,-1
 98 869 l 2,22,23
 98 1044 98 1044 172 1182.5 c 128,-1,24
 246 1321 246 1321 379.5 1398 c 128,-1,25
 513 1475 513 1475 683 1475 c 0,26,27
 850 1475 850 1475 983.5 1399.5 c 128,-1,28
 1117 1324 1117 1324 1192.5 1187 c 128,-1,29
 1268 1050 1268 1050 1270 879 c 2,30,-1
 1270 794 l 2,31,32
 1270 605 1270 605 1169 440 c 0,33,34
 1111 346 1111 346 1028 274 c 1,35,-1
 1247 274 l 1,36,-1
 1247 0 l 1,37,-1
 735 0 l 1,38,-1
 735 278 l 1,0,1
EndSplineSet
Substitution2: "'c2sc' +BBoEMAQ/BDgEQgQ1BDsETAAA +BDgENwAA +BD8EQAQ+BD8EOARBBD0ESwRF lookup 0 subtable" Omega.c2sc
Position2: "'cpsp' +BBgEPQRCBDUEQAQyBDAEOwAA +BD8EQAQ+BD8EOARBBD0ESwRF lookup 0 subtable" dx=36 dy=0 dh=72 dv=0
EndChar

StartChar: alpha
Encoding: 945 945 187
Width: 1152
GlyphClass: 2
Flags: W
LayerCount: 2
Fore
SplineSet
1041 1082 m 1,0,-1
 1041 353 l 2,1,2
 1044 241 1044 241 1110 241 c 0,3,4
 1121 241 1121 241 1126 244 c 1,5,-1
 1152 0 l 1,6,7
 1101 -21 1101 -21 1027 -21 c 0,8,9
 827 -21 827 -21 744 148 c 1,10,11
 649 -20 649 -20 481 -20 c 0,12,13
 286 -20 286 -20 173 124.5 c 128,-1,14
 60 269 60 269 60 539 c 0,15,16
 60 796 60 796 172.5 949 c 128,-1,17
 285 1102 285 1102 483 1102 c 0,18,19
 634 1102 634 1102 723 958 c 1,20,-1
 746 1082 l 1,21,-1
 1041 1082 l 1,0,-1
399 518 m 0,22,23
 399 375 399 375 440.5 307.5 c 128,-1,24
 482 240 482 240 566 240 c 0,25,26
 658 240 658 240 703 303 c 1,27,-1
 703 768 l 1,28,29
 658 842 658 842 568 842 c 0,30,31
 399 842 399 842 399 518 c 0,22,23
EndSplineSet
Substitution2: "'ss02' Style Set 2 lookup 12 subtable" alpha.ss02
Substitution2: "'smcp' Lowercase to Small Capitals lookup 1 subtable" Alpha.c2sc
EndChar

StartChar: beta
Encoding: 946 946 188
Width: 1243
Flags: W
LayerCount: 2
Fore
SplineSet
637 1476 m 0,0,1
 869 1476 869 1476 997 1372 c 128,-1,2
 1125 1268 1125 1268 1125 1082 c 0,3,4
 1125 979 1125 979 1074 895.5 c 128,-1,5
 1023 812 1023 812 932 762 c 1,6,7
 1056 720 1056 720 1122 630.5 c 128,-1,8
 1188 541 1188 541 1188 409 c 0,9,10
 1188 205 1188 205 1073 92.5 c 128,-1,11
 958 -20 958 -20 746 -20 c 0,12,13
 594 -20 594 -20 471 51 c 1,14,-1
 471 -415 l 1,15,-1
 134 -415 l 1,16,-1
 134 1019 l 2,17,18
 134 1152 134 1152 198 1256 c 128,-1,19
 262 1360 262 1360 378.5 1418 c 128,-1,20
 495 1476 495 1476 637 1476 c 0,0,1
788 1051 m 0,21,22
 788 1127 788 1127 746.5 1171.5 c 128,-1,23
 705 1216 705 1216 637 1216 c 0,24,25
 564 1216 564 1216 517.5 1164.5 c 128,-1,26
 471 1113 471 1113 471 1018 c 2,27,-1
 471 281 l 1,28,29
 543 240 543 240 658 240 c 0,30,31
 745 240 745 240 798 289.5 c 128,-1,32
 851 339 851 339 851 416 c 0,33,34
 851 527 851 527 799.5 576.5 c 128,-1,35
 748 626 748 626 649 626 c 2,36,-1
 577 626 l 1,37,-1
 577 857 l 1,38,-1
 658 858 l 1,39,40
 788 871 788 871 788 1051 c 0,21,22
EndSplineSet
Substitution2: "'smcp' Lowercase to Small Capitals lookup 1 subtable" Beta.c2sc
EndChar

StartChar: gamma
Encoding: 947 947 189
Width: 1053
Flags: W
LayerCount: 2
Fore
SplineSet
528 371 m 1,0,-1
 692 1082 l 1,1,-1
 1047 1082 l 1,2,-1
 695 0 l 1,3,-1
 691 0 l 1,4,-1
 691 -417 l 1,5,-1
 354 -417 l 1,6,-1
 354 0 l 1,7,-1
 352 0 l 1,8,-1
 0 1082 l 1,9,-1
 356 1082 l 1,10,-1
 528 371 l 1,0,-1
EndSplineSet
Substitution2: "'smcp' Lowercase to Small Capitals lookup 1 subtable" Gamma.c2sc
EndChar

StartChar: delta
Encoding: 948 948 190
Width: 1151
Flags: W
LayerCount: 2
Fore
SplineSet
177 1244 m 0,0,1
 177 1399 177 1399 290.5 1487 c 128,-1,2
 404 1575 404 1575 603 1575 c 0,3,4
 697 1575 697 1575 790 1552 c 2,5,-1
 860 1534 l 1,6,-1
 860 1292 l 1,7,-1
 830 1301 l 2,8,9
 721 1335 721 1335 644 1335 c 0,10,11
 572 1335 572 1335 531.5 1313 c 128,-1,12
 491 1291 491 1291 491 1251 c 0,13,14
 491 1175 491 1175 621 1130 c 0,15,16
 861 1046 861 1046 986 905 c 128,-1,17
 1111 764 1111 764 1112 553 c 2,18,-1
 1112 530 l 2,19,20
 1112 370 1112 370 1047 244 c 128,-1,21
 982 118 982 118 862 49 c 128,-1,22
 742 -20 742 -20 584 -20 c 0,23,24
 344 -20 344 -20 198.5 125.5 c 128,-1,25
 53 271 53 271 53 519 c 2,26,-1
 53 530 l 2,27,28
 53 687 53 687 141 811.5 c 128,-1,29
 229 936 229 936 360 970 c 1,30,-1
 356 976 l 1,31,32
 177 1079 177 1079 177 1244 c 0,0,1
389 548 m 0,33,34
 389 407 389 407 440.5 323 c 128,-1,35
 492 239 492 239 584 239 c 0,36,37
 675 239 675 239 725.5 323 c 128,-1,38
 776 407 776 407 776 568 c 0,39,40
 776 669 776 669 722 756.5 c 128,-1,41
 668 844 668 844 584 863 c 1,42,43
 493 863 493 863 441 781 c 128,-1,44
 389 699 389 699 389 548 c 0,33,34
EndSplineSet
Substitution2: "'smcp' Lowercase to Small Capitals lookup 1 subtable" Delta.c2sc
EndChar

StartChar: epsilon
Encoding: 949 949 191
Width: 1159
GlyphClass: 2
Flags: W
LayerCount: 2
Fore
SplineSet
429 336 m 0,0,1
 429 285 429 285 475.5 252.5 c 128,-1,2
 522 220 522 220 598 220 c 0,3,4
 687 220 687 220 728.5 249.5 c 128,-1,5
 770 279 770 279 770 320 c 1,6,-1
 1107 320 l 1,7,8
 1107 165 1107 165 970 72.5 c 128,-1,9
 833 -20 833 -20 621 -20 c 0,10,11
 385 -20 385 -20 239 70.5 c 128,-1,12
 93 161 93 161 93 306 c 0,13,14
 93 398 93 398 146.5 461.5 c 128,-1,15
 200 525 200 525 300 557 c 1,16,17
 212 593 212 593 162 653.5 c 128,-1,18
 112 714 112 714 112 786 c 0,19,20
 112 933 112 933 250 1017 c 128,-1,21
 388 1101 388 1101 621 1101 c 0,22,23
 828 1101 828 1101 959 1007.5 c 128,-1,24
 1090 914 1090 914 1090 768 c 1,25,-1
 753 768 l 1,26,27
 753 816 753 816 709.5 838.5 c 128,-1,28
 666 861 666 861 599 861 c 0,29,30
 530 861 530 861 489.5 832 c 128,-1,31
 449 803 449 803 449 755 c 0,32,33
 449 657 449 657 624 657 c 2,34,-1
 782 657 l 1,35,-1
 782 450 l 1,36,-1
 610 450 l 2,37,38
 429 450 429 450 429 336 c 0,0,1
EndSplineSet
Substitution2: "'smcp' Lowercase to Small Capitals lookup 1 subtable" Epsilon.c2sc
EndChar

StartChar: zeta
Encoding: 950 950 192
Width: 1001
Flags: W
LayerCount: 2
Fore
SplineSet
966 1456 m 1,0,-1
 966 1278 l 1,1,-1
 576 818 l 1,2,-1
 506 727 l 1,3,4
 415 597 415 597 415 440 c 0,5,6
 415 367 415 367 449 325 c 128,-1,7
 483 283 483 283 587 252 c 2,8,-1
 638 235 l 1,9,10
 770 197 770 197 827.5 162.5 c 128,-1,11
 885 128 885 128 914 79.5 c 128,-1,12
 943 31 943 31 942 -38 c 0,13,14
 942 -121 942 -121 865 -223.5 c 128,-1,15
 788 -326 788 -326 682 -392 c 1,16,-1
 512 -271 l 1,17,18
 561 -223 561 -223 583.5 -178.5 c 128,-1,19
 606 -134 606 -134 604 -108 c 0,20,21
 608 -43 608 -43 535 -19 c 1,22,-1
 442 6 l 2,23,24
 259 54 259 54 169.5 145 c 128,-1,25
 80 236 80 236 80 381 c 0,26,27
 80 530 80 530 134 659 c 128,-1,28
 188 788 188 788 346 979 c 2,29,-1
 527 1198 l 1,30,-1
 54 1198 l 1,31,-1
 54 1456 l 1,32,-1
 966 1456 l 1,0,-1
EndSplineSet
Substitution2: "'smcp' Lowercase to Small Capitals lookup 1 subtable" Zeta.c2sc
EndChar

StartChar: eta
Encoding: 951 951 193
Width: 1151
GlyphClass: 2
Flags: W
LayerCount: 2
Fore
SplineSet
407 1082 m 1,0,-1
 418 947 l 1,1,2
 537 1102 537 1102 726 1102 c 0,3,4
 894 1102 894 1102 979 998.5 c 128,-1,5
 1064 895 1064 895 1064 692 c 2,6,-1
 1064 -416 l 1,7,-1
 726 -416 l 1,8,-1
 726 685 l 2,9,10
 726 842 726 842 597 842 c 0,11,12
 488 842 488 842 427 770 c 1,13,-1
 427 0 l 1,14,-1
 90 0 l 1,15,-1
 90 1082 l 1,16,-1
 407 1082 l 1,0,-1
EndSplineSet
Substitution2: "'smcp' Lowercase to Small Capitals lookup 1 subtable" Eta.c2sc
EndChar

StartChar: theta
Encoding: 952 952 194
Width: 1231
Flags: W
LayerCount: 2
Fore
SplineSet
1123 595 m 2,0,1
 1123 300 1123 300 990.5 140 c 128,-1,2
 858 -20 858 -20 617 -20 c 0,3,4
 374 -20 374 -20 241 141 c 128,-1,5
 108 302 108 302 108 595 c 2,6,-1
 108 861 l 2,7,8
 108 1156 108 1156 240.5 1316 c 128,-1,9
 373 1476 373 1476 615 1476 c 128,-1,10
 857 1476 857 1476 990 1315 c 128,-1,11
 1123 1154 1123 1154 1123 860 c 2,12,-1
 1123 595 l 2,0,1
786 611 m 1,13,-1
 446 611 l 1,14,-1
 446 554 l 2,15,16
 446 391 446 391 487 315.5 c 128,-1,17
 528 240 528 240 617 240 c 0,18,19
 703 240 703 240 744 313.5 c 128,-1,20
 785 387 785 387 786 544 c 2,21,-1
 786 611 l 1,13,-1
446 858 m 1,22,-1
 786 858 l 1,23,-1
 786 904 l 2,24,25
 786 1061 786 1061 745 1138.5 c 128,-1,26
 704 1216 704 1216 615 1216 c 0,27,28
 527 1216 527 1216 487 1141 c 128,-1,29
 447 1066 447 1066 446 913 c 2,30,-1
 446 858 l 1,22,-1
EndSplineSet
Substitution2: "'smcp' Lowercase to Small Capitals lookup 1 subtable" Theta.c2sc
EndChar

StartChar: iota
Encoding: 953 953 195
Width: 698
GlyphClass: 2
Flags: W
LayerCount: 2
Fore
SplineSet
445 1082 m 1,0,-1
 444 362 l 2,1,2
 444 301 444 301 466 277 c 128,-1,3
 488 253 488 253 553 253 c 0,4,5
 603 253 603 253 637 259 c 1,6,-1
 637 18 l 1,7,8
 546 -11 546 -11 447 -11 c 0,9,10
 272 -11 272 -11 189 72 c 128,-1,11
 106 155 106 155 106 320 c 2,12,-1
 106 1082 l 1,13,-1
 445 1082 l 1,0,-1
EndSplineSet
Substitution2: "'smcp' Lowercase to Small Capitals lookup 1 subtable" Iota.c2sc
EndChar

StartChar: lambda
Encoding: 955 955 196
Width: 1116
Flags: W
LayerCount: 2
Fore
SplineSet
298 1557 m 0,0,1
 510 1557 510 1557 582 1377 c 2,2,-1
 989 358 l 1,3,-1
 1006 321 l 2,4,5
 1044 241 1044 241 1098 240 c 2,6,-1
 1133 240 l 1,7,-1
 1132 -14 l 1,8,9
 1100 -19 1100 -19 1007 -19 c 0,10,11
 770 -19 770 -19 689 193 c 1,12,-1
 542 617 l 1,13,-1
 353 0 l 1,14,-1
 -6 0 l 1,15,-1
 373 1076 l 1,16,-1
 314 1211 l 2,17,18
 277 1295 277 1295 178 1295 c 1,19,-1
 113 1292 l 1,20,-1
 104 1532 l 1,21,22
 189 1557 189 1557 298 1557 c 0,0,1
EndSplineSet
Substitution2: "'smcp' Lowercase to Small Capitals lookup 1 subtable" Lambda.c2sc
EndChar

StartChar: xi
Encoding: 958 958 197
Width: 1130
Flags: W
LayerCount: 2
Fore
SplineSet
946 1171 m 1,0,-1
 841 1197 l 2,1,2
 786 1209 786 1209 720 1209 c 0,3,4
 539 1209 539 1209 539 1083 c 0,5,6
 539 960 539 960 729 960 c 2,7,-1
 875 960 l 1,8,-1
 875 689 l 1,9,-1
 740 689 l 2,10,11
 443 689 443 689 443 464 c 0,12,13
 443 384 443 384 496 334.5 c 128,-1,14
 549 285 549 285 670.5 255.5 c 128,-1,15
 792 226 792 226 832 213.5 c 128,-1,16
 872 201 872 201 901 189 c 0,17,18
 1070 119 1070 119 1067 -39 c 0,19,20
 1067 -119 1067 -119 991.5 -222 c 128,-1,21
 916 -325 916 -325 807 -393 c 1,22,-1
 638 -272 l 1,23,24
 687 -224 687 -224 707.5 -179.5 c 128,-1,25
 728 -135 728 -135 728 -109 c 0,26,27
 728 -47 728 -47 637 -14 c 0,28,29
 461 42 461 42 372.5 74 c 128,-1,30
 284 106 284 106 225 151.5 c 128,-1,31
 166 197 166 197 135.5 266.5 c 128,-1,32
 105 336 105 336 105 448 c 0,33,34
 105 724 105 724 403 822 c 1,35,36
 202 895 202 895 202 1078 c 0,37,38
 202 1260 202 1260 329 1368 c 128,-1,39
 456 1476 456 1476 673 1476 c 0,40,41
 778 1476 778 1476 844.5 1464.5 c 128,-1,42
 911 1453 911 1453 1000 1422 c 1,43,-1
 946 1171 l 1,0,-1
EndSplineSet
Substitution2: "'smcp' Lowercase to Small Capitals lookup 1 subtable" Xi.c2sc
EndChar

StartChar: pi
Encoding: 960 960 198
Width: 1371
Flags: W
LayerCount: 2
Fore
SplineSet
1318 840 m 1,0,-1
 1134 840 l 1,1,-1
 1134 362 l 2,2,3
 1134 301 1134 301 1156 277 c 128,-1,4
 1178 253 1178 253 1243 253 c 0,5,6
 1293 253 1293 253 1327 259 c 1,7,-1
 1327 18 l 1,8,9
 1236 -11 1236 -11 1137 -11 c 0,10,11
 963 -11 963 -11 879.5 71.5 c 128,-1,12
 796 154 796 154 796 320 c 2,13,-1
 796 840 l 1,14,-1
 579 840 l 1,15,-1
 579 0 l 1,16,-1
 242 0 l 1,17,-1
 242 840 l 1,18,-1
 60 840 l 1,19,-1
 60 1082 l 1,20,-1
 1318 1082 l 1,21,-1
 1318 840 l 1,0,-1
EndSplineSet
Substitution2: "'smcp' Lowercase to Small Capitals lookup 1 subtable" Pi.c2sc
EndChar

StartChar: rho
Encoding: 961 961 199
Width: 1151
GlyphClass: 2
Flags: W
LayerCount: 2
Fore
SplineSet
614 1102 m 0,0,1
 840 1102 840 1102 969.5 949.5 c 128,-1,2
 1099 797 1099 797 1099 532 c 2,3,-1
 1099 518 l 2,4,5
 1099 271 1099 271 986.5 125 c 128,-1,6
 874 -21 874 -21 678 -21 c 0,7,8
 527 -21 527 -21 434 99 c 1,9,-1
 434 -416 l 1,10,-1
 96 -416 l 1,11,-1
 96 570 l 2,12,13
 96 816 96 816 237 959 c 128,-1,14
 378 1102 378 1102 614 1102 c 0,0,1
434 308 m 1,15,16
 483 239 483 239 595 239 c 0,17,18
 748 239 748 239 760 473 c 1,19,-1
 761 539 l 2,20,21
 761 684 761 684 718 763 c 128,-1,22
 675 842 675 842 592 842 c 0,23,24
 434 842 434 842 434 530 c 2,25,-1
 434 308 l 1,15,16
EndSplineSet
Substitution2: "'smcp' Lowercase to Small Capitals lookup 1 subtable" Rho.c2sc
EndChar

StartChar: sigma1
Encoding: 962 962 200
Width: 1027
Flags: W
LayerCount: 2
Fore
SplineSet
557 1102 m 0,0,1
 766 1102 766 1102 888.5 986 c 128,-1,2
 1011 870 1011 870 1011 668 c 1,3,-1
 695 668 l 1,4,5
 695 747 695 747 658.5 794.5 c 128,-1,6
 622 842 622 842 557 842 c 0,7,8
 470 842 470 842 426 773 c 128,-1,9
 382 704 382 704 382 529 c 0,10,11
 382 406 382 406 427 346 c 128,-1,12
 472 286 472 286 591.5 251.5 c 128,-1,13
 711 217 711 217 765 191 c 128,-1,14
 819 165 819 165 848 133 c 0,15,16
 897 80 897 80 903 -19 c 1,17,18
 903 -100 903 -100 830 -203 c 128,-1,19
 757 -306 757 -306 648 -374 c 1,20,-1
 473 -252 l 1,21,22
 522 -204 522 -204 544 -159.5 c 128,-1,23
 566 -115 566 -115 564 -89 c 0,24,25
 564 -16 564 -16 481 7 c 0,26,27
 253 71 253 71 151 189 c 128,-1,28
 49 307 49 307 45 511 c 1,29,-1
 45 552 l 2,30,31
 45 804 45 804 182 953 c 128,-1,32
 319 1102 319 1102 557 1102 c 0,0,1
EndSplineSet
Substitution2: "'smcp' Lowercase to Small Capitals lookup 1 subtable" Sigma.c2sc
EndChar

StartChar: sigma
Encoding: 963 963 201
Width: 1176
Flags: W
LayerCount: 2
Fore
SplineSet
1149 822 m 1,0,-1
 902 822 l 1,1,2
 983 757 983 757 1028 674 c 128,-1,3
 1073 591 1073 591 1073 510 c 2,4,-1
 1073 489 l 2,5,6
 1073 257 1073 257 939 118 c 128,-1,7
 805 -21 805 -21 574 -21 c 0,8,9
 333 -21 333 -21 191 128.5 c 128,-1,10
 49 278 49 278 49 537 c 2,11,-1
 49 551 l 2,12,13
 49 793 49 793 190 937.5 c 128,-1,14
 331 1082 331 1082 572 1082 c 1,15,16
 572 1081 572 1081 573 1081 c 2,17,-1
 573 1082 l 1,18,-1
 1149 1082 l 1,19,-1
 1149 822 l 1,0,-1
386 530 m 1,20,21
 386 239 386 239 574 239 c 0,22,23
 731 239 731 239 736 511 c 1,24,-1
 736 551 l 2,25,26
 736 822 736 822 573 822 c 0,27,28
 401 822 401 822 387 588 c 1,29,-1
 386 530 l 1,20,21
EndSplineSet
Substitution2: "'smcp' Lowercase to Small Capitals lookup 1 subtable" Sigma.c2sc
EndChar

StartChar: tau
Encoding: 964 964 202
Width: 1062
Flags: W
LayerCount: 2
Fore
SplineSet
1039 824 m 1,0,-1
 688 824 l 1,1,-1
 688 351 l 2,2,3
 688 290 688 290 708 265.5 c 128,-1,4
 728 241 728 241 776 241 c 0,5,6
 816 241 816 241 877 254 c 1,7,-1
 899 4 l 1,8,9
 817 -20 817 -20 714 -20 c 0,10,11
 537 -20 537 -20 443 75 c 128,-1,12
 349 170 349 170 349 353 c 2,13,-1
 349 824 l 1,14,-1
 23 824 l 1,15,-1
 23 1082 l 1,16,-1
 1039 1082 l 1,17,-1
 1039 824 l 1,0,-1
EndSplineSet
Substitution2: "'smcp' Lowercase to Small Capitals lookup 1 subtable" Tau.c2sc
EndChar

StartChar: upsilon
Encoding: 965 965 203
Width: 1116
GlyphClass: 2
Flags: W
LayerCount: 2
Fore
SplineSet
436 1082 m 1,0,-1
 436 415 l 2,1,2
 436 239 436 239 527 239 c 0,3,4
 608 239 608 239 660.5 335 c 128,-1,5
 713 431 713 431 713 566 c 0,6,7
 709 812 709 812 623 1082 c 1,8,-1
 936 1082 l 1,9,10
 982 990 982 990 1015.5 860.5 c 128,-1,11
 1049 731 1049 731 1049 566 c 0,12,13
 1049 286 1049 286 917.5 132.5 c 128,-1,14
 786 -21 786 -21 537 -21 c 0,15,16
 327 -21 327 -21 214 88.5 c 128,-1,17
 101 198 101 198 99 404 c 2,18,-1
 99 1082 l 1,19,-1
 436 1082 l 1,0,-1
EndSplineSet
Substitution2: "'smcp' Lowercase to Small Capitals lookup 1 subtable" Upsilon.c2sc
EndChar

StartChar: phi
Encoding: 966 966 204
Width: 1567
Flags: W
LayerCount: 2
Fore
SplineSet
606 -9 m 1,0,1
 333 27 333 27 186 186 c 128,-1,2
 39 345 39 345 39 607 c 0,3,4
 39 747 39 747 96.5 882 c 128,-1,5
 154 1017 154 1017 248 1102 c 1,6,-1
 494 942 l 1,7,8
 440 874 440 874 409 786 c 128,-1,9
 378 698 378 698 376 607 c 0,10,11
 376 456 376 456 432 373.5 c 128,-1,12
 488 291 488 291 606 259 c 1,13,-1
 606 788 l 2,14,15
 606 874 606 874 652 948 c 128,-1,16
 698 1022 698 1022 773 1062.5 c 128,-1,17
 848 1103 848 1103 936 1103 c 0,18,19
 1103 1103 1103 1103 1231.5 1039.5 c 128,-1,20
 1360 976 1360 976 1434.5 848 c 128,-1,21
 1509 720 1509 720 1509 565 c 0,22,23
 1509 319 1509 319 1361.5 169.5 c 128,-1,24
 1214 20 1214 20 944 -12 c 1,25,-1
 944 -478 l 1,26,-1
 606 -478 l 1,27,-1
 606 -9 l 1,0,1
944 255 m 1,28,29
 1057 282 1057 282 1114.5 357.5 c 128,-1,30
 1172 433 1172 433 1172 565 c 0,31,32
 1170 696 1170 696 1122.5 769.5 c 128,-1,33
 1075 843 1075 843 989 843 c 0,34,35
 944 843 944 843 944 809 c 2,36,-1
 944 255 l 1,28,29
EndSplineSet
Substitution2: "'smcp' Lowercase to Small Capitals lookup 1 subtable" Phi.c2sc
EndChar

StartChar: psi
Encoding: 968 968 205
Width: 1569
GlyphClass: 2
Flags: W
LayerCount: 2
Fore
SplineSet
945 1082 m 1,0,-1
 945 259 l 1,1,2
 1059 291 1059 291 1116 374 c 128,-1,3
 1173 457 1173 457 1173 607 c 0,4,5
 1170 818 1170 818 1073 1082 c 1,6,-1
 1374 1082 l 1,7,8
 1510 870 1510 870 1510 607 c 0,9,10
 1510 341 1510 341 1363.5 182 c 128,-1,11
 1217 23 1217 23 945 -11 c 1,12,-1
 945 -478 l 1,13,-1
 608 -478 l 1,14,-1
 608 -9 l 1,15,16
 341 25 341 25 200 173.5 c 128,-1,17
 59 322 59 322 57 579 c 2,18,-1
 57 1082 l 1,19,-1
 395 1082 l 1,20,-1
 395 575 l 2,21,22
 398 322 398 322 608 260 c 1,23,-1
 608 1082 l 1,24,-1
 945 1082 l 1,0,-1
EndSplineSet
Substitution2: "'smcp' Lowercase to Small Capitals lookup 1 subtable" Psi.c2sc
EndChar

StartChar: omega
Encoding: 969 969 206
Width: 1679
GlyphClass: 2
Flags: W
LayerCount: 2
Fore
SplineSet
533 1082 m 1,0,1
 409 816 409 816 402 566 c 1,2,3
 402 407 402 407 435.5 323.5 c 128,-1,4
 469 240 469 240 531 240 c 0,5,6
 663 240 663 240 663 512 c 2,7,-1
 663 872 l 1,8,-1
 1024 872 l 1,9,-1
 1024 512 l 2,10,11
 1024 240 1024 240 1156 240 c 0,12,13
 1217 240 1217 240 1251 324 c 128,-1,14
 1285 408 1285 408 1285 566 c 1,15,16
 1277 821 1277 821 1152 1082 c 1,17,-1
 1465 1082 l 1,18,19
 1621 851 1621 851 1621 566 c 0,20,21
 1621 270 1621 270 1506.5 125 c 128,-1,22
 1392 -20 1392 -20 1166 -20 c 0,23,24
 949 -20 949 -20 843 181 c 1,25,26
 791 82 791 82 708.5 31 c 128,-1,27
 626 -20 626 -20 521 -20 c 0,28,29
 294 -20 294 -20 179.5 125 c 128,-1,30
 65 270 65 270 65 566 c 0,31,32
 65 851 65 851 221 1082 c 1,33,-1
 533 1082 l 1,0,1
EndSplineSet
Substitution2: "'smcp' Lowercase to Small Capitals lookup 1 subtable" Omega.c2sc
EndChar

StartChar: theta1
Encoding: 977 977 207
Width: 1236
Flags: W
LayerCount: 2
Fore
SplineSet
1242 562 m 1,0,-1
 1144 538 l 1,1,-1
 1144 471 l 2,2,3
 1144 249 1144 249 998.5 114.5 c 128,-1,4
 853 -20 853 -20 619 -20 c 0,5,6
 476 -20 476 -20 361.5 41.5 c 128,-1,7
 247 103 247 103 181.5 215.5 c 128,-1,8
 116 328 116 328 116 466 c 2,9,-1
 116 679 l 1,10,-1
 432 679 l 1,11,-1
 432 471 l 2,12,13
 432 370 432 370 490.5 310.5 c 128,-1,14
 549 251 549 251 641 251 c 0,15,16
 706 251 706 251 744.5 307.5 c 128,-1,17
 783 364 783 364 784 462 c 2,18,-1
 784 531 l 1,19,20
 588 577 588 577 468 713 c 128,-1,21
 348 849 348 849 348 1034 c 2,22,-1
 348 1057 l 2,23,24
 348 1244 348 1244 460 1360 c 128,-1,25
 572 1476 572 1476 758 1476 c 0,26,27
 938 1476 938 1476 1040.5 1359.5 c 128,-1,28
 1143 1243 1143 1243 1144 1040 c 2,29,-1
 1144 821 l 1,30,-1
 1231 838 l 1,31,-1
 1242 562 l 1,0,-1
663 1050 m 2,32,33
 663 900 663 900 784 837 c 1,34,-1
 784 1085 l 2,35,36
 783 1186 783 1186 734 1186 c 0,37,38
 663 1186 663 1186 663 1070 c 2,39,-1
 663 1050 l 2,32,33
EndSplineSet
EndChar

StartChar: Upsilon1
Encoding: 978 978 208
Width: 1275
GlyphClass: 2
Flags: W
LayerCount: 2
Fore
SplineSet
638 770 m 1,0,-1
 802 1230 l 1,1,2
 899 1488 899 1488 1141 1488 c 0,3,4
 1197 1488 1197 1488 1297 1463 c 1,5,-1
 1259 1207 l 1,6,-1
 1197 1210 l 2,7,8
 1122 1210 1122 1210 1095 1139 c 2,9,-1
 812 459 l 1,10,-1
 812 0 l 1,11,-1
 459 0 l 1,12,-1
 459 457 l 1,13,-1
 182 1134 l 2,14,15
 151 1210 151 1210 77 1210 c 2,16,-1
 15 1207 l 1,17,-1
 -20 1463 l 1,18,19
 71 1488 71 1488 135 1488 c 0,20,21
 268 1488 268 1488 350 1424 c 128,-1,22
 432 1360 432 1360 478 1229 c 2,23,-1
 638 770 l 1,0,-1
EndSplineSet
EndChar

StartChar: omega1
Encoding: 982 982 209
Width: 1740
GlyphClass: 2
Flags: W
LayerCount: 2
Fore
SplineSet
1752 860 m 1,0,-1
 1627 860 l 1,1,2
 1674 721 1674 721 1674 566 c 0,3,4
 1674 267 1674 267 1558 123.5 c 128,-1,5
 1442 -20 1442 -20 1215 -20 c 0,6,7
 1100 -20 1100 -20 1011.5 33.5 c 128,-1,8
 923 87 923 87 869 190 c 1,9,10
 815 87 815 87 726.5 33.5 c 128,-1,11
 638 -20 638 -20 524 -20 c 0,12,13
 295 -20 295 -20 179 125 c 128,-1,14
 63 270 63 270 63 566 c 0,15,16
 63 721 63 721 110 860 c 1,17,-1
 -11 860 l 1,18,-1
 -11 1082 l 1,19,-1
 1752 1082 l 1,20,-1
 1752 860 l 1,0,-1
1338 566 m 1,21,22
 1334 713 1334 713 1291 860 c 1,23,-1
 447 860 l 1,24,25
 405 706 405 706 401 566 c 1,26,27
 401 406 401 406 435.5 323 c 128,-1,28
 470 240 470 240 534 240 c 0,29,30
 689 240 689 240 689 513 c 2,31,-1
 689 684 l 1,32,-1
 1049 684 l 1,33,-1
 1049 493 l 2,34,35
 1050 371 1050 371 1090.5 305.5 c 128,-1,36
 1131 240 1131 240 1204 240 c 0,37,38
 1269 240 1269 240 1303.5 323 c 128,-1,39
 1338 406 1338 406 1338 566 c 1,21,22
EndSplineSet
EndChar

StartChar: uni0402
Encoding: 1026 1026 210
Width: 1527
Flags: W
LayerCount: 2
Fore
SplineSet
1161 1185 m 1,0,-1
 710 1185 l 1,1,-1
 710 872 l 1,2,3
 826 896 826 896 933 896 c 0,4,5
 1194 896 1194 896 1338 779 c 128,-1,6
 1482 662 1482 662 1482 446 c 0,7,8
 1482 303 1482 303 1409 194.5 c 128,-1,9
 1336 86 1336 86 1206.5 33 c 128,-1,10
 1077 -20 1077 -20 898 -20 c 1,11,-1
 898 233 l 1,12,13
 1115 233 1115 233 1130 385 c 1,14,-1
 1132 423 l 1,15,16
 1132 516 1132 516 1071.5 571.5 c 128,-1,17
 1011 627 1011 627 911 627 c 0,18,19
 800 627 800 627 710 611 c 1,20,-1
 710 0 l 1,21,-1
 359 0 l 1,22,-1
 359 1185 l 1,23,-1
 23 1185 l 1,24,-1
 23 1456 l 1,25,-1
 1161 1456 l 1,26,-1
 1161 1185 l 1,0,-1
EndSplineSet
Substitution2: "'c2sc' +BBoEMAQ/BDgEQgQ1BDsETAAA +BDgENwAA +BD8EQAQ+BD8EOARBBD0ESwRF lookup 0 subtable" uni0402.c2sc
Position2: "'cpsp' +BBgEPQRCBDUEQAQyBDAEOwAA +BD8EQAQ+BD8EOARBBD0ESwRF lookup 0 subtable" dx=36 dy=0 dh=72 dv=0
EndChar

StartChar: uni0404
Encoding: 1028 1028 211
Width: 1331
GlyphClass: 2
Flags: W
LayerCount: 2
Fore
SplineSet
1288 492 m 1,0,1
 1280 340 1280 340 1204 223.5 c 128,-1,2
 1128 107 1128 107 993.5 43 c 128,-1,3
 859 -21 859 -21 686 -21 c 0,4,5
 399 -21 399 -21 234 166 c 128,-1,6
 69 353 69 353 69 694 c 2,7,-1
 69 765 l 2,8,9
 69 980 69 980 144 1141.5 c 128,-1,10
 219 1303 219 1303 358.5 1389.5 c 128,-1,11
 498 1476 498 1476 681 1476 c 0,12,13
 946 1476 946 1476 1106 1337 c 128,-1,14
 1266 1198 1266 1198 1290 952 c 1,15,-1
 940 952 l 1,16,17
 936 1085 936 1085 873.5 1145 c 128,-1,18
 811 1205 811 1205 681 1205 c 0,19,20
 559 1205 559 1205 495.5 1119 c 128,-1,21
 432 1033 432 1033 421 863 c 1,22,-1
 807 863 l 1,23,-1
 807 592 l 1,24,-1
 421 592 l 1,25,26
 433 410 433 410 495.5 329 c 128,-1,27
 558 248 558 248 686 248 c 0,28,29
 931 248 931 248 937 492 c 1,30,-1
 1288 492 l 1,0,1
EndSplineSet
Substitution2: "'c2sc' +BBoEMAQ/BDgEQgQ1BDsETAAA +BDgENwAA +BD8EQAQ+BD8EOARBBD0ESwRF lookup 0 subtable" uni0404.c2sc
Position2: "'cpsp' +BBgEPQRCBDUEQAQyBDAEOwAA +BD8EQAQ+BD8EOARBBD0ESwRF lookup 0 subtable" dx=36 dy=0 dh=72 dv=0
EndChar

StartChar: uni0409
Encoding: 1033 1033 212
Width: 2148
Flags: W
LayerCount: 2
Fore
SplineSet
1335 1456 m 1,0,-1
 1335 985 l 1,1,-1
 1523 985 l 2,2,3
 1689 984 1689 984 1821 921.5 c 128,-1,4
 1953 859 1953 859 2025.5 746 c 128,-1,5
 2098 633 2098 633 2098 493 c 0,6,7
 2098 352 2098 352 2026 239.5 c 128,-1,8
 1954 127 1954 127 1822 64 c 128,-1,9
 1690 1 1690 1 1523 0 c 2,10,-1
 984 0 l 1,11,-1
 984 1185 l 1,12,-1
 657 1185 l 1,13,-1
 633 696 l 2,14,15
 618 443 618 443 563 292 c 128,-1,16
 508 141 508 141 406.5 71.5 c 128,-1,17
 305 2 305 2 130 0 c 2,18,-1
 36 0 l 1,19,-1
 36 270 l 1,20,-1
 85 275 l 1,21,22
 190 290 190 290 237 403.5 c 128,-1,23
 284 517 284 517 298 786 c 2,24,-1
 323 1456 l 1,25,-1
 1335 1456 l 1,0,-1
1335 715 m 1,26,-1
 1335 270 l 1,27,-1
 1516 270 l 2,28,29
 1618 270 1618 270 1682.5 332.5 c 128,-1,30
 1747 395 1747 395 1747 495 c 0,31,32
 1747 589 1747 589 1685 651 c 128,-1,33
 1623 713 1623 713 1522 715 c 2,34,-1
 1335 715 l 1,26,-1
EndSplineSet
Substitution2: "'c2sc' +BBoEMAQ/BDgEQgQ1BDsETAAA +BDgENwAA +BD8EQAQ+BD8EOARBBD0ESwRF lookup 0 subtable" uni0409.c2sc
Position2: "'cpsp' +BBgEPQRCBDUEQAQyBDAEOwAA +BD8EQAQ+BD8EOARBBD0ESwRF lookup 0 subtable" dx=36 dy=0 dh=72 dv=0
EndChar

StartChar: uni040A
Encoding: 1034 1034 213
Width: 2144
Flags: W
LayerCount: 2
Fore
SplineSet
459 847 m 1,0,-1
 981 847 l 1,1,-1
 981 1456 l 1,2,-1
 1331 1456 l 1,3,-1
 1331 990 l 1,4,-1
 1514 990 l 2,5,6
 1682 990 1682 990 1814.5 927 c 128,-1,7
 1947 864 1947 864 2020 751 c 128,-1,8
 2093 638 2093 638 2093 495 c 128,-1,9
 2093 352 2093 352 2021 239.5 c 128,-1,10
 1949 127 1949 127 1818 64 c 128,-1,11
 1687 1 1687 1 1519 0 c 2,12,-1
 981 0 l 1,13,-1
 981 577 l 1,14,-1
 459 577 l 1,15,-1
 459 0 l 1,16,-1
 108 0 l 1,17,-1
 108 1456 l 1,18,-1
 459 1456 l 1,19,-1
 459 847 l 1,0,-1
1331 720 m 1,20,-1
 1331 268 l 1,21,-1
 1512 268 l 2,22,23
 1615 268 1615 268 1679.5 332.5 c 128,-1,24
 1744 397 1744 397 1744 497 c 0,25,26
 1744 593 1744 593 1680.5 656 c 128,-1,27
 1617 719 1617 719 1514 720 c 2,28,-1
 1331 720 l 1,20,-1
EndSplineSet
Substitution2: "'c2sc' +BBoEMAQ/BDgEQgQ1BDsETAAA +BDgENwAA +BD8EQAQ+BD8EOARBBD0ESwRF lookup 0 subtable" uni040A.c2sc
Position2: "'cpsp' +BBgEPQRCBDUEQAQyBDAEOwAA +BD8EQAQ+BD8EOARBBD0ESwRF lookup 0 subtable" dx=36 dy=0 dh=72 dv=0
EndChar

StartChar: uni040B
Encoding: 1035 1035 214
Width: 1531
Flags: W
LayerCount: 2
Fore
SplineSet
1118 1185 m 1,0,-1
 682 1185 l 1,1,-1
 682 928 l 1,2,3
 774 939 774 939 839 939 c 0,4,5
 1128 939 1128 939 1284.5 814 c 128,-1,6
 1441 689 1441 689 1445 455 c 1,7,-1
 1445 1 l 1,8,-1
 1095 1 l 1,9,-1
 1095 446 l 2,10,11
 1095 564 1095 564 1037.5 616.5 c 128,-1,12
 980 669 980 669 839 669 c 0,13,14
 785 669 785 669 682 658 c 1,15,-1
 682 0 l 1,16,-1
 331 0 l 1,17,-1
 331 1185 l 1,18,-1
 16 1185 l 1,19,-1
 16 1456 l 1,20,-1
 1118 1456 l 1,21,-1
 1118 1185 l 1,0,-1
EndSplineSet
Substitution2: "'c2sc' +BBoEMAQ/BDgEQgQ1BDsETAAA +BDgENwAA +BD8EQAQ+BD8EOARBBD0ESwRF lookup 0 subtable" uni040B.c2sc
Position2: "'cpsp' +BBgEPQRCBDUEQAQyBDAEOwAA +BD8EQAQ+BD8EOARBBD0ESwRF lookup 0 subtable" dx=36 dy=0 dh=72 dv=0
EndChar

StartChar: uni040F
Encoding: 1039 1039 215
Width: 1419
Flags: W
LayerCount: 2
Fore
SplineSet
890 270 m 1,0,-1
 958 270 l 1,1,-1
 958 1456 l 1,2,-1
 1310 1456 l 1,3,-1
 1310 0 l 1,4,-1
 890 0 l 1,5,-1
 890 -360 l 1,6,-1
 538 -360 l 1,7,-1
 538 0 l 1,8,-1
 86 0 l 1,9,-1
 86 1456 l 1,10,-1
 435 1456 l 1,11,-1
 435 270 l 1,12,-1
 538 270 l 1,13,-1
 538 271 l 1,14,-1
 890 271 l 1,15,-1
 890 270 l 1,0,-1
EndSplineSet
Substitution2: "'c2sc' +BBoEMAQ/BDgEQgQ1BDsETAAA +BDgENwAA +BD8EQAQ+BD8EOARBBD0ESwRF lookup 0 subtable" uni040F.c2sc
Position2: "'cpsp' +BBgEPQRCBDUEQAQyBDAEOwAA +BD8EQAQ+BD8EOARBBD0ESwRF lookup 0 subtable" dx=36 dy=0 dh=72 dv=0
EndChar

StartChar: uni0411
Encoding: 1041 1041 216
Width: 1279
Flags: W
LayerCount: 2
Fore
SplineSet
1094 1185 m 1,0,-1
 463 1185 l 1,1,-1
 463 955 l 1,2,-1
 644 955 l 2,3,4
 817 955 817 955 950 896 c 128,-1,5
 1083 837 1083 837 1154.5 729.5 c 128,-1,6
 1226 622 1226 622 1226 483 c 0,7,8
 1226 268 1226 268 1066.5 134 c 128,-1,9
 907 0 907 0 638 0 c 2,10,-1
 110 0 l 1,11,-1
 110 1456 l 1,12,-1
 1094 1456 l 1,13,-1
 1094 1185 l 1,0,-1
463 685 m 1,14,-1
 463 270 l 1,15,-1
 643 270 l 2,16,17
 750 270 750 270 812.5 330 c 128,-1,18
 875 390 875 390 875 485 c 0,19,20
 875 575 875 575 813 630 c 128,-1,21
 751 685 751 685 641 685 c 2,22,-1
 463 685 l 1,14,-1
EndSplineSet
Substitution2: "'c2sc' +BBoEMAQ/BDgEQgQ1BDsETAAA +BDgENwAA +BD8EQAQ+BD8EOARBBD0ESwRF lookup 0 subtable" uni0411.c2sc
Position2: "'cpsp' +BBgEPQRCBDUEQAQyBDAEOwAA +BD8EQAQ+BD8EOARBBD0ESwRF lookup 0 subtable" dx=36 dy=0 dh=72 dv=0
EndChar

StartChar: uni0414
Encoding: 1044 1044 217
Width: 1520
Flags: W
LayerCount: 2
Fore
SplineSet
1472 -358 m 1,0,-1
 1157 -358 l 1,1,-1
 1157 0 l 1,2,-1
 364 0 l 1,3,-1
 364 -357 l 1,4,-1
 39 -357 l 1,5,-1
 14 270 l 1,6,-1
 117 270 l 1,7,8
 198 324 198 324 247.5 455.5 c 128,-1,9
 297 587 297 587 318 833 c 2,10,-1
 363 1456 l 1,11,-1
 1354 1456 l 1,12,-1
 1354 270 l 1,13,-1
 1509 270 l 1,14,-1
 1472 -358 l 1,0,-1
514 270 m 1,15,-1
 1004 270 l 1,16,-1
 1004 1185 l 1,17,-1
 694 1185 l 1,18,-1
 667 821 l 2,19,20
 637 467 637 467 514 270 c 1,15,-1
EndSplineSet
Substitution2: "'c2sc' +BBoEMAQ/BDgEQgQ1BDsETAAA +BDgENwAA +BD8EQAQ+BD8EOARBBD0ESwRF lookup 0 subtable" uni0414.c2sc
Position2: "'cpsp' +BBgEPQRCBDUEQAQyBDAEOwAA +BD8EQAQ+BD8EOARBBD0ESwRF lookup 0 subtable" dx=36 dy=0 dh=72 dv=0
EndChar

StartChar: uni0416
Encoding: 1046 1046 218
Width: 2136
GlyphClass: 2
Flags: W
LayerCount: 2
Fore
SplineSet
1435 569 m 1,0,-1
 1257 569 l 1,1,-1
 1257 0 l 1,2,-1
 908 0 l 1,3,-1
 908 569 l 1,4,-1
 727 569 l 1,5,-1
 447 0 l 1,6,-1
 11 0 l 1,7,-1
 450 795 l 1,8,-1
 24 1456 l 1,9,-1
 467 1456 l 1,10,-1
 765 885 l 1,11,-1
 908 885 l 1,12,-1
 908 1456 l 1,13,-1
 1257 1456 l 1,14,-1
 1257 885 l 1,15,-1
 1399 885 l 1,16,-1
 1684 1456 l 1,17,-1
 2126 1456 l 1,18,-1
 1711 797 l 1,19,-1
 2141 0 l 1,20,-1
 1703 0 l 1,21,-1
 1435 569 l 1,0,-1
EndSplineSet
Substitution2: "'c2sc' +BBoEMAQ/BDgEQgQ1BDsETAAA +BDgENwAA +BD8EQAQ+BD8EOARBBD0ESwRF lookup 0 subtable" uni0416.c2sc
Position2: "'cpsp' +BBgEPQRCBDUEQAQyBDAEOwAA +BD8EQAQ+BD8EOARBBD0ESwRF lookup 0 subtable" dx=36 dy=0 dh=72 dv=0
EndChar

StartChar: uni0417
Encoding: 1047 1047 219
Width: 1289
GlyphClass: 2
Flags: W
LayerCount: 2
Fore
SplineSet
819 1052 m 0,0,1
 819 1121 819 1121 765.5 1163 c 128,-1,2
 712 1205 712 1205 621 1205 c 0,3,4
 536 1205 536 1205 484.5 1164.5 c 128,-1,5
 433 1124 433 1124 433 1058 c 1,6,-1
 83 1058 l 1,7,8
 83 1178 83 1178 151.5 1273 c 128,-1,9
 220 1368 220 1368 345 1421.5 c 128,-1,10
 470 1475 470 1475 621 1475 c 0,11,12
 881 1475 881 1475 1025.5 1366 c 128,-1,13
 1170 1257 1170 1257 1170 1061 c 0,14,15
 1170 961 1170 961 1111.5 878.5 c 128,-1,16
 1053 796 1053 796 950 748 c 1,17,18
 1068 706 1068 706 1130.5 620.5 c 128,-1,19
 1193 535 1193 535 1193 408 c 0,20,21
 1193 212 1193 212 1037 96.5 c 128,-1,22
 881 -19 881 -19 621 -19 c 0,23,24
 380 -19 380 -19 221 94.5 c 128,-1,25
 62 208 62 208 62 404 c 1,26,-1
 414 404 l 1,27,28
 414 339 414 339 472 294.5 c 128,-1,29
 530 250 530 250 621 250 c 0,30,31
 719 250 719 250 780 296 c 128,-1,32
 841 342 841 342 841 416 c 0,33,34
 841 524 841 524 789 568.5 c 128,-1,35
 737 613 737 613 637 613 c 2,36,-1
 450 613 l 1,37,-1
 450 873 l 1,38,-1
 649 873 l 1,39,40
 819 878 819 878 819 1052 c 0,0,1
EndSplineSet
Substitution2: "'c2sc' +BBoEMAQ/BDgEQgQ1BDsETAAA +BDgENwAA +BD8EQAQ+BD8EOARBBD0ESwRF lookup 0 subtable" uni0417.c2sc
Position2: "'cpsp' +BBgEPQRCBDUEQAQyBDAEOwAA +BD8EQAQ+BD8EOARBBD0ESwRF lookup 0 subtable" dx=36 dy=0 dh=72 dv=0
EndChar

StartChar: uni0418
Encoding: 1048 1048 220
Width: 1419
GlyphClass: 2
Flags: W
LayerCount: 2
Fore
SplineSet
964 1456 m 1,0,-1
 1315 1456 l 1,1,-1
 1315 0 l 1,2,-1
 964 0 l 1,3,-1
 964 918 l 1,4,-1
 441 0 l 1,5,-1
 90 0 l 1,6,-1
 90 1456 l 1,7,-1
 441 1456 l 1,8,-1
 441 537 l 1,9,-1
 964 1456 l 1,0,-1
EndSplineSet
Substitution2: "'c2sc' +BBoEMAQ/BDgEQgQ1BDsETAAA +BDgENwAA +BD8EQAQ+BD8EOARBBD0ESwRF lookup 0 subtable" uni0418.c2sc
Position2: "'cpsp' +BBgEPQRCBDUEQAQyBDAEOwAA +BD8EQAQ+BD8EOARBBD0ESwRF lookup 0 subtable" dx=36 dy=0 dh=72 dv=0
EndChar

StartChar: uni041B
Encoding: 1051 1051 221
Width: 1444
GlyphClass: 2
Flags: W
LayerCount: 2
Fore
SplineSet
1335 1456 m 1,0,-1
 1335 0 l 1,1,-1
 984 0 l 1,2,-1
 984 1185 l 1,3,-1
 657 1185 l 1,4,-1
 633 696 l 2,5,6
 618 443 618 443 563 292 c 128,-1,7
 508 141 508 141 406.5 71.5 c 128,-1,8
 305 2 305 2 130 0 c 2,9,-1
 36 0 l 1,10,-1
 36 270 l 1,11,-1
 85 275 l 1,12,13
 190 290 190 290 237 403.5 c 128,-1,14
 284 517 284 517 298 786 c 2,15,-1
 323 1456 l 1,16,-1
 1335 1456 l 1,0,-1
EndSplineSet
Substitution2: "'c2sc' +BBoEMAQ/BDgEQgQ1BDsETAAA +BDgENwAA +BD8EQAQ+BD8EOARBBD0ESwRF lookup 0 subtable" uni041B.c2sc
Position2: "'cpsp' +BBgEPQRCBDUEQAQyBDAEOwAA +BD8EQAQ+BD8EOARBBD0ESwRF lookup 0 subtable" dx=36 dy=0 dh=72 dv=0
EndChar

StartChar: uni0423
Encoding: 1059 1059 222
Width: 1295
GlyphClass: 2
Flags: W
LayerCount: 2
Fore
SplineSet
675 824 m 1,0,-1
 675 823 l 1,1,-1
 916 1456 l 1,2,-1
 1286 1456 l 1,3,-1
 796 301 l 1,4,5
 717 126 717 126 618.5 54.5 c 128,-1,6
 520 -17 520 -17 388 -21 c 1,7,-1
 317 -21 l 1,8,-1
 263 -19 l 1,9,-1
 257 253 l 1,10,11
 269 249 269 249 327 249 c 0,12,13
 407 249 407 249 447.5 276.5 c 128,-1,14
 488 304 488 304 513 383 c 2,15,-1
 530 431 l 1,16,-1
 4 1456 l 1,17,-1
 377 1456 l 1,18,-1
 675 824 l 1,0,-1
EndSplineSet
Substitution2: "'c2sc' +BBoEMAQ/BDgEQgQ1BDsETAAA +BDgENwAA +BD8EQAQ+BD8EOARBBD0ESwRF lookup 0 subtable" uni0423.c2sc
Position2: "'cpsp' +BBgEPQRCBDUEQAQyBDAEOwAA +BD8EQAQ+BD8EOARBBD0ESwRF lookup 0 subtable" dx=36 dy=0 dh=72 dv=0
EndChar

StartChar: uni0424
Encoding: 1060 1060 223
Width: 1715
Flags: W
LayerCount: 2
Fore
SplineSet
1030 1332 m 1,0,1
 1314 1332 1314 1332 1482.5 1162.5 c 128,-1,2
 1651 993 1651 993 1651 719 c 0,3,4
 1651 585 1651 585 1606.5 475.5 c 128,-1,5
 1562 366 1562 366 1482 289 c 0,6,7
 1313 124 1313 124 1030 124 c 1,8,-1
 1030 -60 l 1,9,-1
 692 -60 l 1,10,-1
 692 124 l 1,11,12
 405 124 405 124 236 289 c 128,-1,13
 67 454 67 454 67 717 c 0,14,15
 67 856 67 856 112 969 c 128,-1,16
 157 1082 157 1082 238 1162 c 0,17,18
 408 1332 408 1332 692 1332 c 1,19,-1
 692 1516 l 1,20,-1
 1030 1516 l 1,21,-1
 1030 1332 l 1,0,1
679 1050 m 2,22,23
 548 1050 548 1050 472.5 962 c 128,-1,24
 397 874 397 874 397 717 c 0,25,26
 397 573 397 573 473 489.5 c 128,-1,27
 549 406 549 406 692 406 c 1,28,-1
 692 1050 l 1,29,-1
 679 1050 l 2,22,23
1030 1050 m 1,30,-1
 1030 406 l 1,31,-1
 1045 406 l 2,32,33
 1170 406 1170 406 1245.5 488.5 c 128,-1,34
 1321 571 1321 571 1321 719 c 0,35,36
 1321 873 1321 873 1247.5 961.5 c 128,-1,37
 1174 1050 1174 1050 1030 1050 c 1,30,-1
EndSplineSet
Substitution2: "'c2sc' +BBoEMAQ/BDgEQgQ1BDsETAAA +BDgENwAA +BD8EQAQ+BD8EOARBBD0ESwRF lookup 0 subtable" uni0424.c2sc
Position2: "'cpsp' +BBgEPQRCBDUEQAQyBDAEOwAA +BD8EQAQ+BD8EOARBBD0ESwRF lookup 0 subtable" dx=36 dy=0 dh=72 dv=0
EndChar

StartChar: uni0426
Encoding: 1062 1062 224
Width: 1580
Flags: W
LayerCount: 2
Fore
SplineSet
86 1456 m 1,0,-1
 435 1456 l 1,1,-1
 435 270 l 1,2,-1
 958 270 l 1,3,-1
 958 1456 l 1,4,-1
 1310 1456 l 1,5,-1
 1310 267 l 1,6,-1
 1533 267 l 1,7,-1
 1513 -351 l 1,8,-1
 1182 -351 l 1,9,-1
 1182 0 l 1,10,-1
 86 0 l 1,11,-1
 86 1456 l 1,0,-1
EndSplineSet
Substitution2: "'c2sc' +BBoEMAQ/BDgEQgQ1BDsETAAA +BDgENwAA +BD8EQAQ+BD8EOARBBD0ESwRF lookup 0 subtable" uni0426.c2sc
Position2: "'cpsp' +BBgEPQRCBDUEQAQyBDAEOwAA +BD8EQAQ+BD8EOARBBD0ESwRF lookup 0 subtable" dx=36 dy=0 dh=72 dv=0
EndChar

StartChar: uni0427
Encoding: 1063 1063 225
Width: 1431
GlyphClass: 2
Flags: W
LayerCount: 2
Fore
SplineSet
1323 1456 m 1,0,-1
 1323 0 l 1,1,-1
 973 0 l 1,2,-1
 973 538 l 1,3,-1
 870 525 l 1,4,-1
 741 517 l 1,5,6
 447 517 447 517 291 644.5 c 128,-1,7
 135 772 135 772 133 1006 c 2,8,-1
 133 1456 l 1,9,-1
 484 1456 l 1,10,-1
 484 1011 l 2,11,12
 484 892 484 892 541.5 839.5 c 128,-1,13
 599 787 599 787 741 787 c 1,14,-1
 771 788 l 2,15,16
 894 794 894 794 973 807 c 1,17,-1
 973 1456 l 1,18,-1
 1323 1456 l 1,0,-1
EndSplineSet
Substitution2: "'c2sc' +BBoEMAQ/BDgEQgQ1BDsETAAA +BDgENwAA +BD8EQAQ+BD8EOARBBD0ESwRF lookup 0 subtable" uni0427.c2sc
Position2: "'cpsp' +BBgEPQRCBDUEQAQyBDAEOwAA +BD8EQAQ+BD8EOARBBD0ESwRF lookup 0 subtable" dx=36 dy=0 dh=72 dv=0
EndChar

StartChar: uni0428
Encoding: 1064 1064 226
Width: 1979
Flags: W
LayerCount: 2
Fore
SplineSet
454 1456 m 1,0,-1
 454 270 l 1,1,-1
 816 270 l 1,2,-1
 816 1456 l 1,3,-1
 1167 1456 l 1,4,-1
 1167 270 l 1,5,-1
 1525 270 l 1,6,-1
 1525 1456 l 1,7,-1
 1874 1456 l 1,8,-1
 1874 0 l 1,9,-1
 103 0 l 1,10,-1
 103 1456 l 1,11,-1
 454 1456 l 1,0,-1
EndSplineSet
Substitution2: "'c2sc' +BBoEMAQ/BDgEQgQ1BDsETAAA +BDgENwAA +BD8EQAQ+BD8EOARBBD0ESwRF lookup 0 subtable" uni0428.c2sc
Position2: "'cpsp' +BBgEPQRCBDUEQAQyBDAEOwAA +BD8EQAQ+BD8EOARBBD0ESwRF lookup 0 subtable" dx=36 dy=0 dh=72 dv=0
EndChar

StartChar: uni0429
Encoding: 1065 1065 227
Width: 2143
Flags: W
LayerCount: 2
Fore
SplineSet
454 1456 m 1,0,-1
 454 270 l 1,1,-1
 816 270 l 1,2,-1
 816 1456 l 1,3,-1
 1167 1456 l 1,4,-1
 1167 270 l 1,5,-1
 1525 270 l 1,6,-1
 1525 1456 l 1,7,-1
 1874 1456 l 1,8,-1
 1874 259 l 1,9,-1
 2090 259 l 1,10,-1
 2070 -350 l 1,11,-1
 1752 -350 l 1,12,-1
 1752 0 l 1,13,-1
 103 0 l 1,14,-1
 103 1456 l 1,15,-1
 454 1456 l 1,0,-1
EndSplineSet
Substitution2: "'c2sc' +BBoEMAQ/BDgEQgQ1BDsETAAA +BDgENwAA +BD8EQAQ+BD8EOARBBD0ESwRF lookup 0 subtable" uni0429.c2sc
Position2: "'cpsp' +BBgEPQRCBDUEQAQyBDAEOwAA +BD8EQAQ+BD8EOARBBD0ESwRF lookup 0 subtable" dx=36 dy=0 dh=72 dv=0
EndChar

StartChar: uni042A
Encoding: 1066 1066 228
Width: 1595
Flags: W
LayerCount: 2
Fore
SplineSet
27 1456 m 1,0,-1
 780 1456 l 1,1,-1
 780 955 l 1,2,-1
 961 955 l 2,3,4
 1134 955 1134 955 1267 896 c 128,-1,5
 1400 837 1400 837 1471.5 729.5 c 128,-1,6
 1543 622 1543 622 1543 483 c 0,7,8
 1543 268 1543 268 1383.5 134 c 128,-1,9
 1224 0 1224 0 955 0 c 2,10,-1
 428 0 l 1,11,-1
 428 1196 l 1,12,-1
 27 1196 l 1,13,-1
 27 1456 l 1,0,-1
780 685 m 1,14,-1
 780 270 l 1,15,-1
 960 270 l 2,16,17
 1067 270 1067 270 1129.5 330 c 128,-1,18
 1192 390 1192 390 1192 485 c 0,19,20
 1192 575 1192 575 1130 630 c 128,-1,21
 1068 685 1068 685 958 685 c 2,22,-1
 780 685 l 1,14,-1
EndSplineSet
Substitution2: "'c2sc' +BBoEMAQ/BDgEQgQ1BDsETAAA +BDgENwAA +BD8EQAQ+BD8EOARBBD0ESwRF lookup 0 subtable" uni042A.c2sc
Position2: "'cpsp' +BBgEPQRCBDUEQAQyBDAEOwAA +BD8EQAQ+BD8EOARBBD0ESwRF lookup 0 subtable" dx=36 dy=0 dh=72 dv=0
EndChar

StartChar: uni042B
Encoding: 1067 1067 229
Width: 1785
GlyphClass: 2
Flags: W
LayerCount: 2
Fore
SplineSet
461 955 m 1,0,-1
 642 955 l 2,1,2
 815 955 815 955 948 896 c 128,-1,3
 1081 837 1081 837 1152.5 729.5 c 128,-1,4
 1224 622 1224 622 1224 483 c 0,5,6
 1224 268 1224 268 1064.5 134 c 128,-1,7
 905 0 905 0 636 0 c 2,8,-1
 109 0 l 1,9,-1
 109 1456 l 1,10,-1
 461 1456 l 1,11,-1
 461 955 l 1,0,-1
1680 0 m 1,12,-1
 1330 0 l 1,13,-1
 1330 1456 l 1,14,-1
 1680 1456 l 1,15,-1
 1680 0 l 1,12,-1
461 685 m 1,16,-1
 461 270 l 1,17,-1
 641 270 l 2,18,19
 748 270 748 270 810.5 330 c 128,-1,20
 873 390 873 390 873 485 c 0,21,22
 873 575 873 575 811 630 c 128,-1,23
 749 685 749 685 639 685 c 2,24,-1
 461 685 l 1,16,-1
EndSplineSet
Substitution2: "'c2sc' +BBoEMAQ/BDgEQgQ1BDsETAAA +BDgENwAA +BD8EQAQ+BD8EOARBBD0ESwRF lookup 0 subtable" uni042B.c2sc
Position2: "'cpsp' +BBgEPQRCBDUEQAQyBDAEOwAA +BD8EQAQ+BD8EOARBBD0ESwRF lookup 0 subtable" dx=36 dy=0 dh=72 dv=0
EndChar

StartChar: uni042C
Encoding: 1068 1068 230
Width: 1276
Flags: W
LayerCount: 2
Fore
SplineSet
463 955 m 1,0,-1
 644 955 l 2,1,2
 817 955 817 955 950 896 c 128,-1,3
 1083 837 1083 837 1154.5 729.5 c 128,-1,4
 1226 622 1226 622 1226 483 c 0,5,6
 1226 268 1226 268 1066.5 134 c 128,-1,7
 907 0 907 0 638 0 c 2,8,-1
 111 0 l 1,9,-1
 111 1456 l 1,10,-1
 463 1456 l 1,11,-1
 463 955 l 1,0,-1
463 685 m 1,12,-1
 463 270 l 1,13,-1
 643 270 l 2,14,15
 750 270 750 270 812.5 330 c 128,-1,16
 875 390 875 390 875 485 c 0,17,18
 875 575 875 575 813 630 c 128,-1,19
 751 685 751 685 641 685 c 2,20,-1
 463 685 l 1,12,-1
EndSplineSet
Substitution2: "'c2sc' +BBoEMAQ/BDgEQgQ1BDsETAAA +BDgENwAA +BD8EQAQ+BD8EOARBBD0ESwRF lookup 0 subtable" uni042C.c2sc
Position2: "'cpsp' +BBgEPQRCBDUEQAQyBDAEOwAA +BD8EQAQ+BD8EOARBBD0ESwRF lookup 0 subtable" dx=36 dy=0 dh=72 dv=0
EndChar

StartChar: uni042D
Encoding: 1069 1069 231
Width: 1302
GlyphClass: 2
Flags: W
LayerCount: 2
Fore
SplineSet
367 492 m 1,0,1
 375 248 375 248 619 248 c 0,2,3
 744 248 744 248 807.5 327 c 128,-1,4
 871 406 871 406 883 593 c 1,5,-1
 481 593 l 1,6,-1
 481 864 l 1,7,-1
 883 864 l 1,8,9
 869 1044 869 1044 804 1124.5 c 128,-1,10
 739 1205 739 1205 624 1205 c 0,11,12
 495 1205 495 1205 431.5 1145.5 c 128,-1,13
 368 1086 368 1086 364 952 c 1,14,-1
 15 952 l 1,15,16
 37 1197 37 1197 198 1336.5 c 128,-1,17
 359 1476 359 1476 624 1476 c 0,18,19
 806 1476 806 1476 945.5 1390 c 128,-1,20
 1085 1304 1085 1304 1160.5 1142.5 c 128,-1,21
 1236 981 1236 981 1236 766 c 2,22,-1
 1236 687 l 2,23,24
 1236 353 1236 353 1071 166 c 128,-1,25
 906 -21 906 -21 619 -21 c 0,26,27
 446 -21 446 -21 311.5 42.5 c 128,-1,28
 177 106 177 106 101 222.5 c 128,-1,29
 25 339 25 339 17 492 c 1,30,-1
 367 492 l 1,0,1
EndSplineSet
Substitution2: "'c2sc' +BBoEMAQ/BDgEQgQ1BDsETAAA +BDgENwAA +BD8EQAQ+BD8EOARBBD0ESwRF lookup 0 subtable" uni042D.c2sc
Position2: "'cpsp' +BBgEPQRCBDUEQAQyBDAEOwAA +BD8EQAQ+BD8EOARBBD0ESwRF lookup 0 subtable" dx=36 dy=0 dh=72 dv=0
EndChar

StartChar: uni042E
Encoding: 1070 1070 232
Width: 1991
GlyphClass: 2
Flags: W
LayerCount: 2
Fore
SplineSet
1889 698 m 2,0,1
 1889 485 1889 485 1810 321 c 128,-1,2
 1731 157 1731 157 1585.5 68.5 c 128,-1,3
 1440 -20 1440 -20 1254 -20 c 0,4,5
 1086 -20 1086 -20 951.5 50 c 128,-1,6
 817 120 817 120 732 252.5 c 128,-1,7
 647 385 647 385 624 561 c 1,8,-1
 473 561 l 1,9,-1
 473 0 l 1,10,-1
 123 0 l 1,11,-1
 123 1456 l 1,12,-1
 473 1456 l 1,13,-1
 473 822 l 1,14,-1
 617 822 l 1,15,16
 629 1019 629 1019 710.5 1168 c 128,-1,17
 792 1317 792 1317 933 1396.5 c 128,-1,18
 1074 1476 1074 1476 1252 1476 c 0,19,20
 1437 1476 1437 1476 1582 1388 c 128,-1,21
 1727 1300 1727 1300 1807.5 1137.5 c 128,-1,22
 1888 975 1888 975 1889 765 c 2,23,-1
 1889 698 l 2,0,1
1532 759 m 2,24,25
 1532 976 1532 976 1459.5 1088.5 c 128,-1,26
 1387 1201 1387 1201 1252 1201 c 0,27,28
 988 1201 988 1201 973 805 c 1,29,-1
 972 698 l 2,30,31
 972 484 972 484 1043 369 c 128,-1,32
 1114 254 1114 254 1254 254 c 0,33,34
 1387 254 1387 254 1459 367 c 128,-1,35
 1531 480 1531 480 1532 692 c 2,36,-1
 1532 759 l 2,24,25
EndSplineSet
Substitution2: "'c2sc' +BBoEMAQ/BDgEQgQ1BDsETAAA +BDgENwAA +BD8EQAQ+BD8EOARBBD0ESwRF lookup 0 subtable" uni042E.c2sc
Position2: "'cpsp' +BBgEPQRCBDUEQAQyBDAEOwAA +BD8EQAQ+BD8EOARBBD0ESwRF lookup 0 subtable" dx=36 dy=0 dh=72 dv=0
EndChar

StartChar: uni042F
Encoding: 1071 1071 233
Width: 1172
GlyphClass: 2
Flags: W
LayerCount: 2
Fore
SplineSet
737 0 m 1,0,-1
 737 511 l 1,1,-1
 535 511 l 1,2,-1
 289 0 l 1,3,-1
 -92 0 l 1,4,-1
 207 630 l 1,5,6
 12 757 12 757 12 1003 c 0,7,8
 12 1219 12 1219 154 1337.5 c 128,-1,9
 296 1456 296 1456 563 1456 c 2,10,-1
 1089 1456 l 1,11,-1
 1089 0 l 1,12,-1
 737 0 l 1,0,-1
362 972 m 0,13,14
 362 861 362 861 407 811 c 128,-1,15
 452 761 452 761 558 761 c 2,16,-1
 737 761 l 1,17,-1
 737 1185 l 1,18,-1
 560 1185 l 2,19,20
 455 1185 455 1185 408.5 1130.5 c 128,-1,21
 362 1076 362 1076 362 972 c 0,13,14
EndSplineSet
Substitution2: "'c2sc' +BBoEMAQ/BDgEQgQ1BDsETAAA +BDgENwAA +BD8EQAQ+BD8EOARBBD0ESwRF lookup 0 subtable" uni042F.c2sc
Position2: "'cpsp' +BBgEPQRCBDUEQAQyBDAEOwAA +BD8EQAQ+BD8EOARBBD0ESwRF lookup 0 subtable" dx=36 dy=0 dh=72 dv=0
EndChar

StartChar: uni0431
Encoding: 1073 1073 234
Width: 1183
Flags: W
LayerCount: 2
Fore
SplineSet
663 1022 m 0,0,1
 875 1022 875 1022 999.5 883 c 128,-1,2
 1124 744 1124 744 1124 504 c 2,3,-1
 1124 490 l 2,4,5
 1124 338 1124 338 1061 221.5 c 128,-1,6
 998 105 998 105 879.5 42 c 128,-1,7
 761 -21 761 -21 602 -21 c 0,8,9
 362 -21 362 -21 219.5 133 c 128,-1,10
 77 287 77 287 77 557 c 2,11,-1
 77 589 l 2,12,13
 79 959 79 959 199 1171 c 128,-1,14
 319 1383 319 1383 566 1438 c 0,15,16
 677 1463 677 1463 711.5 1486.5 c 128,-1,17
 746 1510 746 1510 746 1560 c 1,18,-1
 1017 1560 l 1,19,20
 1017 1435 1017 1435 978.5 1370 c 128,-1,21
 940 1305 940 1305 856.5 1262.5 c 128,-1,22
 773 1220 773 1220 622 1192 c 0,23,24
 503 1170 503 1170 438.5 1098.5 c 128,-1,25
 374 1027 374 1027 351 899 c 1,26,27
 486 1022 486 1022 663 1022 c 0,0,1
600 762 m 0,28,29
 415 762 415 762 415 506 c 2,30,-1
 415 490 l 2,31,32
 415 239 415 239 602 239 c 0,33,34
 783 239 783 239 787 479 c 1,35,-1
 787 511 l 2,36,37
 787 762 787 762 600 762 c 0,28,29
EndSplineSet
Substitution2: "'smcp' Lowercase to Small Capitals lookup 1 subtable" uni0411.c2sc
EndChar

StartChar: uni0432
Encoding: 1074 1074 235
Width: 1150
GlyphClass: 2
Flags: W
LayerCount: 2
Fore
SplineSet
117 0 m 1,0,-1
 117 1082 l 1,1,-1
 581 1082 l 2,2,3
 804 1082 804 1082 922.5 1004 c 128,-1,4
 1041 926 1041 926 1041 779 c 0,5,6
 1041 704 1041 704 989 644.5 c 128,-1,7
 937 585 937 585 837 553 c 1,8,9
 966 531 966 531 1036 467.5 c 128,-1,10
 1106 404 1106 404 1106 309 c 0,11,12
 1106 156 1106 156 990.5 78.5 c 128,-1,13
 875 1 875 1 658 0 c 2,14,-1
 117 0 l 1,0,-1
455 441 m 1,15,-1
 455 258 l 1,16,-1
 652 258 l 2,17,18
 715 258 715 258 742 280 c 128,-1,19
 769 302 769 302 769 347 c 0,20,21
 769 437 769 437 665 441 c 1,22,-1
 455 441 l 1,15,-1
455 649 m 1,23,-1
 594 649 l 2,24,25
 655 649 655 649 679.5 669.5 c 128,-1,26
 704 690 704 690 704 730 c 0,27,28
 704 782 704 782 674 803 c 128,-1,29
 644 824 644 824 581 824 c 2,30,-1
 455 824 l 1,31,-1
 455 649 l 1,23,-1
EndSplineSet
Substitution2: "'smcp' Lowercase to Small Capitals lookup 1 subtable" uni0412.c2sc
EndChar

StartChar: uni0433
Encoding: 1075 1075 236
Width: 857
GlyphClass: 2
Flags: W
LayerCount: 2
Fore
SplineSet
852 822 m 1,0,-1
 426 822 l 1,1,-1
 426 0 l 1,2,-1
 88 0 l 1,3,-1
 88 1082 l 1,4,-1
 852 1082 l 1,5,-1
 852 822 l 1,0,-1
EndSplineSet
Substitution2: "'smcp' Lowercase to Small Capitals lookup 1 subtable" uni0413.c2sc
EndChar

StartChar: uni0434
Encoding: 1076 1076 237
Width: 1317
GlyphClass: 2
Flags: W
LayerCount: 2
Fore
SplineSet
123 260 m 1,0,1
 204 341 204 341 240.5 421 c 128,-1,2
 277 501 277 501 283 607 c 2,3,-1
 286 681 l 1,4,-1
 292 1082 l 1,5,-1
 1135 1082 l 1,6,-1
 1135 260 l 1,7,-1
 1297 260 l 1,8,-1
 1297 -328 l 1,9,-1
 959 -328 l 1,10,-1
 959 0 l 1,11,-1
 373 0 l 1,12,-1
 373 -328 l 1,13,-1
 27 -328 l 1,14,-1
 26 260 l 1,15,-1
 123 260 l 1,0,1
511 260 m 1,16,-1
 799 260 l 1,17,-1
 799 822 l 1,18,-1
 626 822 l 1,19,-1
 625 733 l 2,20,21
 618 441 618 441 511 260 c 1,16,-1
EndSplineSet
Substitution2: "'smcp' Lowercase to Small Capitals lookup 1 subtable" uni0414.c2sc
EndChar

StartChar: uni0436
Encoding: 1078 1078 238
Width: 1847
GlyphClass: 2
Flags: W
LayerCount: 2
Fore
SplineSet
1225 378 m 1,0,-1
 1097 378 l 1,1,-1
 1097 0 l 1,2,-1
 760 0 l 1,3,-1
 760 378 l 1,4,-1
 635 378 l 1,5,-1
 450 0 l 1,6,-1
 50 0 l 1,7,-1
 372 579 l 1,8,-1
 37 1082 l 1,9,-1
 458 1082 l 1,10,-1
 663 693 l 1,11,-1
 760 693 l 1,12,-1
 760 1082 l 1,13,-1
 1097 1082 l 1,14,-1
 1097 693 l 1,15,-1
 1197 693 l 1,16,-1
 1403 1082 l 1,17,-1
 1824 1082 l 1,18,-1
 1487 577 l 1,19,-1
 1497 582 l 1,20,-1
 1821 0 l 1,21,-1
 1409 0 l 1,22,-1
 1225 378 l 1,0,-1
EndSplineSet
Substitution2: "'smcp' Lowercase to Small Capitals lookup 1 subtable" uni0416.c2sc
EndChar

StartChar: uni0437
Encoding: 1079 1079 239
Width: 1059
GlyphClass: 2
Flags: W
LayerCount: 2
Fore
SplineSet
655 755 m 0,0,1
 655 861 655 861 543 861 c 0,2,3
 414 861 414 861 414 768 c 1,4,-1
 77 768 l 1,5,6
 77 915 77 915 200.5 1008 c 128,-1,7
 324 1101 324 1101 521 1101 c 0,8,9
 740 1101 740 1101 866 1018.5 c 128,-1,10
 992 936 992 936 992 786 c 0,11,12
 992 714 992 714 948.5 653.5 c 128,-1,13
 905 593 905 593 826 557 c 1,14,15
 1011 492 1011 492 1011 306 c 0,16,17
 1011 158 1011 158 877.5 69 c 128,-1,18
 744 -20 744 -20 521 -20 c 0,19,20
 318 -20 318 -20 189 72.5 c 128,-1,21
 60 165 60 165 60 320 c 1,22,-1
 397 320 l 1,23,24
 397 279 397 279 431 249.5 c 128,-1,25
 465 220 465 220 544 220 c 0,26,27
 608 220 608 220 641.5 251 c 128,-1,28
 675 282 675 282 675 336 c 0,29,30
 675 452 675 452 546 456 c 1,31,-1
 395 456 l 1,32,-1
 395 652 l 1,33,-1
 532 652 l 2,34,35
 655 652 655 652 655 755 c 0,0,1
EndSplineSet
Substitution2: "'smcp' Lowercase to Small Capitals lookup 1 subtable" uni0417.c2sc
EndChar

StartChar: uni0438
Encoding: 1080 1080 240
Width: 1148
GlyphClass: 2
Flags: W
LayerCount: 2
Fore
SplineSet
724 1082 m 1,0,-1
 1062 1082 l 1,1,-1
 1062 0 l 1,2,-1
 724 0 l 1,3,-1
 724 630 l 1,4,-1
 427 0 l 1,5,-1
 88 0 l 1,6,-1
 88 1082 l 1,7,-1
 427 1082 l 1,8,-1
 427 454 l 1,9,-1
 724 1082 l 1,0,-1
EndSplineSet
Substitution2: "'smcp' Lowercase to Small Capitals lookup 1 subtable" uni0418.c2sc
EndChar

StartChar: uni043A
Encoding: 1082 1082 241
Width: 1174
GlyphClass: 2
Flags: W
LayerCount: 2
Fore
SplineSet
556 378 m 1,0,-1
 455 378 l 1,1,-1
 455 0 l 1,2,-1
 117 0 l 1,3,-1
 117 1082 l 1,4,-1
 455 1082 l 1,5,-1
 455 693 l 1,6,-1
 552 693 l 1,7,-1
 724 1082 l 1,8,-1
 1156 1082 l 1,9,-1
 840 582 l 1,10,-1
 841 582 l 1,11,-1
 1188 0 l 1,12,-1
 731 0 l 1,13,-1
 556 378 l 1,0,-1
EndSplineSet
Substitution2: "'smcp' Lowercase to Small Capitals lookup 1 subtable" uni041A.c2sc
EndChar

StartChar: uni043B
Encoding: 1083 1083 242
Width: 1150
GlyphClass: 2
Flags: W
LayerCount: 2
Fore
SplineSet
1061 1082 m 1,0,-1
 1061 0 l 1,1,-1
 724 0 l 1,2,-1
 724 822 l 1,3,-1
 522 822 l 1,4,-1
 504 491 l 1,5,6
 485 245 485 245 393 123 c 128,-1,7
 301 1 301 1 120 0 c 2,8,-1
 14 0 l 1,9,-1
 10 258 l 1,10,-1
 45 262 l 2,11,12
 112 270 112 270 144.5 351.5 c 128,-1,13
 177 433 177 433 186 598 c 2,14,-1
 207 1082 l 1,15,-1
 1061 1082 l 1,0,-1
EndSplineSet
Substitution2: "'smcp' Lowercase to Small Capitals lookup 1 subtable" uni041B.c2sc
EndChar

StartChar: uni043C
Encoding: 1084 1084 243
Width: 1572
GlyphClass: 2
Flags: W
LayerCount: 2
Fore
SplineSet
772 372 m 1,0,-1
 1017 1082 l 1,1,-1
 1441 1082 l 1,2,-1
 1441 0 l 1,3,-1
 1103 0 l 1,4,-1
 1103 600 l 1,5,-1
 885 0 l 1,6,-1
 661 0 l 1,7,-1
 455 568 l 1,8,-1
 455 0 l 1,9,-1
 117 0 l 1,10,-1
 117 1082 l 1,11,-1
 531 1082 l 1,12,-1
 772 372 l 1,0,-1
EndSplineSet
Substitution2: "'smcp' Lowercase to Small Capitals lookup 1 subtable" uni041C.c2sc
EndChar

StartChar: uni043D
Encoding: 1085 1085 244
Width: 1148
GlyphClass: 2
Flags: W
LayerCount: 2
Fore
SplineSet
1058 0 m 1,0,-1
 720 0 l 1,1,-1
 720 401 l 1,2,-1
 425 401 l 1,3,-1
 425 0 l 1,4,-1
 88 0 l 1,5,-1
 88 1082 l 1,6,-1
 425 1082 l 1,7,-1
 425 660 l 1,8,-1
 720 660 l 1,9,-1
 720 1082 l 1,10,-1
 1058 1082 l 1,11,-1
 1058 0 l 1,0,-1
EndSplineSet
Substitution2: "'smcp' Lowercase to Small Capitals lookup 1 subtable" uni041D.c2sc
EndChar

StartChar: uni043F
Encoding: 1087 1087 245
Width: 1148
GlyphClass: 2
Flags: W
LayerCount: 2
Fore
SplineSet
1062 0 m 1,0,-1
 723 0 l 1,1,-1
 723 822 l 1,2,-1
 425 822 l 1,3,-1
 425 0 l 1,4,-1
 88 0 l 1,5,-1
 88 1082 l 1,6,-1
 1062 1082 l 1,7,-1
 1062 0 l 1,0,-1
EndSplineSet
Substitution2: "'smcp' Lowercase to Small Capitals lookup 1 subtable" uni041F.c2sc
EndChar

StartChar: uni0442
Encoding: 1090 1090 246
Width: 1073
GlyphClass: 2
Flags: W
LayerCount: 2
Fore
SplineSet
1042 824 m 1,0,-1
 701 824 l 1,1,-1
 701 0 l 1,2,-1
 362 0 l 1,3,-1
 362 824 l 1,4,-1
 26 824 l 1,5,-1
 26 1082 l 1,6,-1
 1042 1082 l 1,7,-1
 1042 824 l 1,0,-1
EndSplineSet
Substitution2: "'smcp' Lowercase to Small Capitals lookup 1 subtable" uni0422.c2sc
EndChar

StartChar: uni0444
Encoding: 1092 1092 247
Width: 1502
GlyphClass: 2
Flags: W
LayerCount: 2
Fore
SplineSet
53 539 m 2,0,1
 53 798 53 798 160.5 950 c 128,-1,2
 268 1102 268 1102 456 1102 c 0,3,4
 520 1102 520 1102 583 1076 c 1,5,-1
 583 1536 l 1,6,-1
 920 1536 l 1,7,-1
 920 1077 l 1,8,9
 978 1102 978 1102 1045 1102 c 0,10,11
 1234 1102 1234 1102 1341.5 949 c 128,-1,12
 1449 796 1449 796 1449 518 c 0,13,14
 1449 268 1449 268 1340.5 124 c 128,-1,15
 1232 -20 1232 -20 1047 -20 c 0,16,17
 977 -20 977 -20 920 3 c 1,18,-1
 920 -416 l 1,19,-1
 583 -416 l 1,20,-1
 583 4 l 1,21,22
 520 -20 520 -20 454 -20 c 0,23,24
 270 -20 270 -20 161.5 124 c 128,-1,25
 53 268 53 268 53 525 c 2,26,-1
 53 539 l 2,0,1
390 518 m 0,27,28
 390 244 390 244 535 241 c 2,29,-1
 561 241 l 1,30,-1
 583 243 l 1,31,-1
 583 839 l 1,32,-1
 541 842 l 1,33,34
 390 842 390 842 390 518 c 0,27,28
1111 539 m 2,35,36
 1111 682 1111 682 1073.5 762 c 128,-1,37
 1036 842 1036 842 962 842 c 1,38,-1
 920 839 l 1,39,-1
 920 242 l 1,40,-1
 964 240 l 1,41,42
 1099 240 1099 240 1110 471 c 1,43,-1
 1111 539 l 2,35,36
EndSplineSet
Substitution2: "'smcp' Lowercase to Small Capitals lookup 1 subtable" uni0424.c2sc
EndChar

StartChar: uni0446
Encoding: 1094 1094 248
Width: 1261
GlyphClass: 2
Flags: W
LayerCount: 2
Fore
SplineSet
88 1082 m 1,0,-1
 425 1082 l 1,1,-1
 425 260 l 1,2,-1
 723 260 l 1,3,-1
 723 1082 l 1,4,-1
 1062 1082 l 1,5,-1
 1062 258 l 1,6,-1
 1240 258 l 1,7,-1
 1220 -321 l 1,8,-1
 902 -321 l 1,9,-1
 902 0 l 1,10,-1
 88 0 l 1,11,-1
 88 1082 l 1,0,-1
EndSplineSet
Substitution2: "'smcp' Lowercase to Small Capitals lookup 1 subtable" uni0426.c2sc
EndChar

StartChar: uni0447
Encoding: 1095 1095 249
Width: 1142
GlyphClass: 2
Flags: W
LayerCount: 2
Fore
SplineSet
1056 0 m 1,0,-1
 717 0 l 1,1,-1
 717 325 l 1,2,3
 659 315 659 315 617 315 c 0,4,5
 350 315 350 315 215.5 418.5 c 128,-1,6
 81 522 81 522 80 729 c 2,7,-1
 80 1082 l 1,8,-1
 417 1082 l 1,9,-1
 417 726 l 2,10,11
 418 638 418 638 459 606.5 c 128,-1,12
 500 575 500 575 617 575 c 0,13,14
 666 575 666 575 717 584 c 1,15,-1
 717 1082 l 1,16,-1
 1056 1082 l 1,17,-1
 1056 0 l 1,0,-1
EndSplineSet
Substitution2: "'smcp' Lowercase to Small Capitals lookup 1 subtable" uni0427.c2sc
EndChar

StartChar: uni0448
Encoding: 1096 1096 250
Width: 1711
GlyphClass: 2
Flags: W
LayerCount: 2
Fore
SplineSet
425 1082 m 1,0,-1
 425 260 l 1,1,-1
 679 260 l 1,2,-1
 679 1082 l 1,3,-1
 1017 1082 l 1,4,-1
 1017 260 l 1,5,-1
 1270 260 l 1,6,-1
 1270 1082 l 1,7,-1
 1608 1082 l 1,8,-1
 1608 0 l 1,9,-1
 88 0 l 1,10,-1
 88 1082 l 1,11,-1
 425 1082 l 1,0,-1
EndSplineSet
Substitution2: "'smcp' Lowercase to Small Capitals lookup 1 subtable" uni0428.c2sc
EndChar

StartChar: uni0449
Encoding: 1097 1097 251
Width: 1918
GlyphClass: 2
Flags: W
LayerCount: 2
Fore
SplineSet
427 1082 m 1,0,-1
 427 260 l 1,1,-1
 680 260 l 1,2,-1
 680 1082 l 1,3,-1
 1019 1082 l 1,4,-1
 1019 260 l 1,5,-1
 1272 260 l 1,6,-1
 1272 1082 l 1,7,-1
 1609 1082 l 1,8,-1
 1609 258 l 1,9,-1
 1856 258 l 1,10,-1
 1836 -321 l 1,11,-1
 1519 -321 l 1,12,-1
 1519 0 l 1,13,-1
 90 0 l 1,14,-1
 90 1082 l 1,15,-1
 427 1082 l 1,0,-1
EndSplineSet
Substitution2: "'smcp' Lowercase to Small Capitals lookup 1 subtable" uni0429.c2sc
EndChar

StartChar: uni044A
Encoding: 1098 1098 252
Width: 1385
Flags: W
LayerCount: 2
Fore
SplineSet
678 785 m 1,0,-1
 851 785 l 2,1,2
 1002 785 1002 785 1115.5 736 c 128,-1,3
 1229 687 1229 687 1289 597 c 128,-1,4
 1349 507 1349 507 1349 388 c 0,5,6
 1349 213 1349 213 1213.5 106.5 c 128,-1,7
 1078 0 1078 0 846 0 c 2,8,-1
 340 0 l 1,9,-1
 340 821 l 1,10,-1
 35 821 l 1,11,-1
 35 1082 l 1,12,-1
 678 1082 l 1,13,-1
 678 785 l 1,0,-1
678 526 m 1,14,-1
 678 258 l 1,15,-1
 850 258 l 2,16,17
 928 258 928 258 970.5 293.5 c 128,-1,18
 1013 329 1013 329 1013 390 c 0,19,20
 1013 450 1013 450 974.5 488 c 128,-1,21
 936 526 936 526 850 526 c 2,22,-1
 678 526 l 1,14,-1
EndSplineSet
Substitution2: "'smcp' Lowercase to Small Capitals lookup 1 subtable" uni042A.c2sc
EndChar

StartChar: uni044B
Encoding: 1099 1099 253
Width: 1746
GlyphClass: 2
Flags: W
LayerCount: 2
Fore
SplineSet
456 785 m 1,0,-1
 629 785 l 2,1,2
 779 785 779 785 893 736 c 128,-1,3
 1007 687 1007 687 1067 597 c 128,-1,4
 1127 507 1127 507 1127 388 c 0,5,6
 1127 213 1127 213 991.5 106.5 c 128,-1,7
 856 0 856 0 622 0 c 2,8,-1
 117 0 l 1,9,-1
 117 1082 l 1,10,-1
 456 1082 l 1,11,-1
 456 785 l 1,0,-1
1626 0 m 1,12,-1
 1287 0 l 1,13,-1
 1287 1082 l 1,14,-1
 1626 1082 l 1,15,-1
 1626 0 l 1,12,-1
456 526 m 1,16,-1
 456 258 l 1,17,-1
 627 258 l 2,18,19
 704 258 704 258 747.5 293.5 c 128,-1,20
 791 329 791 329 791 390 c 0,21,22
 791 450 791 450 752 488 c 128,-1,23
 713 526 713 526 627 526 c 2,24,-1
 456 526 l 1,16,-1
EndSplineSet
Substitution2: "'smcp' Lowercase to Small Capitals lookup 1 subtable" uni042B.c2sc
EndChar

StartChar: uni044C
Encoding: 1100 1100 254
Width: 1157
Flags: W
LayerCount: 2
Fore
SplineSet
456 785 m 1,0,-1
 629 785 l 2,1,2
 779 785 779 785 893 736 c 128,-1,3
 1007 687 1007 687 1067 597 c 128,-1,4
 1127 507 1127 507 1127 388 c 0,5,6
 1127 213 1127 213 991.5 106.5 c 128,-1,7
 856 0 856 0 622 0 c 2,8,-1
 117 0 l 1,9,-1
 117 1082 l 1,10,-1
 456 1082 l 1,11,-1
 456 785 l 1,0,-1
456 526 m 1,12,-1
 456 258 l 1,13,-1
 627 258 l 2,14,15
 704 258 704 258 747.5 293.5 c 128,-1,16
 791 329 791 329 791 390 c 0,17,18
 791 450 791 450 752 488 c 128,-1,19
 713 526 713 526 627 526 c 2,20,-1
 456 526 l 1,12,-1
EndSplineSet
Substitution2: "'smcp' Lowercase to Small Capitals lookup 1 subtable" uni042C.c2sc
EndChar

StartChar: uni044D
Encoding: 1101 1101 255
Width: 1044
GlyphClass: 2
Flags: W
LayerCount: 2
Fore
SplineSet
497 842 m 0,0,1
 361 842 361 842 361 697 c 1,2,-1
 45 697 l 1,3,4
 45 874 45 874 170.5 988 c 128,-1,5
 296 1102 296 1102 497 1102 c 0,6,7
 734 1102 734 1102 872.5 954 c 128,-1,8
 1011 806 1011 806 1011 543 c 2,9,-1
 1011 529 l 2,10,11
 1011 277 1011 277 873 128.5 c 128,-1,12
 735 -20 735 -20 499 -20 c 0,13,14
 291 -20 291 -20 168 95.5 c 128,-1,15
 45 211 45 211 45 414 c 1,16,-1
 361 414 l 1,17,18
 361 333 361 333 396.5 286.5 c 128,-1,19
 432 240 432 240 499 240 c 0,20,21
 650 240 650 240 669 451 c 1,22,-1
 431 451 l 1,23,-1
 431 634 l 1,24,-1
 669 634 l 1,25,26
 651 842 651 842 497 842 c 0,0,1
EndSplineSet
Substitution2: "'smcp' Lowercase to Small Capitals lookup 1 subtable" uni042D.c2sc
EndChar

StartChar: uni044E
Encoding: 1102 1102 256
Width: 1657
GlyphClass: 2
Flags: W
LayerCount: 2
Fore
SplineSet
461 682 m 1,0,-1
 567 682 l 1,1,2
 603 879 603 879 737.5 990.5 c 128,-1,3
 872 1102 872 1102 1077 1102 c 0,4,5
 1309 1102 1309 1102 1448 963.5 c 128,-1,6
 1587 825 1587 825 1599 590 c 1,7,-1
 1600 530 l 1,8,9
 1600 280 1600 280 1460 130 c 128,-1,10
 1320 -20 1320 -20 1079 -20 c 0,11,12
 867 -20 867 -20 730.5 96.5 c 128,-1,13
 594 213 594 213 564 421 c 1,14,-1
 461 421 l 1,15,-1
 461 0 l 1,16,-1
 123 0 l 1,17,-1
 123 1082 l 1,18,-1
 461 1082 l 1,19,-1
 461 682 l 1,0,-1
893 530 m 2,20,21
 893 380 893 380 940 310 c 128,-1,22
 987 240 987 240 1079 240 c 0,23,24
 1259 240 1259 240 1263 517 c 1,25,-1
 1263 551 l 2,26,27
 1263 842 1263 842 1077 842 c 0,28,29
 908 842 908 842 894 591 c 1,30,-1
 893 530 l 2,20,21
EndSplineSet
Substitution2: "'smcp' Lowercase to Small Capitals lookup 1 subtable" uni042E.c2sc
EndChar

StartChar: uni044F
Encoding: 1103 1103 257
Width: 1156
GlyphClass: 2
Flags: W
LayerCount: 2
Fore
SplineSet
1036 1082 m 1,0,-1
 1036 0 l 1,1,-1
 700 0 l 1,2,-1
 700 358 l 1,3,-1
 570 358 l 1,4,-1
 379 0 l 1,5,-1
 43 0 l 1,6,-1
 265 415 l 1,7,8
 168 461 168 461 115.5 537 c 128,-1,9
 63 613 63 613 63 709 c 0,10,11
 63 874 63 874 195 976.5 c 128,-1,12
 327 1079 327 1079 539 1082 c 2,13,-1
 1036 1082 l 1,0,-1
400 697 m 0,14,15
 400 648 400 648 440.5 612.5 c 128,-1,16
 481 577 481 577 545 575 c 2,17,-1
 700 575 l 1,18,-1
 700 824 l 1,19,-1
 550 824 l 2,20,21
 484 824 484 824 442 787 c 128,-1,22
 400 750 400 750 400 697 c 0,14,15
EndSplineSet
Substitution2: "'smcp' Lowercase to Small Capitals lookup 1 subtable" uni042F.c2sc
EndChar

StartChar: uni0452
Encoding: 1106 1106 258
Width: 1156
Flags: W
LayerCount: 2
Fore
SplineSet
663 1184 m 1,0,-1
 424 1184 l 1,1,-1
 424 966 l 1,2,3
 532 1102 532 1102 700 1102 c 0,4,5
 879 1102 879 1102 970 996 c 128,-1,6
 1061 890 1061 890 1063 683 c 2,7,-1
 1063 -15 l 2,8,9
 1063 -217 1063 -217 955.5 -327 c 128,-1,10
 848 -437 848 -437 654 -437 c 0,11,12
 567 -437 567 -437 494 -420 c 1,13,-1
 507 -165 l 1,14,15
 559 -177 559 -177 608 -177 c 0,16,17
 725 -177 725 -177 725 -12 c 2,18,-1
 725 674 l 2,19,20
 725 761 725 761 690 801.5 c 128,-1,21
 655 842 655 842 571 842 c 0,22,23
 467 842 467 842 424 776 c 1,24,-1
 424 0 l 1,25,-1
 87 0 l 1,26,-1
 87 1184 l 1,27,-1
 -67 1184 l 1,28,-1
 -67 1375 l 1,29,-1
 87 1375 l 1,30,-1
 87 1536 l 1,31,-1
 424 1536 l 1,32,-1
 424 1375 l 1,33,-1
 663 1375 l 1,34,-1
 663 1184 l 1,0,-1
EndSplineSet
Substitution2: "'smcp' Lowercase to Small Capitals lookup 1 subtable" uni0402.c2sc
EndChar

StartChar: uni0454
Encoding: 1108 1108 259
Width: 1044
GlyphClass: 2
Flags: W
LayerCount: 2
Fore
SplineSet
544 240 m 0,0,1
 615 240 615 240 654 278.5 c 128,-1,2
 693 317 693 317 692 386 c 1,3,-1
 1008 386 l 1,4,5
 1008 208 1008 208 880.5 94 c 128,-1,6
 753 -20 753 -20 552 -20 c 0,7,8
 316 -20 316 -20 180 128 c 128,-1,9
 44 276 44 276 44 538 c 2,10,-1
 44 552 l 2,11,12
 44 716 44 716 104.5 841.5 c 128,-1,13
 165 967 165 967 279 1034.5 c 128,-1,14
 393 1102 393 1102 549 1102 c 0,15,16
 760 1102 760 1102 884 985 c 128,-1,17
 1008 868 1008 868 1008 668 c 1,18,-1
 692 668 l 1,19,20
 692 752 692 752 651 797 c 128,-1,21
 610 842 610 842 541 842 c 0,22,23
 468 842 468 842 429 791.5 c 128,-1,24
 390 741 390 741 382 616 c 1,25,-1
 645 616 l 1,26,-1
 645 433 l 1,27,-1
 385 433 l 1,28,29
 395 329 395 329 434.5 284.5 c 128,-1,30
 474 240 474 240 544 240 c 0,0,1
EndSplineSet
Substitution2: "'smcp' Lowercase to Small Capitals lookup 1 subtable" uni0404.c2sc
EndChar

StartChar: uni0459
Encoding: 1113 1113 260
Width: 1772
Flags: W
LayerCount: 2
Fore
SplineSet
1068 1082 m 1,0,-1
 1068 765 l 1,1,-1
 1250 765 l 2,2,3
 1472 762 1472 762 1605 658.5 c 128,-1,4
 1738 555 1738 555 1738 383 c 0,5,6
 1738 207 1738 207 1602.5 104 c 128,-1,7
 1467 1 1467 1 1242 0 c 2,8,-1
 729 0 l 1,9,-1
 729 822 l 1,10,-1
 523 822 l 1,11,-1
 505 491 l 1,12,13
 486 245 486 245 394 123 c 128,-1,14
 302 1 302 1 120 0 c 2,15,-1
 15 0 l 1,16,-1
 10 258 l 1,17,-1
 46 262 l 2,18,19
 113 270 113 270 145.5 351.5 c 128,-1,20
 178 433 178 433 187 598 c 2,21,-1
 208 1082 l 1,22,-1
 1068 1082 l 1,0,-1
1068 506 m 1,23,-1
 1068 258 l 1,24,-1
 1239 258 l 2,25,26
 1325 258 1325 258 1363.5 294.5 c 128,-1,27
 1402 331 1402 331 1402 385 c 0,28,29
 1402 437 1402 437 1363.5 471.5 c 128,-1,30
 1325 506 1325 506 1239 506 c 2,31,-1
 1068 506 l 1,23,-1
EndSplineSet
Substitution2: "'smcp' Lowercase to Small Capitals lookup 1 subtable" uni0409.c2sc
EndChar

StartChar: uni045A
Encoding: 1114 1114 261
Width: 1764
Flags: W
LayerCount: 2
Fore
SplineSet
425 660 m 1,0,-1
 720 660 l 1,1,-1
 720 1082 l 1,2,-1
 1058 1082 l 1,3,-1
 1058 765 l 1,4,-1
 1241 765 l 2,5,6
 1463 762 1463 762 1596 658.5 c 128,-1,7
 1729 555 1729 555 1729 383 c 0,8,9
 1729 207 1729 207 1593.5 104 c 128,-1,10
 1458 1 1458 1 1233 0 c 2,11,-1
 720 0 l 1,12,-1
 720 401 l 1,13,-1
 425 401 l 1,14,-1
 425 0 l 1,15,-1
 88 0 l 1,16,-1
 88 1082 l 1,17,-1
 425 1082 l 1,18,-1
 425 660 l 1,0,-1
1058 506 m 1,19,-1
 1058 258 l 1,20,-1
 1230 258 l 2,21,22
 1316 258 1316 258 1354.5 294.5 c 128,-1,23
 1393 331 1393 331 1393 385 c 0,24,25
 1393 437 1393 437 1354.5 471.5 c 128,-1,26
 1316 506 1316 506 1230 506 c 2,27,-1
 1058 506 l 1,19,-1
EndSplineSet
Substitution2: "'smcp' Lowercase to Small Capitals lookup 1 subtable" uni040A.c2sc
EndChar

StartChar: uni045B
Encoding: 1115 1115 262
Width: 1152
Flags: W
LayerCount: 2
Fore
SplineSet
671 1199 m 1,0,-1
 424 1199 l 1,1,-1
 424 966 l 1,2,3
 532 1102 532 1102 700 1102 c 0,4,5
 879 1102 879 1102 970 996 c 128,-1,6
 1061 890 1061 890 1063 683 c 2,7,-1
 1063 0 l 1,8,-1
 725 0 l 1,9,-1
 725 675 l 2,10,11
 725 761 725 761 690 801.5 c 128,-1,12
 655 842 655 842 571 842 c 0,13,14
 467 842 467 842 424 776 c 1,15,-1
 424 0 l 1,16,-1
 87 0 l 1,17,-1
 87 1199 l 1,18,-1
 -59 1199 l 1,19,-1
 -59 1390 l 1,20,-1
 87 1390 l 1,21,-1
 87 1536 l 1,22,-1
 424 1536 l 1,23,-1
 424 1390 l 1,24,-1
 671 1390 l 1,25,-1
 671 1199 l 1,0,-1
EndSplineSet
Substitution2: "'smcp' Lowercase to Small Capitals lookup 1 subtable" uni040B.c2sc
EndChar

StartChar: uni045F
Encoding: 1119 1119 263
Width: 1148
Flags: W
LayerCount: 2
Fore
SplineSet
425 1082 m 1,0,-1
 425 260 l 1,1,-1
 723 260 l 1,2,-1
 723 1082 l 1,3,-1
 1062 1082 l 1,4,-1
 1062 0 l 1,5,-1
 743 0 l 1,6,-1
 743 -360 l 1,7,-1
 405 -360 l 1,8,-1
 405 0 l 1,9,-1
 88 0 l 1,10,-1
 88 1082 l 1,11,-1
 425 1082 l 1,0,-1
EndSplineSet
Substitution2: "'smcp' Lowercase to Small Capitals lookup 1 subtable" uni040F.c2sc
EndChar

StartChar: uni0460
Encoding: 1120 1120 264
Width: 2016
GlyphClass: 2
Flags: W
LayerCount: 2
Fore
SplineSet
1895 1456 m 1,0,-1
 1895 489 l 2,1,2
 1895 334 1895 334 1830 219 c 128,-1,3
 1765 104 1765 104 1642.5 41.5 c 128,-1,4
 1520 -21 1520 -21 1360 -21 c 0,5,6
 1128 -21 1128 -21 999 134 c 1,7,8
 872 -21 872 -21 644 -21 c 0,9,10
 400 -21 400 -21 251.5 114.5 c 128,-1,11
 103 250 103 250 101 485 c 2,12,-1
 101 1456 l 1,13,-1
 452 1456 l 1,14,-1
 452 495 l 2,15,16
 452 249 452 249 644 249 c 0,17,18
 819 249 819 249 824 475 c 1,19,-1
 824 1456 l 1,20,-1
 1172 1456 l 1,21,-1
 1172 495 l 2,22,23
 1172 249 1172 249 1360 249 c 0,24,25
 1540 249 1540 249 1544 478 c 1,26,-1
 1544 1456 l 1,27,-1
 1895 1456 l 1,0,-1
EndSplineSet
EndChar

StartChar: uni0461
Encoding: 1121 1121 265
Width: 1748
GlyphClass: 2
Flags: W
LayerCount: 2
Fore
SplineSet
1686 1082 m 1,0,-1
 1686 472 l 2,1,2
 1683 245 1683 245 1557 112 c 128,-1,3
 1431 -21 1431 -21 1211 -21 c 0,4,5
 1004 -21 1004 -21 890 121 c 1,6,7
 776 -21 776 -21 567 -21 c 0,8,9
 348 -21 348 -21 219.5 111.5 c 128,-1,10
 91 244 91 244 88 472 c 2,11,-1
 88 1082 l 1,12,-1
 426 1082 l 1,13,-1
 426 461 l 1,14,15
 431 239 431 239 567 239 c 0,16,17
 647 239 647 239 685 296.5 c 128,-1,18
 723 354 723 354 723 482 c 2,19,-1
 723 1082 l 1,20,-1
 1061 1082 l 1,21,-1
 1061 482 l 2,22,23
 1061 354 1061 354 1096.5 296.5 c 128,-1,24
 1132 239 1132 239 1211 239 c 0,25,26
 1282 239 1282 239 1314.5 296.5 c 128,-1,27
 1347 354 1347 354 1347 482 c 2,28,-1
 1347 1082 l 1,29,-1
 1686 1082 l 1,0,-1
EndSplineSet
EndChar

StartChar: uni0463
Encoding: 1123 1123 266
Width: 1157
Flags: W
LayerCount: 2
Fore
SplineSet
678 1083 m 1,0,-1
 456 1083 l 1,1,-1
 456 805 l 1,2,-1
 623 805 l 2,3,4
 854 805 854 805 990.5 696 c 128,-1,5
 1127 587 1127 587 1127 403 c 0,6,7
 1127 221 1127 221 993.5 111 c 128,-1,8
 860 1 860 1 630 0 c 2,9,-1
 118 0 l 1,10,-1
 118 1083 l 1,11,-1
 -21 1083 l 1,12,-1
 -21 1274 l 1,13,-1
 118 1274 l 1,14,-1
 118 1562 l 1,15,-1
 456 1562 l 1,16,-1
 456 1274 l 1,17,-1
 678 1274 l 1,18,-1
 678 1083 l 1,0,-1
456 546 m 1,19,-1
 456 258 l 1,20,-1
 627 258 l 2,21,22
 704 258 704 258 747.5 296.5 c 128,-1,23
 791 335 791 335 791 405 c 0,24,25
 791 546 791 546 615 546 c 2,26,-1
 456 546 l 1,19,-1
EndSplineSet
EndChar

StartChar: uni0464
Encoding: 1124 1124 267
Width: 1823
Flags: W
LayerCount: 2
Fore
SplineSet
446 869 m 1,0,-1
 615 869 l 1,1,2
 641 1148 641 1148 803 1313 c 128,-1,3
 965 1478 965 1478 1223 1478 c 0,4,5
 1488 1478 1488 1478 1649 1338.5 c 128,-1,6
 1810 1199 1810 1199 1832 954 c 1,7,-1
 1482 954 l 1,8,9
 1478 1087 1478 1087 1415.5 1145 c 128,-1,10
 1353 1203 1353 1203 1223 1203 c 0,11,12
 1104 1203 1104 1203 1042.5 1120.5 c 128,-1,13
 981 1038 981 1038 970 869 c 1,14,-1
 1337 869 l 1,15,-1
 1337 608 l 1,16,-1
 968 608 l 1,17,18
 976 422 976 422 1037 339 c 128,-1,19
 1098 256 1098 256 1228 256 c 0,20,21
 1349 256 1349 256 1412.5 313 c 128,-1,22
 1476 370 1476 370 1480 494 c 1,23,-1
 1830 494 l 1,24,25
 1823 343 1823 343 1748 226.5 c 128,-1,26
 1673 110 1673 110 1537 45.5 c 128,-1,27
 1401 -19 1401 -19 1228 -19 c 0,28,29
 958 -19 958 -19 796 146.5 c 128,-1,30
 634 312 634 312 614 608 c 1,31,-1
 446 608 l 1,32,-1
 446 0 l 1,33,-1
 97 0 l 1,34,-1
 97 1456 l 1,35,-1
 446 1456 l 1,36,-1
 446 869 l 1,0,-1
EndSplineSet
EndChar

StartChar: uni0465
Encoding: 1125 1125 268
Width: 1553
Flags: W
LayerCount: 2
Fore
SplineSet
437 640 m 1,0,-1
 547 640 l 1,1,2
 571 857 571 857 703.5 979.5 c 128,-1,3
 836 1102 836 1102 1048 1102 c 0,4,5
 1259 1102 1259 1102 1383 985 c 128,-1,6
 1507 868 1507 868 1507 668 c 1,7,-1
 1191 668 l 1,8,9
 1191 752 1191 752 1150.5 797 c 128,-1,10
 1110 842 1110 842 1041 842 c 128,-1,11
 972 842 972 842 933 796 c 128,-1,12
 894 750 894 750 884 640 c 1,13,-1
 1153 640 l 1,14,-1
 1153 449 l 1,15,-1
 883 449 l 1,16,17
 890 340 890 340 928.5 290 c 128,-1,18
 967 240 967 240 1043 240 c 0,19,20
 1114 240 1114 240 1153 278.5 c 128,-1,21
 1192 317 1192 317 1191 386 c 1,22,-1
 1507 386 l 1,23,24
 1507 208 1507 208 1379.5 94 c 128,-1,25
 1252 -20 1252 -20 1051 -20 c 0,26,27
 835 -20 835 -20 702 103.5 c 128,-1,28
 569 227 569 227 547 449 c 1,29,-1
 437 449 l 1,30,-1
 437 0 l 1,31,-1
 99 0 l 1,32,-1
 99 1082 l 1,33,-1
 437 1082 l 1,34,-1
 437 640 l 1,0,-1
EndSplineSet
EndChar

StartChar: uni0466
Encoding: 1126 1126 269
Width: 1417
Flags: W
LayerCount: 2
Fore
SplineSet
895 414 m 1,0,-1
 832 414 l 1,1,-1
 832 0 l 1,2,-1
 557 0 l 1,3,-1
 557 414 l 1,4,-1
 505 414 l 1,5,-1
 372 0 l 1,6,-1
 1 0 l 1,7,-1
 508 1456 l 1,8,-1
 696 1456 l 1,9,-1
 699 1452 l 1,10,-1
 703 1456 l 1,11,-1
 891 1456 l 1,12,-1
 1400 0 l 1,13,-1
 1030 0 l 1,14,-1
 895 414 l 1,0,-1
576 636 m 1,15,-1
 823 636 l 1,16,-1
 699 1019 l 1,17,-1
 576 636 l 1,15,-1
EndSplineSet
EndChar

StartChar: uni0467
Encoding: 1127 1127 270
Width: 1171
Flags: W
LayerCount: 2
Fore
SplineSet
728 262 m 1,0,-1
 663 262 l 1,1,-1
 663 0 l 1,2,-1
 476 0 l 1,3,-1
 476 262 l 1,4,-1
 428 262 l 1,5,-1
 348 0 l 1,6,-1
 4 0 l 1,7,-1
 396 1082 l 1,8,-1
 761 1082 l 1,9,-1
 1152 0 l 1,10,-1
 809 0 l 1,11,-1
 728 262 l 1,0,-1
489 460 m 1,12,-1
 667 460 l 1,13,-1
 613 635 l 1,14,-1
 578 787 l 1,15,-1
 543 635 l 1,16,-1
 489 460 l 1,12,-1
EndSplineSet
EndChar

StartChar: uni0468
Encoding: 1128 1128 271
Width: 1976
Flags: W
LayerCount: 2
Fore
SplineSet
470 634 m 1,0,-1
 775 634 l 1,1,-1
 1062 1456 l 1,2,-1
 1250 1456 l 1,3,-1
 1253 1452 l 1,4,-1
 1257 1456 l 1,5,-1
 1444 1456 l 1,6,-1
 1954 0 l 1,7,-1
 1583 0 l 1,8,-1
 1449 414 l 1,9,-1
 1386 414 l 1,10,-1
 1386 0 l 1,11,-1
 1111 0 l 1,12,-1
 1111 414 l 1,13,-1
 1058 414 l 1,14,-1
 925 0 l 1,15,-1
 555 0 l 1,16,-1
 699 414 l 1,17,-1
 470 414 l 1,18,-1
 470 0 l 1,19,-1
 120 0 l 1,20,-1
 120 1456 l 1,21,-1
 470 1456 l 1,22,-1
 470 634 l 1,0,-1
1129 636 m 1,23,-1
 1377 636 l 1,24,-1
 1252 1021 l 1,25,-1
 1129 636 l 1,23,-1
EndSplineSet
EndChar

StartChar: uni0469
Encoding: 1129 1129 272
Width: 1681
Flags: W
LayerCount: 2
Fore
SplineSet
433 459 m 1,0,-1
 681 459 l 1,1,-1
 907 1082 l 1,2,-1
 1272 1082 l 1,3,-1
 1663 0 l 1,4,-1
 1320 0 l 1,5,-1
 1239 262 l 1,6,-1
 1174 262 l 1,7,-1
 1174 0 l 1,8,-1
 988 0 l 1,9,-1
 988 262 l 1,10,-1
 939 262 l 1,11,-1
 859 0 l 1,12,-1
 515 0 l 1,13,-1
 610 263 l 1,14,-1
 433 263 l 1,15,-1
 433 0 l 1,16,-1
 94 0 l 1,17,-1
 94 1082 l 1,18,-1
 433 1082 l 1,19,-1
 433 459 l 1,0,-1
1000 460 m 1,20,-1
 1178 460 l 1,21,-1
 1124 635 l 1,22,-1
 1089 787 l 1,23,-1
 1054 635 l 1,24,-1
 1000 460 l 1,20,-1
EndSplineSet
EndChar

StartChar: uni046A
Encoding: 1130 1130 273
Width: 1797
Flags: W
LayerCount: 2
Fore
SplineSet
1216 793 m 1,0,1
 1468 778 1468 778 1586 664.5 c 128,-1,2
 1704 551 1704 551 1706 333 c 2,3,-1
 1706 0 l 1,4,-1
 1357 0 l 1,5,-1
 1357 327 l 2,6,7
 1357 429 1357 429 1309 474.5 c 128,-1,8
 1261 520 1261 520 1148 521 c 2,9,-1
 1092 521 l 1,10,-1
 1092 0 l 1,11,-1
 742 0 l 1,12,-1
 742 521 l 1,13,-1
 656 521 l 2,14,15
 541 521 541 521 491.5 477.5 c 128,-1,16
 442 434 442 434 440 336 c 2,17,-1
 440 0 l 1,18,-1
 91 0 l 1,19,-1
 91 340 l 1,20,21
 95 563 95 563 223.5 676 c 128,-1,22
 352 789 352 789 625 795 c 1,23,-1
 257 1456 l 1,24,-1
 1585 1456 l 1,25,-1
 1216 793 l 1,0,1
921 867 m 1,26,-1
 1073 1181 l 1,27,-1
 769 1181 l 1,28,-1
 921 867 l 1,26,-1
EndSplineSet
EndChar

StartChar: uni046B
Encoding: 1131 1131 274
Width: 1493
Flags: W
LayerCount: 2
Fore
SplineSet
1038 609 m 1,0,1
 1223 583 1223 583 1312 480.5 c 128,-1,2
 1401 378 1401 378 1402 195 c 2,3,-1
 1402 0 l 1,4,-1
 1065 0 l 1,5,-1
 1065 192 l 2,6,7
 1065 285 1065 285 1032 328 c 128,-1,8
 999 371 999 371 920 373 c 1,9,-1
 920 0 l 1,10,-1
 583 0 l 1,11,-1
 583 373 l 1,12,13
 500 373 500 373 464 332.5 c 128,-1,14
 428 292 428 292 427 198 c 2,15,-1
 427 0 l 1,16,-1
 90 0 l 1,17,-1
 90 202 l 2,18,19
 93 385 93 385 184.5 486 c 128,-1,20
 276 587 276 587 470 611 c 1,21,-1
 197 1082 l 1,22,-1
 1312 1082 l 1,23,-1
 1038 609 l 1,0,1
754 643 m 1,24,-1
 859 880 l 1,25,-1
 649 880 l 1,26,-1
 754 643 l 1,24,-1
EndSplineSet
EndChar

